<svg id="Capa_1" enable-background="new 0 0 512 512" height="512" viewBox="0 0 512 512" width="512" xmlns="http://www.w3.org/2000/svg" xmlns:xlink="http://www.w3.org/1999/xlink"><linearGradient id="SVGID_1_" gradientUnits="userSpaceOnUse" x1="256" x2="256" y1="512" y2="0"><stop offset="0" stop-color="#fd3a84"/><stop offset="1" stop-color="#ffa68d"/></linearGradient><g><g><path d="m391 181c-5.054 0-10.093.513-15 1.509v-77.509c0-8.291-6.709-15-15-15h-76.509c.996-4.907 1.509-9.946 1.509-15 0-41.353-33.647-75-75-75s-75 33.647-75 75c0 5.054.513 10.093 1.509 15h-76.509c-8.291 0-15 6.709-15 15v99.027c0 5.361 2.871 10.313 7.515 12.993 4.644 2.666 10.371 2.681 15.015-.015 6.767-3.925 14.545-6.005 22.47-6.005 24.814 0 45 20.186 45 45s-20.186 45-45 45c-7.925 0-15.703-2.08-22.471-6.006-4.658-2.71-10.386-2.695-15.015-.015-4.643 2.681-7.514 7.632-7.514 12.994v99.027c0 8.291 6.709 15 15 15h76.509c-.996 4.907-1.509 9.946-1.509 15 0 41.353 33.647 75 75 75s75-33.647 75-75c0-5.054-.513-10.093-1.509-15h76.509c8.291 0 15-6.709 15-15v-77.509c4.907.996 9.946 1.509 15 1.509 41.353 0 75-33.647 75-75s-33.647-75-75-75zm0 120c-7.925 0-15.703-2.08-22.471-6.006-4.658-2.71-10.386-2.695-15.015-.015-4.644 2.681-7.515 7.632-7.515 12.993v84.028h-83.027c-5.361 0-10.313 2.871-12.993 7.515s-2.681 10.371.015 15.015c3.926 6.767 6.006 14.545 6.006 22.47 0 24.814-20.186 45-45 45s-45-20.186-45-45c0-7.925 2.08-15.703 6.006-22.471 2.695-4.644 2.695-10.371.015-15.015s-7.632-7.514-12.994-7.514h-83.027v-62.509c4.907.996 9.946 1.509 15 1.509 41.353 0 75-33.647 75-75s-33.647-75-75-75c-5.054 0-10.093.513-15 1.509v-62.509h83.027c5.361 0 10.313-2.871 12.993-7.515s2.681-10.371-.015-15.015c-3.925-6.767-6.005-14.545-6.005-22.47 0-24.814 20.186-45 45-45s45 20.186 45 45c0 7.925-2.08 15.703-6.006 22.471-2.695 4.644-2.695 10.371-.015 15.015s7.632 7.514 12.994 7.514h83.027v84.027c0 5.361 2.871 10.313 7.515 12.993 4.644 2.666 10.371 2.681 15.015-.015 6.767-3.925 14.545-6.005 22.47-6.005 24.814 0 45 20.186 45 45s-20.186 45-45 45z" fill="url(#SVGID_1_)"/></g></g></svg>