<svg id="Layer_1" enable-background="new 0 0 512.298 512.298" height="512" viewBox="0 0 512.298 512.298" width="512" xmlns="http://www.w3.org/2000/svg"><g><g><g><path d="m257.987 512.298c-8.284 0-15-6.716-15-15v-53.399c0-8.284 6.716-15 15-15s15 6.716 15 15v53.399c0 8.284-6.716 15-15 15z" fill="#00cc71"/></g></g><g><g><path d="m258.494 83.951c-8.284 0-15-6.716-15-15v-53.951c0-8.284 6.716-15 15-15s15 6.716 15 15v53.951c0 8.284-6.716 15-15 15z" fill="#00cc71"/></g></g><path d="m272.987 497.298v-53.951c0-8.284-6.716-15-15-15v83.951c8.284 0 15-6.716 15-15z" fill="#006635"/><path d="m258.494 0c-.172 0-.338.02-.508.026v82.904h4.172c6.509-1.638 11.335-7.513 11.335-14.53v-53.4c.001-8.284-6.715-15-14.999-15z" fill="#006635"/><ellipse cx="258.494" cy="256.44" fill="#cfd" rx="187.216" ry="187.458"/><path d="m258.494 68.982c-.17 0-.338.006-.507.006v374.904c.169 0 .338.006.507.006 103.397 0 187.217-83.928 187.217-187.458s-83.82-187.458-187.217-187.458z" fill="#9fb"/><g><g><path d="m71.278 271.44h-56.202c-8.284 0-15-6.716-15-15s6.716-15 15-15h56.202c8.284 0 15 6.716 15 15s-6.716 15-15 15z" fill="#00cc71"/></g></g><ellipse cx="322.472" cy="194.703" fill="#006635" rx="37.287" ry="37.335"/><ellipse cx="193.142" cy="256.44" fill="#00dd7b" rx="29.618" ry="29.656"/><ellipse cx="322.472" cy="327.781" fill="#009b52" rx="25.115" ry="25.148"/><g><path d="m431.765 200.233c-5.923 0-11.534-3.532-13.901-9.357-3.118-7.675.575-16.425 8.25-19.543l48.157-19.566c7.676-3.118 16.425.576 19.543 8.25 3.118 7.675-.575 16.425-8.25 19.543l-48.157 19.566c-1.85.751-3.762 1.107-5.642 1.107z" fill="#006635"/></g><g><path d="m390.913 138.948c-3.841 0-7.68-1.465-10.609-4.396-5.856-5.859-5.854-15.357.006-21.213l36.758-36.739c5.861-5.855 15.357-5.853 21.213.006s5.854 15.357-.006 21.213l-36.759 36.738c-2.929 2.927-6.766 4.391-10.603 4.391z" fill="#006635"/></g><g><path d="m330.829 98.444c-1.859 0-3.749-.348-5.58-1.082-7.688-3.084-11.421-11.818-8.337-19.506l19.345-48.224c3.084-7.689 11.818-11.42 19.507-8.337 7.688 3.084 11.421 11.818 8.337 19.506l-19.345 48.224c-2.35 5.857-7.98 9.419-13.927 9.419z" fill="#006635"/></g><g><g><path d="m187.61 98.051c-5.921 0-11.531-3.529-13.899-9.352l-19.577-48.13c-3.121-7.674.569-16.425 8.243-19.546 7.673-3.121 16.426.569 19.546 8.243l19.577 48.13c3.121 7.674-.569 16.425-8.243 19.546-1.851.752-3.765 1.109-5.647 1.109z" fill="#00cc71"/></g></g><g><g><path d="m126.289 138.872c-3.838 0-7.675-1.463-10.604-4.391l-36.759-36.738c-5.859-5.856-5.862-15.354-.006-21.213 5.855-5.86 15.354-5.863 21.213-.006l36.759 36.738c5.859 5.856 5.862 15.354.006 21.213-2.929 2.931-6.77 4.397-10.609 4.397z" fill="#00cc71"/></g></g><g><g><path d="m85.753 198.92c-1.857 0-3.745-.347-5.574-1.08l-48.252-19.334c-7.69-3.082-11.426-11.813-8.345-19.503 3.082-7.69 11.814-11.426 19.503-8.345l48.252 19.334c7.69 3.082 11.426 11.813 8.345 19.503-2.349 5.861-7.979 9.425-13.929 9.425z" fill="#00cc71"/></g></g><g><path d="m348.458 493.372c-5.921 0-11.531-3.529-13.899-9.352l-19.577-48.131c-3.121-7.674.569-16.425 8.243-19.546 7.673-3.122 16.426.569 19.546 8.243l19.577 48.131c3.121 7.674-.569 16.425-8.243 19.546-1.851.752-3.765 1.109-5.647 1.109z" fill="#006635"/></g><g><path d="m427.452 441.15c-3.838 0-7.675-1.463-10.604-4.391l-36.759-36.738c-5.859-5.856-5.862-15.354-.006-21.213 5.855-5.86 15.354-5.863 21.213-.006l36.759 36.738c5.859 5.856 5.862 15.354.006 21.213-2.929 2.932-6.769 4.397-10.609 4.397z" fill="#006635"/></g><g><path d="m479.47 362.873c-1.857 0-3.745-.347-5.574-1.08l-48.251-19.335c-7.69-3.082-11.426-11.813-8.345-19.503 3.082-7.69 11.814-11.425 19.503-8.344l48.251 19.335c7.69 3.082 11.426 11.813 8.345 19.503-2.349 5.86-7.98 9.424-13.929 9.424z" fill="#006635"/></g><g><path d="m497.222 270.731c-.001 0 0 0 0 0l-51.521-.001c-8.284 0-15-6.716-15-15s6.717-15 15-15l51.521.001c8.284 0 15 6.716 15 15s-6.717 15-15 15z" fill="#006635"/></g><g><g><path d="m36.588 360.959c-5.923 0-11.534-3.532-13.901-9.357-3.118-7.675.575-16.425 8.25-19.543l48.157-19.566c7.676-3.118 16.425.576 19.543 8.25 3.118 7.675-.575 16.425-8.25 19.543l-48.157 19.567c-1.85.751-3.762 1.106-5.642 1.106z" fill="#00cc71"/></g></g><g><g><path d="m88.466 439.772c-3.841 0-7.68-1.465-10.609-4.396-5.856-5.859-5.854-15.357.006-21.213l36.759-36.738c5.86-5.855 15.356-5.853 21.213.006s5.854 15.357-.006 21.213l-36.759 36.738c-2.929 2.926-6.767 4.39-10.604 4.39z" fill="#00cc71"/></g></g><g><g><path d="m165.954 492.254c-1.859 0-3.749-.348-5.58-1.083-7.688-3.084-11.421-11.817-8.337-19.506l19.346-48.224c3.086-7.689 11.818-11.421 19.507-8.336 7.688 3.084 11.421 11.817 8.337 19.506l-19.346 48.224c-2.351 5.857-7.98 9.419-13.927 9.419z" fill="#00cc71"/></g></g><path d="m258.495 458.898c-111.503 0-202.217-90.822-202.217-202.458s90.714-202.458 202.217-202.458c111.502 0 202.216 90.822 202.216 202.458-.001 111.636-90.714 202.458-202.216 202.458zm0-374.916c-94.961 0-172.217 77.364-172.217 172.458s77.256 172.458 172.217 172.458c94.96 0 172.216-77.365 172.216-172.458s-77.256-172.458-172.216-172.458z" fill="#00f17e"/><path d="m258.495 53.982c-.17 0-.338.006-.508.007v30c.17 0 .338-.007.508-.007 94.96 0 172.216 77.364 172.216 172.458s-77.256 172.458-172.216 172.458c-.17 0-.338-.006-.508-.006v30c.17 0 .338.006.508.006 111.502 0 202.216-90.822 202.216-202.458-.001-111.636-90.714-202.458-202.216-202.458z" fill="#009b52"/></g></svg>