<svg id="Layer_1" enable-background="new 0 0 511.551 511.551" height="512" viewBox="0 0 511.551 511.551" width="512" xmlns="http://www.w3.org/2000/svg"><g><g><path d="m203.413 225.869h27.343v137.362h-27.343z" fill="#dbf5ff" transform="matrix(.707 -.707 .707 .707 -144.696 239.774)"/></g><g><path d="m160.322 230.19h27.343v214.9h-27.343z" fill="#dbf5ff" transform="matrix(.707 -.707 .707 .707 -187.786 221.925)"/></g><g><path d="m117.231 256.712h27.343v248.037h-27.343z" fill="#dbf5ff" transform="matrix(.707 -.707 .707 .707 -230.877 204.076)"/></g><g fill="#b3ddff"><path d="m227.65 284.384h27.343v68.807h-27.343z" transform="matrix(.707 -.707 .707 .707 -154.735 264.011)"/><path d="m198.267 321.796h27.343v107.577h-27.343z" transform="matrix(.707 -.707 .707 .707 -203.503 259.87)"/><path d="m161.034 362.461h27.343v124.145h-27.343z" transform="matrix(.707 -.707 .707 .707 -249.02 247.878)"/></g><g><g><path d="m289.936 139.346h27.343v137.362h-27.343z" fill="#ffd396" transform="matrix(.707 -.707 .707 .707 -58.172 275.613)"/></g></g><g><path d="m333.026 55.855h27.343v218.163h-27.343z" fill="#ffd396" transform="matrix(.707 -.707 .707 .707 -15.082 293.461)"/></g><g><path d="m376.117-3.04h27.343v249.77h-27.343z" fill="#ffd396" transform="matrix(.707 -.707 .707 .707 28.009 311.31)"/></g><path d="m420.226 103.448h27.343v125.012h-27.343z" fill="#ff9f00" transform="matrix(.707 -.707 .707 .707 9.738 355.419)"/><path d="m371.547 148.854h27.343v109.208h-27.343z" fill="#ff9f00" transform="matrix(.707 -.707 .707 .707 -31.038 331.982)"/><path d="m314.174 197.86h27.343v68.807h-27.343z" fill="#ff9f00" transform="matrix(.707 -.707 .707 .707 -68.212 299.85)"/><path d="m509.895 193.246c2.727-5.162 1.92-11.702-2.424-16.046-5.337-5.337-13.991-5.337-19.328 0-1.005 1.005-1.82 2.128-2.447 3.324l-.003-.002.051-.096c-4.091 7.507-18.955 25.449-45.924 39.62-57.35 30.134-131.781 25.824-184.122 16.902-41.373-7.052-80.328-7.41-115.782-1.063-28.684 5.134-55.142 14.639-78.64 28.25-40.54 23.484-58.341 51.216-59.08 52.384-3.477 5.509-2.546 12.568 1.877 16.991.703.703 1.495 1.34 2.371 1.893 6.385 4.031 14.813 2.147 18.843-4.238.154-.239 15.767-24.097 51.078-44.163 20.704-11.765 44.085-19.974 69.493-24.4 32.033-5.58 67.442-5.142 105.246 1.302 45.578 7.768 87.331 9.137 124.101 4.07 29.945-4.128 56.721-12.513 79.586-24.924 31.965-17.352 49.668-39.454 55.104-49.804z" fill="#00ffe7"/><path d="m507.471 177.2c-5.337-5.337-13.991-5.337-19.328 0-1.005 1.005-1.82 2.128-2.447 3.324l-.003-.002.051-.096c-4.091 7.507-18.955 25.449-45.924 39.62-51.623 27.125-117.083 26.34-167.817 19.406l-23.958 23.958c1.02.166 2.035.318 3.059.493 45.578 7.768 87.331 9.137 124.101 4.07 29.945-4.128 56.721-12.513 79.586-24.924 31.967-17.352 49.669-39.454 55.106-49.804 2.725-5.161 1.918-11.701-2.426-16.045z" fill="#00ddc1"/><path d="m247.499 450.359c13.611-23.497 23.115-49.956 28.25-78.64 6.346-35.455 5.988-74.41-1.064-115.783-8.922-52.341-13.232-126.773 16.902-184.122 13.283-25.28 30.342-40.385 38.552-45.49 1.505-.667 2.92-1.604 4.154-2.838 5.375-5.375 5.375-14.089 0-19.463-4.825-4.825-12.335-5.304-17.711-1.465-11.064 6.628-31.823 24.489-47.998 54.287-12.411 22.864-20.797 49.64-24.924 79.585-5.068 36.769-3.698 78.523 4.07 124.101 6.444 37.803 6.882 73.213 1.302 105.246-4.426 25.408-12.635 48.789-24.399 69.494-20.066 35.312-43.924 50.924-44.113 51.046-6.385 4.031-8.294 12.474-4.263 18.859.555.88 1.194 1.674 1.9 2.38 4.418 4.418 11.453 5.358 16.958 1.883 1.168-.738 28.9-18.54 52.384-59.08z" fill="#ff5ca8"/><path d="m275.749 371.719c6.346-35.455 5.988-74.41-1.064-115.783-.908-5.324-1.766-10.88-2.547-16.62l-23.965 23.965c6.001 36.768 6.302 71.242.858 102.495-4.426 25.408-12.635 48.789-24.399 69.494-20.066 35.312-43.924 50.924-44.113 51.046-6.385 4.031-8.294 12.474-4.263 18.859.555.88 1.194 1.674 1.9 2.38 4.418 4.418 11.453 5.358 16.958 1.883 1.169-.738 28.901-18.54 52.384-59.08 13.612-23.496 23.116-49.955 28.251-78.639z" fill="#ff1786"/></g></svg>