<svg id="Layer_1" enable-background="new 0 0 510.858 510.858" height="512" viewBox="0 0 510.858 510.858" width="512" xmlns="http://www.w3.org/2000/svg"><g><path d="m435.694 510.858h-360.53c-5.259 0-9.522-4.263-9.522-9.523v-491.812c-.001-5.26 4.263-9.523 9.522-9.523h360.53c5.259 0 9.523 4.263 9.523 9.523v491.813c-.001 5.259-4.264 9.522-9.523 9.522z" fill="#fff5f5"/><path d="m436.114 510.858h-180.686v-510.858h180.685c5.027 0 9.103 4.075 9.103 9.103v492.652c0 5.027-4.075 9.103-9.102 9.103z" fill="#eee1dc"/><path d="m328.011 71.812h-141.014c-5.644 0-10.219-4.575-10.219-10.219v-61.593h161.451v61.593c0 5.644-4.575 10.219-10.218 10.219z" fill="#ff9f00"/><path d="m338.229 61.593v-61.593h-82.801v71.812h72.583c5.643 0 10.218-4.575 10.218-10.219z" fill="#ff641a"/><g><path d="m241.428 425.785c-.177 0-.354-.003-.532-.009-7.034-.247-12.95-5.352-14.226-12.273l-32.569-176.806-20.053 62.869c-1.984 6.22-7.762 10.442-14.291 10.442h-31.181c-8.284 0-15-6.716-15-15s6.716-15 15-15h20.221l34.918-109.471c2.09-6.555 8.356-10.858 15.239-10.412 6.867.435 12.557 5.486 13.803 12.252l31.107 168.871 33.686-130.618c1.692-6.562 7.574-11.174 14.351-11.253.058 0 .117-.001.176-.001 6.704 0 12.604 4.453 14.432 10.918l21.992 77.756 3.629-3.624c2.813-2.808 6.625-4.385 10.599-4.385h39.552c8.284 0 15 6.716 15 15s-6.716 15-15 15h-33.346l-17.317 17.29c-3.764 3.758-9.237 5.242-14.386 3.898-5.147-1.343-9.198-5.313-10.646-10.432l-13.843-48.945-36.796 142.679c-1.713 6.643-7.704 11.254-14.519 11.254z" fill="#1f5c99"/></g><path d="m382.281 280.116h-39.552c-3.974 0-7.786 1.577-10.599 4.385l-3.629 3.624-21.992-77.756c-1.828-6.465-7.728-10.918-14.432-10.918-.059 0-.118 0-.176.001-6.776.079-12.658 4.691-14.351 11.253l-22.123 85.783v119.714c.197-.519.378-1.047.519-1.594l36.796-142.679 13.843 48.945c1.447 5.119 5.498 9.088 10.646 10.432s10.622-.14 14.386-3.898l17.317-17.29h33.346c8.284 0 15-6.716 15-15s-6.715-15.002-14.999-15.002z" fill="#0e365c"/></g></svg>