<svg id="Layer_1" enable-background="new 0 0 512.46 512.46" height="512" viewBox="0 0 512.46 512.46" width="512" xmlns="http://www.w3.org/2000/svg"><g><g><path d="m330.126 512h-147.302c-8.284 0-15-6.716-15-15s6.716-15 15-15h147.302c8.284 0 15 6.716 15 15s-6.716 15-15 15z" fill="#0e365c"/></g><path d="m330.126 482h-73.896v30h73.896c8.284 0 15-6.716 15-15s-6.716-15-15-15z" fill="#1b0428"/><path d="m185.189 308.132h142.571c26.05-20.896 42.734-52.988 42.734-88.982 0-45.876-27.096-85.419-66.156-103.51-6.484-3.003-10.646-9.483-10.646-16.63v-84.01h-74.434v84.011c0 7.146-4.162 13.626-10.646 16.629-39.06 18.091-66.156 57.634-66.156 103.51-.001 35.994 16.683 68.086 42.733 88.982z" fill="#dbf5ff"/><path d="m304.337 115.64c-6.484-3.003-10.646-9.483-10.646-16.63v-84.01h-37.461v293.133h71.53c26.05-20.896 42.734-52.989 42.734-88.982 0-45.877-27.097-85.42-66.157-103.511z" fill="#b3ddff"/><g><path d="m319.405 30h-127.891c-8.284 0-15-6.716-15-15s6.716-15 15-15h127.891c8.284 0 15 6.716 15 15s-6.716 15-15 15z" fill="#b3ddff"/></g><path d="m370.494 219.15c0-5.938-.468-11.766-1.343-17.459l-.094-.198h-82.573c-12.426 0-22.499-10.073-22.499-22.499 0-12.426-10.073-22.499-22.499-22.499h-80.076l-.231.055c-11.83 17.969-18.723 39.476-18.723 62.599 0 35.994 16.683 68.086 42.734 88.982h142.57c26.05-20.895 42.734-52.987 42.734-88.981z" fill="#ff9f00"/><g><g><path d="m36.487 512.285c-1.775 0-3.579-.317-5.336-.986-7.742-2.949-11.627-11.615-8.678-19.357l72.048-189.144c2.216-5.817 7.793-9.661 14.018-9.661h295.871c6.235 0 11.82 3.857 14.028 9.689l71.56 189.024c2.933 7.747-.97 16.406-8.718 19.339-7.749 2.934-16.406-.97-19.339-8.718l-67.891-179.335h-275.174l-68.368 179.485c-2.28 5.984-7.976 9.664-14.021 9.664z" fill="#1f5c99"/></g></g><path d="m247.344 383.766-32.585 56.44c-18.54 32.113 4.635 72.253 41.716 72.253 37.08 0 60.256-40.141 41.716-72.253l-32.585-56.44c-4.059-7.028-14.204-7.028-18.262 0z" fill="#ff641a"/><path d="m256.474 456.008c-8.284 0-15 6.716-15 15v36.171c0 1.045.108 2.064.311 3.049 4.572 1.443 9.494 2.232 14.689 2.232 5.195 0 10.116-.789 14.689-2.232.203-.985.311-2.004.311-3.049v-36.171c0-8.284-6.715-15-15-15z" fill="#fff000"/><circle cx="205.35" cy="217.358" fill="#fff000" r="15"/><path d="m319.405 0h-63.175v30h63.175c8.284 0 15-6.716 15-15s-6.716-15-15-15z" fill="#59a7ff"/><path d="m369.056 201.494h-82.573c-12.426 0-22.499-10.073-22.499-22.499 0-6.783-3.006-12.861-7.754-16.986v146.123h71.53c26.05-20.896 42.734-52.989 42.734-88.982 0-5.938-.468-11.766-1.343-17.459z" fill="#ff641a"/><path d="m418.438 302.826c-2.208-5.832-7.793-9.689-14.028-9.689h-148.18v30h137.82l67.892 179.335c2.933 7.748 11.59 11.651 19.339 8.718 7.748-2.933 11.65-11.592 8.718-19.339z" fill="#0e365c"/><path d="m265.605 383.754c-2.076-3.595-5.743-5.339-9.375-5.256v133.945c.082 0 .163.004.245.004 37.08 0 60.256-40.141 41.716-72.253z" fill="#f03800"/><g fill="#ff9f00"><path d="m256.474 456.008c-.083 0-.162.011-.245.012v56.435c.082 0 .163.005.245.005 5.195 0 10.116-.789 14.689-2.232.203-.985.311-2.004.311-3.049v-36.171c0-8.284-6.715-15-15-15z"/><path d="m291.13 270.019c9.812 1.237 18.064-7.015 16.827-16.827-.843-6.685-6.242-12.084-12.927-12.927-9.812-1.236-18.063 7.015-16.827 16.827.843 6.686 6.242 12.084 12.927 12.927z"/></g></g></svg>