<svg id="Layer_1" enable-background="new 0 0 511.88 511.88" height="512" viewBox="0 0 511.88 511.88" width="512" xmlns="http://www.w3.org/2000/svg"><g><path d="m96.112 15h319.655v481.88h-319.655z" fill="#fff5f5"/><path d="m255.009 15h160.758v496.88h-160.758z" fill="#eee1dc"/><path d="m96.112 102.498h319.655v394.381h-319.655z" fill="#eee1dc"/><path d="m104.092 104.781h227.221v310.522h-227.221z" fill="#b3ddff"/><path d="m255.009 96.003h158.545v405.665h-158.545z" fill="#59a7ff"/><path d="m415.768 511.88h-319.656c-8.284 0-15-6.716-15-15v-481.88c0-8.284 6.716-15 15-15h319.655c8.284 0 15 6.716 15 15v481.88c.001 8.284-6.715 15-14.999 15zm-304.656-30h289.655v-451.88h-289.655z" fill="#0e365c"/><path d="m96.464 428.982h156.112v66.982h-156.112z" fill="#fff5f5"/><path d="m344.014 339.127h69.541v156.837h-69.541z" fill="#de0a3e"/><path d="m263.415 428.982h67.897v67.897h-67.897z" fill="#ccbeb9"/><g fill="#27ff43"><path d="m96.112 418.003h239.742"/><path d="m96.112 339.127h319.655"/><path d="m96.112 260.251h319.655"/><path d="m96.112 181.375h319.655"/><path d="m335.854 102.498v394.381"/><path d="m255.94 102.498v394.381"/><path d="m176.026 102.498v315.505"/></g><path d="m81.112 87.498v409.382c0 8.284 6.716 15 15 15h319.655c8.284 0 15-6.716 15-15v-409.382zm239.742 394.382h-49.914v-48.877h49.914zm0-78.877h-49.914v-48.876h49.914zm-209.742 0v-48.876h49.914v48.876zm209.742-157.752h-49.914v-48.876h49.914zm30-48.876h49.914v48.876h-49.914zm-79.914-30v-48.877h49.914v48.877zm-30 0h-49.914v-48.877h49.914zm0 30v48.876h-49.914v-48.876zm-49.914 78.876h49.914v48.876h-49.914zm-30 48.876h-49.914v-48.876h49.914zm0-78.876h-49.914v-48.876h49.914zm30 108.876h49.914v48.876h-49.914zm79.914-30v-48.876h49.914v48.876zm79.914-48.876h49.914v48.876h-49.914zm49.914-108.876h-49.914v-48.877h49.914zm-239.742-48.877v48.877h-49.914v-48.877zm-49.914 315.505h129.828v48.877h-129.828zm239.742 48.877v-127.753h49.914v127.753z" fill="#0e365c"/><path d="m415.768 0h-160.759v30h145.758v451.88h-145.758v30h160.758c8.284 0 15-6.716 15-15v-481.88c.001-8.284-6.715-15-14.999-15z" fill="#1b0428"/><path d="m255.009 511.88h160.758c8.284 0 15-6.716 15-15v-409.382h-175.758zm95.845-394.382h49.914v48.877h-49.914zm0 78.877h49.914v48.876h-49.914zm0 78.876h49.914v48.876h-49.914zm0 78.876h49.914v127.753h-49.914zm-79.914-236.629h49.914v48.877h-49.914zm0 78.877h49.914v48.876h-49.914zm0 78.876h49.914v48.876h-49.914zm0 78.876h49.914v48.876h-49.914zm49.914 78.876v48.877h-49.914v-48.877z" fill="#1b0428"/></g></svg>