<svg id="Layer_1" enable-background="new 0 0 512 512" height="512" viewBox="0 0 512 512" width="512" xmlns="http://www.w3.org/2000/svg"><path d="m422.362 255.943h-301.552l-71.103 17.141c-4.36 0-7.895 3.535-7.895 7.895l18.593 35.656c0 4.36 3.535 7.895 7.895 7.895l52.51 27.875v-.057h301.552c7.419 0 13.432-6.014 13.432-13.432v-69.541c0-7.418-6.014-13.432-13.432-13.432z" fill="#00ffe7"/><path d="m498.568 448.812h-408.93c-7.419 0-13.433-6.014-13.433-13.433v-69.541c0-7.419 6.014-13.432 13.433-13.432h408.929c7.419 0 13.432 6.014 13.432 13.432v69.541c.001 7.419-6.013 13.433-13.431 13.433z" fill="#fa184b"/><path d="m498.568 256h-408.93c-7.419 0-13.433-6.014-13.433-13.433v-69.541c0-7.419 6.014-13.433 13.433-13.433h408.929c7.419 0 13.432 6.014 13.432 13.433v69.541c.001 7.419-6.013 13.433-13.431 13.433z" fill="#ffe986"/><path d="m422.362 159.594h-408.929c-7.419 0-13.433-6.014-13.433-13.432v-69.541c0-7.419 6.014-13.432 13.432-13.432h408.929c7.419 0 13.432 6.014 13.432 13.432v69.541c.001 7.418-6.013 13.432-13.431 13.432z" fill="#59a7ff"/><path d="m85.493 256h417.219c5.389-1.748 9.288-6.803 9.288-12.774v-34.771h-435.794v34.771c0 5.971 3.899 11.026 9.287 12.774z" fill="#ffdc00"/><path d="m9.288 159.594h417.219c5.389-1.748 9.288-6.803 9.288-12.774v-34.77h-435.795v34.771c0 5.97 3.899 11.025 9.288 12.773z" fill="#0082ff"/><path d="m9.288 352.406h417.219c5.389-1.748 9.288-6.803 9.288-12.774v-34.771h-435.795v34.771c0 5.971 3.899 11.026 9.288 12.774z" fill="#00ddc1"/><path d="m85.493 448.812h417.219c5.389-1.748 9.288-6.803 9.288-12.774v-34.771h-435.794v34.771c0 5.971 3.899 11.026 9.287 12.774z" fill="#bd0533"/><path d="m424.902 256h75.705c6.293 0 11.394-5.101 11.394-11.394v-73.619c0-6.293-5.101-11.394-11.394-11.394h-75.705z" fill="#b3ddff"/><path d="m84.921 256h78.384v-96.406h-78.384c-4.813 0-8.715 3.902-8.715 8.715v78.976c0 4.813 3.901 8.715 8.715 8.715z" fill="#b3ddff"/><path d="m120.81 352.463h-112.915c-4.36 0-7.895-3.535-7.895-7.895v-80.672c0-4.361 3.535-7.896 7.895-7.896h112.915z" fill="#fff5f5"/><path d="m360.544 159.594h63.368c6.562 0 11.882-5.32 11.882-11.882v-72.642c0-6.562-5.32-11.882-11.882-11.882h-63.368z" fill="#0e365c"/><path d="m363.069 352.406h75.25v96.406h-75.25z" fill="#ff9f00"/><path d="m360.544 159.594h63.368c2.002 0 3.886-.5 5.541-1.375 3.805-2.37 6.341-6.585 6.341-11.399v-34.77h-75.25z" fill="#1b0428"/><path d="m424.902 256h75.706c1.229 0 2.411-.2 3.52-.561 4.64-2.115 7.873-6.781 7.873-12.213v-34.771h-87.098v47.545z" fill="#a4ceff"/><path d="m85.493 256h77.811v-47.544h-87.098v34.771c0 5.97 3.899 11.025 9.287 12.773z" fill="#a4ceff"/><path d="m9.288 352.463h111.522v-47.544h-120.81v34.771c0 5.97 3.899 11.025 9.288 12.773z" fill="#eee1dc"/><path d="m363.069 401.268h75.25v47.544h-75.25z" fill="#ff641a"/></svg>