<svg id="Layer_1" enable-background="new 0 0 511.118 511.118" height="512" viewBox="0 0 511.118 511.118" width="512" xmlns="http://www.w3.org/2000/svg"><g><path d="m416.185 229.094-133.88 133.88c-38.803 38.803-101.714 38.803-140.517 0l-.119-.119c-38.803-38.803-38.803-101.714 0-140.517l133.88-133.88c38.803-38.803 101.714-38.803 140.517 0l.119.119c38.803 38.802 38.803 101.714 0 140.517z" fill="#66f"/><path d="m416.185 88.577-.059-.059-274.397 274.396.059.059c38.803 38.803 101.714 38.803 140.517 0l133.88-133.88c38.803-38.802 38.803-101.714 0-140.516z" fill="#473dcc"/><g><g><path d="m27.539 511.118c-3.839 0-7.677-1.464-10.606-4.393-5.858-5.857-5.859-15.355-.001-21.213l4.85-4.851c5.653-5.654 8.732-13.17 8.67-21.165-.063-7.994-3.258-15.461-8.999-21.025-.056-.054-.111-.109-.167-.165-20.056-20.056-20.057-52.689 0-72.745 9.715-9.716 22.633-15.066 36.373-15.066s26.658 5.351 36.373 15.066c6.571 6.571 17.265 6.571 23.836 0l13.254-13.254c5.857-5.858 15.355-5.858 21.213 0s5.858 15.355 0 21.213l-13.254 13.254c-18.269 18.269-47.993 18.268-66.263 0-4.049-4.05-9.433-6.28-15.159-6.28-5.727 0-11.11 2.23-15.159 6.279-4.05 4.049-6.28 9.433-6.28 15.16 0 5.696 2.206 11.052 6.214 15.094 11.495 11.192 17.892 26.185 18.017 42.234.126 16.097-6.073 31.229-17.456 42.611l-4.85 4.85c-2.928 2.931-6.767 4.396-10.606 4.396z" fill="#4b5be4"/></g></g><g fill="#342ca7"><path d="m60.451 459.263c-.036-4.588-.601-9.085-1.635-13.436l-45.465 45.465c-1.777 5.238-.594 11.258 3.582 15.433 2.929 2.929 6.767 4.393 10.606 4.393s7.678-1.465 10.607-4.394l4.85-4.85c11.382-11.382 17.581-26.515 17.455-42.611z"/><path d="m152.336 373.52c5.858-5.858 5.858-15.355 0-21.213l-48.127 48.127c12.572.463 25.296-4.083 34.872-13.66z"/></g><g><path d="m211.097 167.91c-3.839 0-7.678-1.464-10.606-4.394l-31.558-31.558c-5.858-5.858-5.858-15.355 0-21.213 5.857-5.858 15.355-5.858 21.213 0l31.558 31.558c5.858 5.858 5.858 15.355 0 21.213-2.929 2.93-6.768 4.394-10.607 4.394z" fill="#9bf"/></g><g><path d="m384.4 338.965c-3.839 0-7.678-1.464-10.606-4.394l-31.558-31.558c-5.858-5.858-5.858-15.355 0-21.213 5.857-5.858 15.355-5.858 21.213 0l31.558 31.558c5.858 5.858 5.858 15.355 0 21.213-2.93 2.929-6.769 4.394-10.607 4.394z" fill="#6b77e8"/></g><g><path d="m416.057 103.48c-3.839 0-7.678-1.464-10.606-4.394-5.858-5.858-5.858-15.355 0-21.213l31.558-31.558c5.857-5.858 15.355-5.858 21.213 0s5.858 15.355 0 21.213l-31.558 31.558c-2.929 2.93-6.768 4.394-10.607 4.394z" fill="#9bf"/></g><g><g><g><path d="m452.429 270.935c-3.839 0-7.678-1.464-10.606-4.394l-31.558-31.558c-5.858-5.858-5.858-15.355 0-21.213 5.857-5.858 15.355-5.858 21.213 0l31.558 31.558c5.858 5.858 5.858 15.355 0 21.213-2.929 2.93-6.768 4.394-10.607 4.394z" fill="#6b77e8"/></g></g></g><g><path d="m280.397 98.902c-3.839 0-7.678-1.464-10.606-4.394l-31.558-31.558c-5.858-5.858-5.858-15.355 0-21.213 5.857-5.858 15.355-5.858 21.213 0l31.558 31.558c5.858 5.858 5.858 15.355 0 21.213-2.93 2.93-6.768 4.394-10.607 4.394z" fill="#9bf"/></g><g><path d="m141.942 237.062c-3.839 0-7.678-1.464-10.606-4.394l-31.559-31.558c-5.858-5.858-5.858-15.355 0-21.213 5.857-5.858 15.355-5.858 21.213 0l31.558 31.558c5.858 5.858 5.858 15.355 0 21.213-2.929 2.93-6.768 4.394-10.606 4.394z" fill="#9bf"/></g><g><g><path d="m316.37 406.995c-3.839 0-7.678-1.464-10.606-4.394l-31.558-31.558c-5.858-5.858-5.858-15.355 0-21.213 5.857-5.858 15.355-5.858 21.213 0l31.558 31.558c5.858 5.858 5.858 15.355 0 21.213-2.929 2.929-6.768 4.394-10.607 4.394z" fill="#6b77e8"/></g></g><g><path d="m212.296 451.504c-8.284 0-15-6.716-15-15v-44.63c0-8.284 6.716-15 15-15s15 6.716 15 15v44.63c0 8.284-6.716 15-15 15z" fill="#6b77e8"/></g><g><path d="m352.204 74.63c-8.284 0-15-6.716-15-15v-44.63c0-8.284 6.716-15 15-15s15 6.716 15 15v44.63c0 8.284-6.716 15-15 15z" fill="#9bf"/></g><g><g><g><path d="m489.874 168.751h-44.63c-8.284 0-15-6.716-15-15s6.716-15 15-15h44.63c8.284 0 15 6.716 15 15s-6.716 15-15 15z" fill="#6b77e8"/></g></g></g><g><path d="m112.596 308.187h-44.63c-8.284 0-15-6.716-15-15s6.716-15 15-15h44.63c8.284 0 15 6.716 15 15s-6.715 15-15 15z" fill="#9bf"/></g><circle cx="337.901" cy="167.285" fill="#342ca7" r="33.634"/><circle cx="215.232" cy="327.203" fill="#17174d" r="15"/><circle cx="200.851" cy="266.888" fill="#342ca7" r="15"/><path d="m426.792 239.7-133.88 133.88c-21.6 21.6-50.318 33.496-80.865 33.496s-59.266-11.896-80.865-33.496l-.119-.119c-21.6-21.6-33.496-50.318-33.496-80.865 0-30.546 11.896-59.265 33.496-80.865l133.88-133.88c21.6-21.6 50.318-33.496 80.865-33.496s59.266 11.896 80.865 33.496l.119.119c21.6 21.6 33.496 50.318 33.496 80.865-.001 30.547-11.896 59.266-33.496 80.865m-80.984-165.344c-22.533 0-43.718 8.775-59.652 24.708l-133.88 133.88c-15.934 15.934-24.708 37.119-24.708 59.652 0 22.534 8.775 43.719 24.708 59.652l.119.119c15.934 15.934 37.119 24.708 59.652 24.708s43.719-8.775 59.652-24.708l133.879-133.88c15.934-15.934 24.708-37.119 24.708-59.652 0-22.534-8.775-43.719-24.708-59.652l-.119-.119c-15.932-15.933-37.118-24.708-59.651-24.708z" fill="#cdf"/><path d="m458.275 46.369-52.766 52.766c2.922 2.893 6.735 4.343 10.551 4.343 3.839 0 7.678-1.464 10.607-4.394l31.558-31.558c5.839-5.84 5.854-15.295.05-21.157z" fill="#6b77e8"/><path d="m460.287 158.835c0-30.547-11.896-59.266-33.496-80.865l-.059-.059-21.212 21.213.059.059c15.934 15.934 24.709 37.119 24.709 59.652s-8.775 43.718-24.708 59.652l-133.879 133.88c-15.934 15.934-37.119 24.708-59.652 24.708-22.534 0-43.719-8.775-59.652-24.708l-.059-.059-21.213 21.213.059.059c21.6 21.6 50.318 33.496 80.865 33.496s59.266-11.895 80.865-33.496l133.878-133.88c21.6-21.599 33.495-50.318 33.495-80.865z" fill="#9bf"/><path d="m361.684 143.502c-.091-.091-.186-.175-.278-.265l-47.552 47.552c.09.092.174.187.265.278 13.135 13.135 34.431 13.135 47.566 0 13.134-13.134 13.134-34.43-.001-47.565z" fill="#17174d"/></g></svg>