<svg id="Layer_1" enable-background="new 0 0 511.944 511.944" height="512" viewBox="0 0 511.944 511.944" width="512" xmlns="http://www.w3.org/2000/svg"><g><path d="m423.256 229.296-193.917 193.916c-38.803 38.803-101.714 38.803-140.517 0l-.119-.119c-38.803-38.803-38.803-101.714 0-140.517l193.917-193.916c38.803-38.803 101.714-38.803 140.517 0l.119.119c38.802 38.802 38.802 101.714 0 140.517z" fill="#ff4566"/><path d="m423.256 88.778-.051-.051-334.434 334.434.051.051c38.803 38.803 101.715 38.803 140.517 0l193.916-193.916c38.804-38.803 38.804-101.715.001-140.518z" fill="#fa184b"/><g><path d="m155.092 231.188c-3.839 0-7.678-1.464-10.606-4.394l-31.558-31.558c-5.858-5.858-5.858-15.355 0-21.213 5.857-5.858 15.355-5.858 21.213 0l31.558 31.558c5.858 5.858 5.858 15.355 0 21.213-2.929 2.929-6.768 4.394-10.607 4.394z" fill="#ff8f7a"/></g><g><path d="m221.207 165.073c-3.839 0-7.678-1.464-10.606-4.394l-31.558-31.558c-5.858-5.858-5.858-15.355 0-21.213 5.857-5.858 15.355-5.858 21.213 0l31.558 31.558c5.858 5.858 5.858 15.355 0 21.213-2.93 2.93-6.769 4.394-10.607 4.394z" fill="#ff8f7a"/></g><g><path d="m328.769 401.867c-3.839 0-7.678-1.464-10.606-4.394l-31.558-31.558c-5.858-5.858-5.858-15.355 0-21.213 5.857-5.858 15.355-5.858 21.213 0l31.558 31.558c5.858 5.858 5.858 15.355 0 21.213-2.929 2.93-6.768 4.394-10.607 4.394z" fill="#fc7964"/></g><g><path d="m394.134 336.502c-3.839 0-7.678-1.464-10.606-4.394l-31.558-31.558c-5.858-5.858-5.858-15.355 0-21.213 5.857-5.858 15.355-5.858 21.213 0l31.558 31.558c5.858 5.858 5.858 15.355 0 21.213-2.929 2.93-6.768 4.394-10.607 4.394z" fill="#fc7964"/></g><g><path d="m423.128 103.682c-3.839 0-7.678-1.464-10.606-4.394-5.858-5.858-5.858-15.355 0-21.213l31.558-31.558c5.857-5.858 15.355-5.858 21.213 0s5.858 15.355 0 21.213l-31.558 31.558c-2.929 2.93-6.768 4.394-10.607 4.394z" fill="#ff8f7a"/></g><g><path d="m459.5 271.137c-3.839 0-7.678-1.464-10.606-4.394l-31.558-31.558c-5.858-5.858-5.858-15.355 0-21.213 5.857-5.858 15.355-5.858 21.213 0l31.558 31.558c5.858 5.858 5.858 15.355 0 21.213-2.93 2.93-6.769 4.394-10.607 4.394z" fill="#fc7964"/></g><g><path d="m287.467 99.104c-3.839 0-7.678-1.464-10.606-4.394l-31.558-31.558c-5.858-5.858-5.858-15.355 0-21.213 5.857-5.858 15.355-5.858 21.213 0l31.558 31.558c5.858 5.858 5.858 15.355 0 21.213-2.929 2.93-6.768 4.394-10.607 4.394z" fill="#ff8f7a"/></g><g><path d="m88.975 297.3c-3.839 0-7.678-1.464-10.606-4.394l-31.558-31.558c-5.858-5.858-5.858-15.355 0-21.213 5.857-5.858 15.355-5.858 21.213 0l31.558 31.558c5.858 5.858 5.858 15.355 0 21.213-2.929 2.93-6.768 4.394-10.607 4.394z" fill="#ff8f7a"/></g><g><path d="m263.404 467.233c-3.839 0-7.678-1.464-10.606-4.394l-31.558-31.558c-5.858-5.858-5.858-15.355 0-21.213 5.857-5.858 15.355-5.858 21.213 0l31.558 31.558c5.858 5.858 5.858 15.355 0 21.213-2.929 2.929-6.768 4.394-10.607 4.394z" fill="#fc7964"/></g><g><path d="m159.33 511.742c-8.284 0-15-6.716-15-15v-44.63c0-8.284 6.716-15 15-15s15 6.716 15 15v44.63c0 8.284-6.716 15-15 15z" fill="#fc7964"/></g><g><path d="m359.274 74.832c-8.284 0-15-6.716-15-15v-44.63c0-8.284 6.716-15 15-15s15 6.716 15 15v44.63c0 8.284-6.715 15-15 15z" fill="#ff8f7a"/></g><g><path d="m496.944 168.953h-44.63c-8.284 0-15-6.716-15-15s6.716-15 15-15h44.63c8.284 0 15 6.716 15 15s-6.716 15-15 15z" fill="#fc7964"/></g><g><path d="m59.63 368.425h-44.63c-8.284 0-15-6.716-15-15s6.716-15 15-15h44.63c8.284 0 15 6.716 15 15s-6.716 15-15 15z" fill="#ff8f7a"/></g><g><path d="m57.067 469.849c-3.839 0-7.678-1.464-10.606-4.394-5.858-5.858-5.858-15.355 0-21.213l31.558-31.558c5.857-5.858 15.355-5.858 21.213 0s5.858 15.355 0 21.213l-31.558 31.558c-2.929 2.93-6.768 4.394-10.607 4.394z" fill="#ff8f7a"/></g><g><path d="m256.137 306.009c-13.278 0-24.081-10.802-24.081-24.081 0-8.284-6.716-15-15-15s-15 6.716-15 15c0 29.82 24.26 54.081 54.081 54.081 8.284 0 15-6.716 15-15s-6.716-15-15-15z" fill="#de0a3e"/></g><g><path d="m379.912 136.895c-5.857-5.857-15.355-5.858-21.213 0-10.215 10.214-15.84 23.795-15.84 38.241 0 14.445 5.625 28.026 15.84 38.241 2.929 2.929 6.768 4.393 10.606 4.393s7.678-1.464 10.607-4.394c5.857-5.858 5.857-15.355 0-21.213-4.548-4.548-7.053-10.595-7.053-17.027s2.505-12.479 7.053-17.027c5.858-5.859 5.858-15.356 0-21.214z" fill="#de0a3e"/></g><g><path d="m135.481 323.143c9.389 9.389 9.389 24.666 0 34.055-5.858 5.858-5.858 15.355 0 21.213s15.355 5.858 21.213 0c21.086-21.086 21.086-55.395 0-76.481-5.858-5.858-15.355-5.858-21.213 0-5.857 5.857-5.857 15.355 0 21.213z" fill="#de0a3e"/></g><g><path d="m247.61 187.715c9.389 9.389 9.389 24.666 0 34.055-5.858 5.858-5.858 15.355 0 21.213s15.355 5.858 21.213 0c21.086-21.086 21.086-55.395 0-76.481-5.858-5.858-15.355-5.858-21.213 0s-5.858 15.355 0 21.213z" fill="#de0a3e"/></g><path d="m465.354 46.579-52.765 52.765c2.921 2.888 6.73 4.335 10.542 4.335 3.839 0 7.678-1.464 10.607-4.394l31.558-31.558c5.837-5.837 5.854-15.285.058-21.148z" fill="#fc7964"/><path d="m99.24 412.693-52.77 52.77c2.928 2.924 6.762 4.386 10.598 4.386 3.839 0 7.678-1.464 10.607-4.394l31.558-31.558c5.854-5.855 5.856-15.346.007-21.204z" fill="#fc7964"/><g fill="#bd0533"><path d="m256.137 306.009c-13.278 0-24.081-10.802-24.081-24.081 0-.651-.055-1.288-.136-1.917l-24.778 24.778c8.631 18.423 27.342 31.219 48.995 31.219 8.284 0 15-6.716 15-15 0-8.283-6.716-14.999-15-14.999z"/><path d="m172.492 339.441-37.941 37.941c.293.353.6.699.93 1.029 5.858 5.858 15.355 5.858 21.213 0 10.729-10.728 15.986-24.879 15.798-38.97z"/><path d="m379.912 192.162c-4.548-4.548-7.053-10.595-7.053-17.027s2.505-12.48 7.053-17.027c5.858-5.858 5.858-15.355 0-21.213-.84-.84-1.761-1.546-2.73-2.145l-33.929 33.929c-.252 2.128-.395 4.281-.395 6.457 0 14.445 5.626 28.026 15.84 38.241 2.929 2.929 6.768 4.393 10.606 4.393 3.839 0 7.678-1.464 10.607-4.394 5.859-5.858 5.859-15.356.001-21.214z"/></g><path d="m159.081 467.26c-29.286 0-58.571-11.147-80.865-33.442l-.119-.119c-44.589-44.589-44.589-117.141 0-161.73l193.916-193.916c44.589-44.59 117.142-44.59 161.73 0l.119.119c44.589 44.589 44.589 117.141 0 161.73l-193.916 193.916c-22.295 22.295-51.58 33.442-80.865 33.442zm253.568-248.571c32.892-32.892 32.892-86.412 0-119.304l-.119-.119c-16.446-16.446-38.049-24.669-59.652-24.669s-43.206 8.223-59.652 24.669l-193.916 193.916c-32.892 32.892-32.892 86.412 0 119.304l.119.119c32.893 32.892 86.412 32.891 119.304 0z" fill="#ffbca7"/><path d="m433.862 78.172-.051-.051-21.213 21.213.051.051c32.892 32.892 32.892 86.412 0 119.304l-193.916 193.916c-32.892 32.891-86.411 32.892-119.304 0l-.051-.051-21.213 21.213.051.051c22.294 22.295 51.58 33.442 80.865 33.442s58.57-11.147 80.865-33.442l193.917-193.916c44.589-44.589 44.589-117.141-.001-161.73z" fill="#ffa289"/></g></svg>