<svg id="Layer_1" enable-background="new 0 0 511.747 511.747" height="512" viewBox="0 0 511.747 511.747" width="512" xmlns="http://www.w3.org/2000/svg"><g><circle cx="256.691" cy="255.92" fill="#ffb64c" r="182.465"/><path d="m74.226 270.92c8.284 0 15-6.716 15-15s-6.716-15-15-15h-44.164v-7.859c0-8.284-6.716-15-15-15s-15 6.716-15 15v44.012c0 8.284 6.716 15 15 15s15-6.716 15-15v-6.153z" fill="#ff641a"/><path d="m385.709 141.963c3.839 0 7.678-1.464 10.606-4.394l32.029-32.029 4.353 4.353c2.929 2.929 6.768 4.394 10.606 4.394s7.678-1.465 10.606-4.393c5.858-5.858 5.858-15.355 0-21.213l-31.121-31.122c-5.856-5.858-15.354-5.858-21.213 0-5.858 5.857-5.858 15.355 0 21.213l5.556 5.556-32.029 32.029c-5.858 5.858-5.858 15.355 0 21.213 2.929 2.929 6.768 4.393 10.607 4.393z" fill="#f03800"/><path d="m117.059 374.401-35.001 35.001-5.556-5.556c-5.857-5.858-15.355-5.858-21.213 0s-5.858 15.355 0 21.213l31.121 31.121c2.929 2.929 6.768 4.394 10.606 4.394s7.678-1.464 10.606-4.394c5.858-5.858 5.858-15.355 0-21.213l-4.353-4.353 35.001-35.001c5.858-5.858 5.858-15.355 0-21.213-5.856-5.857-15.354-5.857-21.211.001z" fill="#ff641a"/><path d="m496.685 218.061c-8.284 0-15 6.716-15 15v7.859h-42.529c-8.284 0-15 6.716-15 15s6.716 15 15 15h42.529v6.153c0 8.284 6.716 15 15 15s15-6.716 15-15v-44.012c0-8.285-6.716-15-15-15z" fill="#f03800"/><g fill="#ff641a"><path d="m279.612 481.747h-7.921v-43.362c0-8.284-6.716-15-15-15s-15 6.716-15 15v43.362h-6.091c-8.284 0-15 6.716-15 15s6.716 15 15 15h44.012c8.284 0 15-6.716 15-15s-6.716-15-15-15z"/><path d="m233.195 30h7.984v43.455c0 8.284 6.716 15 15 15 8.285 0 15-6.716 15-15v-43.455h6.028c8.284 0 15-6.716 15-15s-6.716-15-15-15h-44.012c-8.284 0-15 6.716-15 15s6.716 15 15 15z"/><path d="m71.306 118.495c3.839 0 7.678-1.464 10.606-4.394l5.478-5.478 29.307 29.307c2.929 2.929 6.768 4.394 10.606 4.394s7.678-1.464 10.606-4.394c5.858-5.858 5.858-15.355 0-21.213l-29.307-29.307 4.43-4.43c5.858-5.858 5.858-15.355 0-21.213-5.857-5.858-15.355-5.858-21.213 0l-14.633 14.636c-.139.129-.286.246-.422.382-.135.135-.252.282-.381.422l-15.684 15.682c-5.858 5.858-5.858 15.355 0 21.213 2.929 2.929 6.768 4.393 10.607 4.393z"/></g><path d="m436.305 406.252-4.069 4.069-35.92-35.92c-5.857-5.858-15.355-5.858-21.213 0s-5.858 15.355 0 21.213l35.92 35.92-5.839 5.839c-5.858 5.858-5.858 15.355 0 21.213 2.929 2.929 6.768 4.394 10.606 4.394s7.678-1.464 10.606-4.394l16.295-16.295c.051-.05.107-.092.158-.143s.093-.106.142-.158l14.526-14.526c5.858-5.858 5.858-15.355 0-21.213-5.857-5.857-15.355-5.857-21.212.001z" fill="#f03800"/><path d="m277.207 0h-20.517v88.429c8.046-.272 14.488-6.863 14.488-14.974v-43.455h6.028c8.284 0 15-6.716 15-15s-6.715-15-14.999-15z" fill="#f03800"/><path d="m279.612 481.747h-7.921v-43.362c0-8.284-6.716-15-15-15v88.362h22.921c8.284 0 15-6.716 15-15s-6.716-15-15-15z" fill="#f03800"/><path d="m439.156 255.92c0-100.773-81.692-182.465-182.465-182.465v364.93c100.772 0 182.465-81.692 182.465-182.465z" fill="#ff9f00"/><path d="m256.691 453.385c-108.882 0-197.465-88.583-197.465-197.465s88.582-197.465 197.465-197.465 197.465 88.583 197.465 197.465-88.583 197.465-197.465 197.465zm0-364.93c-92.34 0-167.465 75.125-167.465 167.465s75.125 167.465 167.465 167.465c92.341 0 167.465-75.125 167.465-167.465s-75.125-167.465-167.465-167.465z" fill="#ff8856"/><circle cx="255.818" cy="255.92" fill="#f77e00" r="119.492"/><path d="m256.691 136.428v238.962c65.591-.47 118.619-53.779 118.619-119.481-.001-65.702-53.029-119.01-118.619-119.481z" fill="#ff641a"/><path d="m256.691 58.455v30c92.341 0 167.465 75.125 167.465 167.465s-75.124 167.465-167.465 167.465v30c108.883 0 197.465-88.583 197.465-197.465s-88.582-197.465-197.465-197.465z" fill="#ff641a"/><circle cx="217.409" cy="255.92" fill="#ffd396" r="15"/><g><g fill="#ffc473"><circle cx="292.975" cy="212.164" r="15"/><circle cx="292.975" cy="299.676" r="15"/></g></g></g></svg>