<svg id="Layer_1" enable-background="new 0 0 511.926 511.926" height="512" viewBox="0 0 511.926 511.926" width="512" xmlns="http://www.w3.org/2000/svg"><g><circle cx="255.963" cy="255.963" fill="#fff5f5" r="240.963"/><path d="m496.926 255.963c0-133.08-107.883-240.963-240.963-240.963v481.926c133.08 0 240.963-107.883 240.963-240.963z" fill="#eee1dc"/><path d="m255.963 511.926c-68.37 0-132.648-26.625-180.993-74.97s-74.97-112.623-74.97-180.993 26.625-132.648 74.97-180.993c48.344-48.345 112.623-74.97 180.993-74.97s132.648 26.625 180.993 74.97 74.97 112.623 74.97 180.993-26.625 132.648-74.97 180.993-112.623 74.97-180.993 74.97zm0-481.926c-60.356 0-117.102 23.504-159.78 66.183s-66.183 99.423-66.183 159.78 23.504 117.101 66.183 159.78 99.424 66.183 159.78 66.183 117.102-23.504 159.78-66.183 66.183-99.423 66.183-159.78-23.504-117.101-66.183-159.78-99.424-66.183-159.78-66.183z" fill="#1f5c99"/><path d="m415.743 96.183c42.679 42.679 66.183 99.423 66.183 159.78s-23.504 117.101-66.183 159.78-99.424 66.183-159.78 66.183v30c68.37 0 132.648-26.625 180.993-74.97s74.97-112.623 74.97-180.993-26.625-132.648-74.97-180.993c-48.345-48.345-112.623-74.97-180.993-74.97v30c60.356 0 117.101 23.504 159.78 66.183z" fill="#0e365c"/><circle cx="167.751" cy="97.456" fill="#9bf" r="15"/><circle cx="144.165" cy="160.112" fill="#66f" r="15"/><g><circle cx="332.983" cy="141.836" fill="#ffda2d" r="48.656"/><g><path d="m332.983 205.493c-35.101 0-63.656-28.556-63.656-63.656s28.556-63.656 63.656-63.656 63.656 28.556 63.656 63.656-28.556 63.656-63.656 63.656zm0-97.313c-18.558 0-33.656 15.098-33.656 33.656s15.099 33.656 33.656 33.656 33.656-15.098 33.656-33.656-15.098-33.656-33.656-33.656z" fill="#ff9d00"/></g></g><g><path d="m431.492 289.535c-29.82 0-54.08-24.26-54.08-54.08 0-8.284 6.716-15 15-15s15 6.716 15 15c0 13.278 10.803 24.08 24.08 24.08 8.284 0 15 6.716 15 15s-6.715 15-15 15z" fill="#00cc71"/></g><path d="m174.687 372.194-72.061-72.061c-13.461-13.461-13.461-35.286 0-48.747 13.461-13.461 35.286-13.461 48.747 0l72.061 72.061c13.461 13.461 13.461 35.286 0 48.747-13.461 13.461-35.286 13.461-48.747 0z" fill="#ff7cb9"/><path d="m195.061 397.266c-12.668 0-25.336-4.822-34.98-14.465l-72.062-72.062c-19.288-19.288-19.288-50.672 0-69.96 9.344-9.344 21.767-14.49 34.98-14.49 13.215 0 25.638 5.146 34.98 14.49l72.062 72.062c19.288 19.288 19.288 50.672 0 69.96-9.645 9.643-22.312 14.465-34.98 14.465zm-13.768-35.679c7.592 7.592 19.943 7.592 27.535 0 7.591-7.591 7.591-19.942 0-27.534l-72.062-72.062c-3.678-3.677-8.566-5.703-13.767-5.703s-10.09 2.025-13.768 5.703-5.703 8.567-5.703 13.767c0 5.201 2.025 10.09 5.702 13.767z" fill="#ff1786"/><g><path d="m300.184 432.96c-3.839 0-7.678-1.464-10.606-4.393-7.876-7.876-12.214-18.347-12.214-29.485s4.338-21.609 12.214-29.485l1.798-1.798c7.875-7.876 18.347-12.213 29.485-12.213s21.609 4.337 29.484 12.213c4.561 4.561 11.982 4.562 16.545 0l1.798-1.797c4.561-4.561 4.561-11.983 0-16.544-5.858-5.858-5.858-15.355 0-21.213 5.858-5.857 15.356-5.857 21.213 0 16.258 16.258 16.258 42.712 0 58.97l-1.798 1.798c-16.258 16.258-42.713 16.257-58.971 0-2.21-2.21-5.147-3.427-8.271-3.427-3.125 0-6.063 1.217-8.272 3.426l-1.798 1.798c-2.21 2.21-3.427 5.147-3.427 8.272s1.217 6.062 3.427 8.271c5.857 5.858 5.858 15.355 0 21.213-2.93 2.929-6.769 4.394-10.607 4.394z" fill="#de0a3e"/></g></g></svg>