<svg id="Layer_1" enable-background="new 0 0 511.974 511.974" height="512" viewBox="0 0 511.974 511.974" width="512" xmlns="http://www.w3.org/2000/svg"><g><path d="m127.317 249.3-52.858.002-39.247-67.978 39.248-67.979h78.495l39.247 67.978-26.383 45.676c-4.144 7.174-1.688 16.348 5.486 20.491 2.363 1.365 4.942 2.014 7.488 2.014 5.183 0 10.225-2.689 13.003-7.5l26.385-45.68h78.495l26.396 45.777c2.777 4.817 7.821 7.51 13.009 7.51 2.542 0 5.119-.647 7.479-2.008 7.177-4.138 9.64-13.311 5.502-20.487l-26.401-45.788 26.401-45.736c4.141-7.175 1.683-16.349-5.492-20.49-7.176-4.142-16.348-1.682-20.49 5.492l-26.396 45.729h-78.499l-38.801-67.205-.446-.773 39.248-67.979h78.504l26.471 45.748c4.149 7.17 13.325 9.619 20.496 5.471 7.17-4.149 9.62-13.325 5.471-20.496l-30.807-53.234c-2.682-4.634-7.629-7.488-12.983-7.488h-95.815c-5.359 0-10.311 2.859-12.99 7.5l-43.578 75.479h-78.907l-46.335-73.953c-4.398-7.02-13.654-9.146-20.675-4.747-7.02 4.398-9.145 13.655-4.747 20.675l45.98 73.385-43.37 75.118c-2.68 4.641-2.68 10.359 0 15l43.578 75.478-43.578 75.478c-4.142 7.174-1.684 16.348 5.49 20.49 2.362 1.364 4.941 2.012 7.486 2.012 5.184 0 10.227-2.69 13.004-7.502l43.578-75.479 52.858-.001c8.284 0 15-6.716 15-15 0-8.285-6.716-15.001-15-15z" fill="#1f5c99"/><path d="m466.383 264.307 43.58-75.482c4.142-7.174 1.684-16.348-5.49-20.49-7.175-4.144-16.349-1.685-20.49 5.49l-43.579 75.48-52.811-.003s0 0-.001 0c-8.284 0-15 6.715-15 14.999s6.715 15 14.999 15.001l52.811.003 39.247 67.977-26.412 45.719c-4.144 7.173-1.688 16.348 5.485 20.492 2.363 1.365 4.943 2.014 7.489 2.014 5.183 0 10.224-2.689 13.002-7.499l30.745-53.22c2.682-4.642 2.682-10.361.002-15.003z" fill="#0e365c"/><path d="m414.746 415.263h-52.839l-39.247-67.978 26.396-45.707c4.143-7.174 1.686-16.348-5.488-20.491-7.175-4.143-16.348-1.685-20.491 5.488l-26.395 45.705h-78.497l-26.375-45.701c-4.14-7.175-13.314-9.635-20.489-5.494s-9.635 13.314-5.494 20.489l26.376 45.704-43.578 75.48c-1.148 1.988-1.772 4.131-1.946 6.276-.011.129-.021.257-.029.385-.011.207-.026.414-.028.621-.056 2.558.539 5.13 1.794 7.455l35.766 66.235c2.713 5.023 7.877 7.876 13.212 7.876 2.406 0 4.848-.581 7.114-1.804 7.29-3.937 10.008-13.037 6.072-20.326l-31.786-58.863 39.389-68.223h78.495l43.578 75.479c3.096 5.364 9.006 8.089 14.79 7.393h59.701c8.284 0 15-6.716 15-15s-6.717-14.999-15.001-14.999z" fill="#1f5c99"/><path d="m414.746 415.263h-52.839l-39.247-67.978 26.396-45.707c4.143-7.174 1.686-16.348-5.488-20.491-7.175-4.143-16.348-1.685-20.491 5.488l-26.395 45.705h-39.134v30.11h39.13l43.578 75.479c3.096 5.364 9.006 8.089 14.79 7.393h59.701c8.284 0 15-6.716 15-15s-6.717-14.999-15.001-14.999z" fill="#0e365c"/><g fill="#0e365c"><path d="m323.071 242.102c2.777 4.817 7.821 7.51 13.009 7.51 2.542 0 5.119-.647 7.479-2.008 7.177-4.138 9.64-13.311 5.502-20.487l-26.401-45.788 26.401-45.736c4.141-7.175 1.683-16.349-5.492-20.49-7.176-4.142-16.348-1.682-20.49 5.492l-26.396 45.729h-39.134v30.001h39.128z"/><path d="m318.321 7.855c-2.682-4.634-7.629-7.488-12.983-7.488h-47.791v30h39.14l26.471 45.748c4.149 7.17 13.325 9.619 20.496 5.471 7.17-4.149 9.62-13.325 5.471-20.496z"/></g><path d="m201.915 288.207c-13.203 22.231-41.928 29.549-64.159 16.345-22.231-13.203-29.549-41.928-16.345-64.159 13.203-22.231 41.928-29.549 64.159-16.345 22.23 13.203 29.549 41.928 16.345 64.159z" fill="#ffd396"/><path d="m185.57 224.059c-7.568-4.495-15.889-6.606-24.094-6.566v93.631c16.027.049 31.663-8.129 40.439-22.906 13.204-22.231 5.885-50.956-16.345-64.159z" fill="#ff9f00"/><path d="m380.4 125.863c-13.203 22.231-41.928 29.549-64.159 16.345-22.231-13.203-29.549-41.928-16.345-64.159 13.203-22.231 41.928-29.549 64.159-16.345 22.23 13.204 29.548 41.929 16.345 64.159z" fill="#ff8856"/><path d="m364.054 61.715c-7.568-4.495-15.889-6.606-24.094-6.566v93.631c16.027.049 31.663-8.129 40.439-22.906 13.204-22.231 5.886-50.956-16.345-64.159z" fill="#f03800"/><path d="m394.295 286.128c-13.203 22.231-41.928 29.549-64.159 16.345-22.231-13.203-29.549-41.928-16.345-64.159 13.203-22.231 41.928-29.549 64.159-16.345 22.23 13.204 29.548 41.929 16.345 64.159z" fill="#ff8856"/><path d="m377.949 221.98c-7.568-4.495-15.889-6.606-24.094-6.566v93.631c16.027.049 31.663-8.129 40.439-22.906 13.204-22.23 5.886-50.955-16.345-64.159z" fill="#f03800"/><path d="m485.708 441.464c-13.203 22.231-41.928 29.549-64.159 16.345-22.231-13.203-29.549-41.928-16.345-64.159 13.203-22.231 41.928-29.549 64.159-16.345s29.549 41.929 16.345 64.159z" fill="#ff8856"/></g><path d="m469.363 377.316c-7.568-4.495-15.889-6.606-24.094-6.566v93.631c16.027.049 31.663-8.129 40.439-22.906 13.204-22.231 5.886-50.956-16.345-64.159z" fill="#f03800"/></svg>