<svg id="Layer_1" enable-background="new 0 0 512.165 512.165" height="512" viewBox="0 0 512.165 512.165" width="512" xmlns="http://www.w3.org/2000/svg"><g><g><path d="m109.039 410.172c-39.728 0-67.484-11.893-79.43-34.519v-.001c-14.636-27.72-2.582-65.954 33.94-107.658 33.301-38.027 83.87-75.985 142.391-106.883 58.523-30.898 118.389-51.246 168.572-57.297 55.039-6.637 93.408 4.976 108.043 32.697 14.635 27.72 2.582 65.954-33.94 107.659-33.301 38.026-83.869 75.985-142.391 106.883s-118.389 51.246-168.572 57.297c-10.114 1.22-19.668 1.822-28.613 1.822zm-52.764-48.598c8.148 15.433 37.219 21.728 77.768 16.838 46.613-5.619 102.761-24.806 158.103-54.024 55.341-29.219 102.853-64.763 133.785-100.083 26.907-30.725 38.107-58.282 29.959-73.715-8.147-15.432-37.217-21.727-77.768-16.837-46.612 5.62-102.761 24.806-158.103 54.025-55.341 29.218-102.854 64.762-133.785 100.082-26.906 30.726-38.106 58.282-29.959 73.714z" fill="#ff8856"/></g><path d="m374.513 103.815c-35.909 4.329-76.777 15.983-118.563 33.581v32.862c43.262-19.365 85.645-32.102 122.172-36.506 40.551-4.889 69.621 1.406 77.768 16.837 8.147 15.433-3.053 42.99-29.959 73.715-30.931 35.321-78.443 70.864-133.785 100.083-12.063 6.369-24.164 12.26-36.196 17.639v32.853c16.697-7.022 33.541-14.991 50.275-23.826 58.522-30.898 109.091-68.857 142.391-106.883 36.521-41.705 48.575-79.939 33.94-107.659-14.636-27.721-53.004-39.333-108.043-32.696z" fill="#ff641a"/><g><path d="m401.72 415.541c-11.332 0-23.724-1.134-37.082-3.428-48.876-8.398-106.537-31.282-162.361-64.438-55.824-33.155-103.508-72.837-134.268-111.737-33.735-42.662-43.664-80.72-27.959-107.163s53.874-35.931 107.478-26.723c48.875 8.398 106.536 31.282 162.361 64.437 55.823 33.155 103.507 72.838 134.267 111.738 33.735 42.662 43.665 80.72 27.959 107.163-11.791 19.853-36.253 30.151-70.395 30.151zm-291.648-287.368c-22.541 0-38.468 5.411-44.585 15.71-8.743 14.72.875 42.273 25.729 73.704 28.571 36.132 73.378 73.298 126.168 104.651s106.865 52.916 152.263 60.716c39.492 6.786 68.288 2.048 77.032-12.673 8.743-14.72-.876-42.273-25.73-73.704-28.571-36.132-73.378-73.298-126.169-104.652-52.79-31.353-106.865-52.915-152.263-60.715-11.863-2.038-22.766-3.037-32.445-3.037z" fill="#00ffe7"/></g><path d="m309.889 166.489c-17.907-10.635-36.002-20.207-53.937-28.59v32.835c12.922 6.44 25.914 13.52 38.828 21.19 52.791 31.354 97.598 68.52 126.169 104.652 24.853 31.431 34.473 58.984 25.73 73.704-8.744 14.721-37.54 19.458-77.032 12.673-34.367-5.905-73.706-19.702-113.695-39.656v32.846c38.065 17.815 75.411 30.252 108.685 35.969 13.358 2.295 25.75 3.428 37.082 3.428 34.142 0 58.604-10.299 70.395-30.151 15.706-26.443 5.775-64.5-27.959-107.163-30.759-38.899-78.443-78.582-134.266-111.737z" fill="#00ddc1"/><g><path d="m258.771 512.165c-31.078.001-59.369-28.101-79.729-79.233-18.699-46.961-29.475-109.265-30.345-175.438-.87-66.172 8.266-128.739 25.723-176.175 19.147-52.025 46.953-80.903 78.297-81.315.225-.003.453-.004.679-.004 31.078 0 59.369 28.1 79.728 79.232 18.698 46.961 29.475 109.266 30.346 175.439.87 66.172-8.266 128.739-25.725 176.175-19.146 52.025-46.953 80.903-78.296 81.315-.226.003-.453.004-.678.004zm-5.393-482.01c-.089 0-.176.001-.264.002-17.449.229-36.288 23.249-50.395 61.577-16.215 44.061-24.693 102.788-23.871 165.363.823 62.576 10.841 121.06 28.209 164.679 15.032 37.752 34.351 60.234 51.731 60.234.089 0 .176 0 .264-.002 17.449-.229 36.288-23.249 50.394-61.577 16.216-44.061 24.693-102.788 23.871-165.364-.823-62.577-10.841-121.061-28.209-164.68-15.032-37.752-34.35-60.232-51.73-60.232z" fill="#1f5c99"/></g><path d="m302.208 283.477c-15.13 25.474-48.046 33.86-73.52 18.73s-33.86-48.046-18.73-73.52 48.046-33.86 73.52-18.73 33.86 48.046 18.73 73.52z" fill="#fa184b"/><path d="m283.477 209.969c-8.672-5.151-18.207-7.57-27.609-7.524v107.292c18.366.056 36.282-9.315 46.34-26.248 15.13-25.473 6.744-58.39-18.731-73.52z" fill="#bd0533"/><path d="m333.124 79.232c-19.8-49.728-47.102-77.662-77.174-79.16v30.26c16.694 2.081 34.863 24.155 49.158 60.055 17.368 43.619 27.387 102.104 28.209 164.68s-7.655 121.303-23.871 165.364c-14.106 38.328-32.945 61.349-50.394 61.577-.088.002-.175.002-.264.002-.94 0-1.888-.079-2.839-.209v30.284c.938.052 1.878.08 2.821.08.226 0 .453-.001.678-.004 31.343-.412 59.15-29.291 78.296-81.315 17.459-47.436 26.594-110.003 25.725-176.175-.87-66.172-11.647-128.478-30.345-175.439z" fill="#0e365c"/><path d="m474.315 404.436c-10.186 17.151-32.348 22.797-49.499 12.611s-22.797-32.348-12.61-49.499c10.186-17.151 32.348-22.797 49.499-12.611 17.151 10.187 22.797 32.348 12.61 49.499z" fill="#ffd396"/><path d="m461.705 354.946c-5.839-3.468-12.258-5.097-18.589-5.066v72.237c12.365.038 24.428-6.271 31.199-17.672 10.187-17.151 4.541-39.313-12.61-49.499z" fill="#ff9f00"/><path d="m109.302 138.318c-10.186 17.151-32.348 22.797-49.499 12.611s-22.797-32.348-12.61-49.499c10.186-17.151 32.348-22.797 49.499-12.611s22.797 32.348 12.61 49.499z" fill="#ffd396"/><path d="m96.692 88.827c-5.839-3.468-12.258-5.097-18.589-5.066v72.237c12.365.038 24.428-6.271 31.199-17.672 10.187-17.151 4.541-39.312-12.61-49.499z" fill="#ff9f00"/></g></svg>