<svg id="Layer_1" enable-background="new 0 0 511.917 511.917" height="512" viewBox="0 0 511.917 511.917" width="512" xmlns="http://www.w3.org/2000/svg"><g><g><path d="m110.105 148.67c-5.272 0-10.4-2.736-13.225-7.631-4.21-7.296-1.709-16.624 5.587-20.834l112.621-64.993c7.293-4.21 16.622-1.71 20.834 5.587 4.21 7.296 1.709 16.624-5.587 20.834l-112.621 64.993c-2.4 1.385-5.022 2.044-7.609 2.044z" fill="#dbf5ff"/></g><path d="" style="fill:none;stroke:#000;stroke-width:30;stroke-linecap:round;stroke-linejoin:round;stroke-miterlimit:10"/><g><g><path d="m401.946 148.863c-2.59 0-5.213-.66-7.616-2.048l-112.838-65.188c-7.293-4.214-9.791-13.542-5.577-20.836 4.213-7.295 13.544-9.79 20.837-5.577l112.838 65.188c7.293 4.214 9.791 13.542 5.577 20.836-2.826 4.891-7.953 7.625-13.221 7.625z" fill="#b3ddff"/></g></g><g><path d="m434.898 336.276c-8.423 0-15.252-6.829-15.252-15.252v-129.123c0-8.423 6.829-15.252 15.252-15.252s15.252 6.829 15.252 15.252v129.123c0 8.423-6.829 15.252-15.252 15.252z" fill="#b3ddff"/></g><g><path d="m289.141 458.683c-5.27 0-10.396-2.734-13.221-7.626-4.214-7.294-1.717-16.623 5.578-20.836l112.213-64.819c7.291-4.213 16.623-1.717 20.836 5.578 4.214 7.294 1.717 16.623-5.578 20.836l-112.213 64.819c-2.402 1.388-5.027 2.048-7.615 2.048z" fill="#b3ddff"/></g><path d="" style="fill:none;stroke:#000;stroke-width:30;stroke-linecap:round;stroke-linejoin:round;stroke-miterlimit:10"/><g><path d="m222.891 458.809c-2.588 0-5.209-.659-7.611-2.045l-112.79-65.107c-7.295-4.211-9.796-13.539-5.585-20.835 4.212-7.296 13.539-9.794 20.835-5.585l112.789 65.107c7.295 4.211 9.796 13.539 5.585 20.835-2.825 4.894-7.953 7.63-13.223 7.63z" fill="#dbf5ff"/></g><g><path d="m76.932 336.049c-8.423 0-15.252-6.829-15.252-15.252v-129.773c0-8.423 6.829-15.252 15.252-15.252s15.252 6.829 15.252 15.252v129.772c0 8.424-6.829 15.253-15.252 15.253z" fill="#dbf5ff"/></g><path d="m119.303 384.388c-13.889 23.384-44.104 31.083-67.489 17.194-23.384-13.889-31.082-44.105-17.194-67.489 13.889-23.385 44.104-31.083 67.489-17.194s31.083 44.105 17.194 67.489z" fill="#3aaaff"/><path d="m102.109 316.91c-7.961-4.728-16.714-6.949-25.344-6.907v98.491c16.859.051 33.306-8.551 42.538-24.095 13.889-23.384 6.191-53.6-17.194-67.489z" fill="#0082ff"/><path d="m119.303 178.714c-13.889 23.384-44.104 31.083-67.489 17.194-23.384-13.889-31.082-44.105-17.194-67.489 13.889-23.385 44.104-31.083 67.489-17.194s31.083 44.105 17.194 67.489z" fill="#3aaaff"/><path d="m102.109 111.237c-7.961-4.728-16.714-6.949-25.344-6.907v98.491c16.859.051 33.306-8.551 42.538-24.095 13.889-23.385 6.191-53.601-17.194-67.489z" fill="#0082ff"/><path d="m298.589 74.402c-13.889 23.384-44.105 31.083-67.489 17.194s-31.082-44.105-17.194-67.489c13.889-23.385 44.104-31.083 67.489-17.194 23.385 13.888 31.083 44.104 17.194 67.489z" fill="#3aaaff"/><path d="m281.396 6.924c-7.961-4.728-16.714-6.949-25.344-6.907v98.491c16.859.051 33.306-8.551 42.538-24.095 13.888-23.384 6.19-53.6-17.194-67.489z" fill="#005fe4"/><path d="m477.297 178.723c-13.889 23.384-44.104 31.083-67.489 17.194-23.384-13.889-31.082-44.105-17.194-67.489 13.889-23.385 44.104-31.083 67.489-17.194 23.384 13.888 31.082 44.104 17.194 67.489z" fill="#0095ff"/><path d="m460.103 111.245c-7.961-4.728-16.714-6.949-25.344-6.907v98.491c16.859.051 33.306-8.551 42.538-24.095 13.888-23.384 6.19-53.6-17.194-67.489z" fill="#005fe4"/><path d="m477.297 384.366c-13.889 23.384-44.104 31.083-67.489 17.194-23.384-13.889-31.082-44.105-17.194-67.489 13.889-23.385 44.104-31.083 67.489-17.194 23.384 13.889 31.082 44.105 17.194 67.489z" fill="#0095ff"/><path d="m460.103 316.888c-7.961-4.728-16.714-6.949-25.344-6.907v98.491c16.859.051 33.306-8.551 42.538-24.095 13.888-23.384 6.19-53.6-17.194-67.489z" fill="#005fe4"/><path d="m298.589 487.81c-13.889 23.384-44.105 31.083-67.489 17.194s-31.082-44.105-17.194-67.489c13.889-23.385 44.104-31.083 67.489-17.194s31.083 44.105 17.194 67.489z" fill="#3aaaff"/><path d="m281.396 420.332c-7.961-4.728-16.714-6.949-25.344-6.907v98.491c16.859.051 33.306-8.551 42.538-24.095 13.888-23.384 6.19-53.6-17.194-67.489z" fill="#005fe4"/><path d="m347.881 310.743c-30.218 50.879-95.961 67.628-146.84 37.41s-67.628-95.961-37.409-146.84c30.218-50.879 95.961-67.628 146.84-37.41 50.879 30.219 67.628 95.962 37.409 146.84z" fill="#fa184b"/><path d="m310.472 163.928c-17.321-10.288-36.365-15.12-55.143-15.027v214.292c36.681.111 72.466-18.604 92.553-52.425 30.218-50.879 13.469-116.622-37.41-146.84z" fill="#bd0533"/></g></svg>