<svg id="Layer_1" enable-background="new 0 0 511.805 511.805" height="512" viewBox="0 0 511.805 511.805" width="512" xmlns="http://www.w3.org/2000/svg"><g><path d="m315.719 511.805h126.377c5.084 0 10.023-1.85 13.752-5.306 22.314-20.679 36.285-50.235 36.285-83.057 0-47.12-28.786-87.512-69.729-104.562-3.963-1.651-6.538-5.528-6.538-9.821v-105.459h-73.916v105.459c0 4.293-2.575 8.171-6.538 9.821-40.943 17.051-69.729 57.443-69.729 104.562 0 32.822 13.97 62.378 36.285 83.057 3.728 3.456 8.667 5.306 13.751 5.306z" fill="#dbf5ff"/><g><path d="m441.4 219.067h-127.001c-8.542 0-15.467-6.925-15.467-15.467s6.925-15.467 15.467-15.467h127.001c8.542 0 15.467 6.925 15.467 15.467s-6.925 15.467-15.467 15.467z" fill="#b3ddff"/></g><path d="m179.635 324.246 68.204-164.408 70.02-70.02-27.451-27.44-27.439-27.45-64.795 64.795c-3.451 3.451-7.533 6.207-12.024 8.117l-156.527 66.585c-10.657 4.533-13.348 18.406-5.159 26.595l128.52 128.52c8.232 8.234 22.19 5.461 26.651-5.294z" fill="#dbf5ff"/><circle cx="386.002" cy="70.553" fill="#ff5ca8" r="15.467"/><circle cx="408.996" cy="137.139" fill="#473dcc" r="15.467"/><path d="m299.616 423.261c0 22.531 9.4 42.863 24.49 57.298 3.048 2.916 7.078 4.583 11.296 4.583h87.021c4.065 0 8.019-1.488 10.972-4.283 15.274-14.452 24.805-34.911 24.805-57.598 0-2.993-.17-5.946-.496-8.851-.394-3.504-3.407-6.126-6.932-6.126h-143.728c-3.526 0-6.539 2.623-6.932 6.126-.327 2.905-.496 5.858-.496 8.851z" fill="#66f"/><path d="m152.983 329.54c8.233 8.233 22.191 5.461 26.652-5.294l65.305-157.419c1.914-4.614 4.717-8.806 8.249-12.339l64.67-64.67-27.451-27.44-.393-.393-202.293 202.294z" fill="#b3ddff"/><path d="m415.865 316.393v-112.793h-36.958v308.205h63.189c5.084 0 10.023-1.85 13.752-5.306 22.314-20.679 36.285-50.235 36.285-83.057 0-49.59-31.883-91.728-76.268-107.049z" fill="#b3ddff"/><path d="m378.908 408.283v76.858h43.515c4.065 0 8.019-1.488 10.972-4.283 15.274-14.452 24.805-34.911 24.805-57.598 0-2.993-.17-5.946-.496-8.851-.394-3.504-3.407-6.126-6.932-6.126z" fill="#473dcc"/><path d="m441.4 188.134h-62.492v30.933h62.492c8.542 0 15.467-6.925 15.467-15.467s-6.925-15.466-15.467-15.466z" fill="#59a7ff"/><g><path d="m337.321 124.738c-3.958 0-7.917-1.51-10.936-4.53l-93.806-93.805c-6.041-6.04-6.041-15.833 0-21.873 6.04-6.041 15.833-6.041 21.873 0l93.806 93.805c6.041 6.04 6.041 15.833 0 21.873-3.02 3.021-6.979 4.53-10.937 4.53z" fill="#b3ddff"/></g><path d="m279.088 72.912 47.296 47.296c3.02 3.02 6.978 4.53 10.936 4.53s7.917-1.51 10.936-4.53c6.041-6.04 6.041-15.833 0-21.873l-47.295-47.295z" fill="#59a7ff"/><path d="m90.466 176.053-21.13 8.988c-7.032 2.991-8.808 12.146-3.404 17.549l84.804 84.804c5.433 5.433 14.643 3.603 17.587-3.493l43.735-105.425c.594-1.433-.459-3.01-2.01-3.01h-116.708c-.988.001-1.966.2-2.874.587z" fill="#ff5ca8"/><path d="m150.736 287.395c5.433 5.433 14.643 3.603 17.587-3.493l43.735-105.425c.594-1.433-.459-3.01-2.01-3.01h-33.51l-68.865 68.865z" fill="#ff1786"/></g></svg>