<svg id="Layer_1" enable-background="new 0 0 511.89 511.89" height="512" viewBox="0 0 511.89 511.89" width="512" xmlns="http://www.w3.org/2000/svg"><g><path d="m119.558 438.921-63.119 63.051c-12.911 12.897-33.844 12.897-46.755 0-12.911-12.897-12.911-33.808 0-46.705l63.119-63.051z" fill="#eee1dc"/><path d="m9.643 501.93c.014.014.026.028.04.042 12.911 12.897 33.844 12.897 46.755 0l63.119-63.051-23.465-23.44z" fill="#ccbeb9"/><path d="m88.74 424.572-1.569-1.568c-29.805-29.772-29.805-78.043 0-107.815l292.864-292.549c29.805-29.772 78.127-29.772 107.932 0l1.569 1.568c29.805 29.772 29.805 78.043 0 107.815l-292.864 292.549c-29.805 29.772-78.127 29.772-107.932 0z" fill="#fff5f5"/><path d="m489.536 24.208-1.086-1.085-400.58 400.58.87.869c29.805 29.772 78.127 29.772 107.932 0l292.864-292.548c29.804-29.773 29.804-78.043 0-107.816z" fill="#eee1dc"/><path d="m358.956 152.036c-6.268-6.275-16.437-6.281-22.712-.012l-259.025 258.746c2.833 4.327 6.146 8.433 9.951 12.234l1.569 1.568c3.438 3.434 7.131 6.454 11.005 9.096l259.198-258.919c6.277-6.269 6.282-16.438.014-22.713z" fill="#fa184b"/><path d="m359.232 152.341-271.362 271.362.87.869c3.438 3.434 7.131 6.454 11.005 9.096l259.198-258.919c6.178-6.171 6.265-16.112.289-22.408z" fill="#ae2538"/><path d="m489.47 24.142-1.569-1.568c-29.805-29.772-78.127-29.772-107.932 0l-47.993 47.941 109.442 109.442 48.052-48c29.805-29.772 29.805-78.043 0-107.815z" fill="#1f5c99"/><path d="m489.47 24.142-1.02-1.019-101.933 101.933 54.901 54.901 48.052-48c29.805-29.772 29.805-78.043 0-107.815z" fill="#0e365c"/></g></svg>