<svg id="Layer_1" enable-background="new 0 0 510.533 510.533" height="512" viewBox="0 0 510.533 510.533" width="512" xmlns="http://www.w3.org/2000/svg"><g><path d="m503.583 180.524c-7.422-13.742-19.783-23.657-34.81-27.917s-30.753-2.309-44.282 5.495l-170.281 98.22 98.22-170.281c7.804-13.529 9.756-29.256 5.496-44.282-4.259-15.026-14.173-27.39-27.917-34.81-27.26-14.721-60.927-5.339-76.646 21.358l-3.981 6.762c-7.921 13.452-10.015 29.153-5.897 44.211s13.911 27.51 27.574 35.058l23.15 12.792-83.997 145.622-30.228-30.228c-15.27-15.27-40.114-15.27-55.384 0l-71.6 71.6c-15.27 15.27-15.27 40.114 0 55.384 3.045 3.045 2.822 6.664 2.585 8.079s-1.207 4.909-5.08 6.794l-42.094 20.489c-7.425 3.614-10.514 12.562-6.9 19.987.748 1.537 1.724 2.888 2.869 4.032 4.384 4.384 11.23 5.734 17.118 2.868l42.094-20.488c11.362-5.53 19.393-16.271 21.484-28.733s-1.995-25.236-10.93-34.172c-3.61-3.61-3.61-9.485 0-13.095l71.6-71.6c3.61-3.61 9.484-3.61 13.095 0l88.023 88.023c3.61 3.61 3.61 9.485 0 13.095l-71.6 71.6c-3.61 3.61-9.484 3.61-13.095 0-8.935-8.935-21.71-13.021-34.172-10.93s-23.203 10.122-28.733 21.483l-20.489 42.094c-2.866 5.888-1.517 12.734 2.868 17.118 1.144 1.144 2.496 2.121 4.032 2.869 7.424 3.614 16.373.524 19.987-6.9l20.489-42.095c1.884-3.872 5.378-4.842 6.793-5.079s5.034-.46 8.079 2.585c15.27 15.27 40.114 15.27 55.384 0l71.6-71.6c15.27-15.27 15.27-40.114 0-55.384l-30.228-30.228 145.622-83.997 12.792 23.15c7.549 13.662 20 23.457 35.058 27.574 15.058 4.118 30.759 2.024 44.211-5.897l6.762-3.981c26.698-15.718 36.079-49.385 21.359-76.645zm-218.063-92.358c-6.536-3.614-11.221-9.569-13.192-16.773-1.97-7.204-.968-14.716 2.821-21.151l3.981-6.762c7.52-12.773 23.627-17.261 36.669-10.218 2.393 1.292 4.542 2.896 6.407 4.762 3.261 3.261 5.653 7.32 6.949 11.892 2.038 7.189 1.104 14.713-2.629 21.186l-17.375 30.122zm181.533 143.236-6.762 3.981c-6.436 3.789-13.948 4.791-21.151 2.821-7.204-1.971-13.16-6.656-16.772-13.193l-13.058-23.631 30.122-17.375c6.473-3.733 13.997-4.667 21.186-2.629s13.103 6.781 16.654 13.356c7.042 13.042 2.553 29.149-10.219 36.67z" fill="#eee1dc"/><path d="m503.583 180.524c-7.422-13.742-19.783-23.657-34.81-27.917s-30.753-2.309-44.282 5.495l-170.152 98.146-51.46 51.46 43.984 43.984c3.61 3.61 3.61 9.485 0 13.095l-71.6 71.6c-3.61 3.61-9.484 3.61-13.095 0-8.935-8.935-21.71-13.021-34.172-10.93s-23.203 10.122-28.733 21.483l-20.489 42.094c-2.866 5.888-1.517 12.734 2.868 17.118 1.144 1.144 2.496 2.121 4.032 2.869 7.424 3.614 16.373.524 19.987-6.9l20.489-42.095c1.884-3.872 5.378-4.842 6.793-5.079s5.034-.46 8.079 2.585c15.27 15.27 40.114 15.27 55.384 0l71.6-71.6c15.27-15.27 15.27-40.114 0-55.384l-30.228-30.228 145.622-83.997 12.792 23.15c7.549 13.662 20 23.457 35.058 27.574 15.058 4.118 30.759 2.024 44.211-5.897l6.762-3.981c26.699-15.718 36.08-49.385 21.36-76.645zm-36.53 50.878-6.762 3.981c-6.436 3.789-13.948 4.791-21.151 2.821-7.204-1.971-13.16-6.656-16.772-13.193l-13.058-23.631 30.122-17.375c6.473-3.733 13.997-4.667 21.186-2.629s13.103 6.781 16.654 13.356c7.042 13.042 2.553 29.149-10.219 36.67z" fill="#ccbeb9"/></g></svg>