<svg id="Layer_1" enable-background="new 0 0 511.834 511.834" height="512" viewBox="0 0 511.834 511.834" width="512" xmlns="http://www.w3.org/2000/svg"><g><path d="m447.409 68.011-137.1 141.741v88.836c0 12.659-18.659 19.783-31.473 12.016l-64.559-39.133c-4.756-2.883-7.538-7.318-7.538-12.016v-49.497l-142.314-141.947 178.796-49.417z" fill="#ffbca7"/><path d="m254.973 296.139 23.864 14.465c12.814 7.767 31.473.643 31.473-12.016v-88.836l137.099-141.741-192.436-46.572z" fill="#ffa289"/><path d="m261.152 354.836c-2.627-4.352-8.968-4.267-11.477.154l-44.072 74.027c-4.849 8.543-7.397 16.227-7.397 26.05 0 31.351 25.415 56.766 56.766 56.766 31.351 0 56.766-25.415 56.766-56.766 0-10.34-2.824-17.694-8.167-26.546z" fill="#78ffff"/><path d="m261.152 354.836c-1.392-2.306-3.825-3.353-6.18-3.183v160.18c31.351 0 56.766-25.415 56.766-56.766 0-10.34-2.824-17.694-8.167-26.546z" fill="#43e5fb"/><path d="m64.425 68.011h382.984v-57.101c0-6.025-4.884-10.91-10.91-10.91h-361.164c-6.025 0-10.91 4.884-10.91 10.91z" fill="#ff4566"/><path d="m206.63 209.958v49.497c0 4.699 2.782 9.134 7.538 12.016l64.559 39.133c12.814 7.767 31.473.643 31.473-12.016v-88.629h-103.57z" fill="#ff8f7a"/><path d="m436.499 0h-181.526v68.011h192.436v-57.101c0-6.026-4.885-10.91-10.91-10.91z" fill="#fa184b"/><path d="m254.973 296.205 23.754 14.399c12.814 7.767 31.473.643 31.473-12.016v-88.629h-55.227z" fill="#fc7964"/></g></svg>