<svg id="Layer_1" enable-background="new 0 0 511.519 511.519" height="512" viewBox="0 0 511.519 511.519" width="512" xmlns="http://www.w3.org/2000/svg"><g><path d="m338.43 310.512c-72.542-5.069-138.193-67.774-138.207-147.519-.014-80.126 66.244-147.993 148.106-147.993 81.797 0 148.106 66.259 148.106 147.993 0 15.765-2.468 30.958-7.037 45.207-1.373 4.706-3.563 11.159-7.072 18.434-21.935 45.474-78.712 88.433-143.896 83.878z" fill="#fff5f5"/><path d="m348.329 15.007v295.838c60.982-.164 113.18-41.048 133.997-84.204 3.509-7.274 5.699-13.728 7.072-18.434 4.569-14.249 7.037-29.443 7.037-45.207 0-81.734-66.309-147.993-148.106-147.993z" fill="#dbf5ff"/><g><path d="m185.387 342.108c-3.927 0-7.852-1.492-10.85-4.479-5.999-5.976-6.004-15.67-.012-21.652l58.121-58.027c5.992-5.984 15.713-5.988 21.711-.012 5.999 5.976 6.004 15.67.012 21.652l-58.121 58.027c-2.997 2.994-6.93 4.491-10.861 4.491z" fill="#b3ddff"/></g><path d="m12.516 499.138c-16.683-16.659-16.473-43.854.469-60.766l154.75-154.47c4.267-4.259 11.384-4.063 15.891.438l22.068 22.036 22.085 22.053c4.5 4.493 4.695 11.578.435 15.831l-154.699 154.419c-16.969 16.938-44.29 17.144-60.999.459z" fill="#fa184b"/><path d="m12.929 438.316c-16.942 16.912-17.152 44.107-.469 60.766 16.709 16.685 44.03 16.479 60.998-.459l24.359-24.3-60.496-60.34z" fill="#bd0533"/><path d="m347.963 325.845c-3.502 0-7.024-.121-10.579-.37-39.041-2.728-77.686-21.054-106.024-50.277-29.745-30.673-46.13-70.521-46.137-112.202-.008-42.925 16.935-83.63 47.706-114.616 30.982-31.198 71.965-48.38 115.401-48.38 89.937 0 163.105 73.119 163.105 162.993 0 16.926-2.588 33.611-7.693 49.598-2.072 7.066-4.732 13.982-7.906 20.561-22.797 47.263-80.096 92.693-147.873 92.693zm-8.487-30.297c34.271 2.392 61.934-10.041 79.106-20.894 21.875-13.827 40.185-33.705 50.232-54.537 2.485-5.15 4.565-10.573 6.184-16.119l.116-.379c4.193-13.079 6.32-26.748 6.32-40.626.001-73.332-59.71-132.993-133.104-132.993-35.383 0-68.807 14.035-94.114 39.519-25.151 25.326-38.999 58.522-38.993 93.472.006 33.843 13.386 66.275 37.674 91.322 23.26 23.986 54.816 39.016 86.579 41.235z" fill="#1f5c99"/><g><path d="m304.175 217.26c-.85 0-1.71-.072-2.576-.222-8.163-1.413-13.635-9.176-12.222-17.339 1.094-6.316-.34-12.68-4.037-17.919-3.699-5.243-9.221-8.732-15.549-9.826-8.163-1.411-13.637-9.173-12.226-17.336s9.169-13.635 17.337-12.226c14.221 2.458 26.633 10.304 34.95 22.092 8.319 11.792 11.546 26.115 9.085 40.332-1.263 7.297-7.601 12.444-14.762 12.444z" fill="#ffb64c"/></g><g><path d="m400.461 240.275c-3.838 0-7.674-1.463-10.603-4.39-10.209-10.201-15.831-23.764-15.831-38.192s5.622-27.991 15.831-38.192c5.86-5.856 15.358-5.853 21.213.008 5.855 5.86 5.853 15.357-.008 21.213-4.537 4.534-7.036 10.561-7.036 16.971s2.499 12.438 7.036 16.971c5.86 5.855 5.863 15.353.008 21.213-2.928 2.932-6.77 4.398-10.61 4.398z" fill="#ff1786"/></g><g><path d="m368.138 121.969c-21.261 0-41.461-12.617-50.041-33.452-3.154-7.66.498-16.427 8.158-19.582 7.66-3.154 16.427.498 19.582 8.158 5.044 12.247 19.124 18.107 31.38 13.068 7.664-3.15 16.427.508 19.577 8.169 3.15 7.662-.507 16.427-8.169 19.577-6.703 2.757-13.651 4.062-20.487 4.062z" fill="#00f17e"/></g><path d="m481.435 162.993c0 13.879-2.127 27.548-6.32 40.626l-.116.379c-1.618 5.545-3.698 10.968-6.184 16.119-10.048 20.833-28.357 40.71-50.232 54.537-15.668 9.902-40.07 21.113-70.253 21.186v30c67.616-.164 124.75-45.512 147.506-92.689 3.174-6.578 5.834-13.495 7.906-20.561 5.105-15.987 7.693-32.672 7.693-49.598 0-89.873-73.169-162.992-163.105-162.992v30c73.394 0 133.105 59.661 133.105 132.993z" fill="#0e365c"/><path d="m377.217 90.162c-10.614 4.364-22.591.549-28.888-8.505v36.545c6.261 2.458 12.979 3.767 19.809 3.767 6.836 0 13.784-1.306 20.487-4.062 7.662-3.15 11.319-11.915 8.169-19.577-3.15-7.661-11.913-11.318-19.577-8.168z" fill="#009b52"/></g></svg>