<svg id="Layer_1" enable-background="new 0 0 512 512" height="512" viewBox="0 0 512 512" width="512" xmlns="http://www.w3.org/2000/svg"><g><g><g><path d="m490.4 222.299c-3.707 0-7.416-1.403-10.261-4.214l-11.439-11.304c-53.596-52.956-129.523-82.12-213.793-82.12-40.744 0-79.414 6.836-114.934 20.319-36.768 13.957-69.294 34.75-96.673 61.802l-11.44 11.302c-5.738 5.668-14.981 5.61-20.647-.124-5.667-5.736-5.612-14.979.124-20.647l11.439-11.303c30.292-29.93 66.237-52.919 106.834-68.33 38.842-14.744 80.998-22.219 125.295-22.219 92.004 0 175.219 32.158 234.317 90.549l11.439 11.303c5.736 5.668 5.79 14.911.124 20.647-2.854 2.89-6.618 4.339-10.385 4.339z" fill="#113759"/></g><path d="m489.223 186.011c-59.098-58.392-142.313-90.549-234.317-90.549-.184 0-.367.006-.551.006v29.199c.185 0 .368-.006.552-.006 84.27 0 160.197 29.164 213.793 82.12l11.439 11.303c2.845 2.812 6.553 4.214 10.261 4.214 3.766 0 7.529-1.448 10.386-4.338 5.667-5.736 5.612-14.979-.124-20.647z" fill="#1b1327"/><path d="m123.74 194.521h-108.872c-4.356 0-7.889 3.532-7.889 7.889v113.986c0 2.277.984 4.442 2.698 5.94l70.594 52.146 63.209-74.658z" fill="#225e9d"/><path d="m403.878 194.392h93.064c4.356 0 7.888 3.532 7.888 7.889v112.301c0 2.311-1.013 4.504-2.771 6.003l-69.05 52.504-54.04-73.266z" fill="#113759"/><path d="m67.924 194.521v158.066c0 12.044 8.398 22.457 20.168 25.008l115.113 24.953c6.702 1.453 13.206-3.161 14.05-9.967l2.982-24.06c2.12-17.103 16.652-29.945 33.886-29.945 17.224 0 31.751 12.828 33.883 29.919l2.956 23.696c.848 6.798 7.344 11.406 14.041 9.96l119.384-25.793c9.57-2.067 16.399-10.531 16.399-20.321v-149.533c0-6.689-5.423-12.109-12.111-12.107z" fill="#fef5f6"/><path d="m254.355 338.58c17.121.115 31.529 12.899 33.651 29.913l2.956 23.695c.848 6.798 7.344 11.406 14.041 9.96l121.544-26.26c8.309-1.795 14.239-9.144 14.239-17.644v-163.851l-186.431.064z" fill="#eee1dc"/><g><path d="m217.626 417.39c-1.032 0-2.068-.109-3.093-.331l-139.196-30.172c-6.715-1.456-11.506-7.397-11.506-14.269v-168.344c0-8.061 6.534-14.597 14.595-14.6l351.249-.121h.005c3.872 0 7.584 1.538 10.321 4.275 2.739 2.738 4.279 6.452 4.279 10.325v168.078c0 6.874-4.796 12.818-11.516 14.271l-139.654 30.172c-4.003.865-8.187.009-11.531-2.362-3.341-2.37-5.533-6.035-6.04-10.101l-4.271-34.241c-1.095-8.775-8.588-15.392-17.432-15.392-8.85 0-16.345 6.623-17.434 15.406l-4.288 34.602c-.504 4.069-2.697 7.74-6.041 10.113-2.491 1.764-5.447 2.691-8.447 2.691zm-124.597-56.546 112.072 24.294 2.324-18.746c2.899-23.382 22.852-41.013 46.411-41.013 23.542 0 43.493 17.617 46.407 40.977l2.295 18.409 112.542-24.315v-141.691l-322.05.11v141.975z" fill="#6ba0d6"/></g><path d="m429.678 189.554h-.005l-175.319.06v29.199l160.724-.055v141.691l-112.542 24.315-2.295-18.409c-2.893-23.188-22.573-40.706-45.886-40.965v29.211c8.614.255 15.838 6.766 16.912 15.368l4.271 34.241c.507 4.065 2.699 7.731 6.04 10.101 3.343 2.371 7.527 3.227 11.531 2.362l139.653-30.172c6.72-1.452 11.516-7.395 11.516-14.271v-168.076c0-3.873-1.539-7.587-4.279-10.325-2.736-2.737-6.45-4.275-10.321-4.275z" fill="#3e75ba"/></g></g></svg>