<svg id="Layer_1" enable-background="new 0 0 511.035 511.035" height="512" viewBox="0 0 511.035 511.035" width="512" xmlns="http://www.w3.org/2000/svg"><g><path d="m245.744 217.277-27.668-27.668-22.497 22.497 27.668 27.668c6.212 6.212 16.285 6.212 22.497 0s6.213-16.285 0-22.497z" fill="#b3ddff"/><path d="m372.125 242.26-217.153 217.153c-16.389 16.389-42.962 16.389-59.351 0l-42.509 42.509c-12.15 12.15-31.85 12.15-44 0-12.15-12.15-12.15-31.85 0-44l42.509-42.509c-16.389-16.389-16.389-42.962 0-59.351l217.145-217.145 105.467-20.301z" fill="#fff5f5"/><path d="m9.113 501.922c12.15 12.15 31.85 12.15 44 0l42.509-42.509c16.389 16.389 42.961 16.389 59.351 0l217.152-217.153 1.794-105.144z" fill="#eee1dc"/><path d="m437.93 176.456 51.701-51.7c28.539-28.539 28.539-74.811 0-103.351-28.539-28.539-74.811-28.539-103.351 0l-51.701 51.701 4.242 117.969z" fill="#fa184b"/><path d="m394.881 265.007-148.853-148.853c-17.133-17.133-17.133-44.911 0-62.044l3.756-3.756c17.133-17.133 44.911-17.133 62.044 0l148.853 148.853c17.133 17.133 17.133 44.911 0 62.044l-3.756 3.756c-17.133 17.133-44.911 17.133-62.044 0z" fill="#de0a3e"/><g fill="#ccbeb9"><path d="m245.744 217.277-27.668-27.668-22.497 22.497 27.668 27.668c6.212 6.212 16.285 6.212 22.497 0 6.213-6.212 6.213-16.285 0-22.497z"/><path d="m195.575 267.446-27.668-27.668-22.497 22.497 27.668 27.668c6.212 6.212 16.285 6.212 22.497 0 6.213-6.212 6.213-16.285 0-22.497z"/><path d="m145.406 317.615-27.668-27.668-22.498 22.497 27.668 27.668c6.212 6.212 16.285 6.212 22.497 0 6.214-6.212 6.214-16.285.001-22.497z"/></g><path d="m224.976 389.248h-185.474-.017c.796 9.542 4.835 18.865 12.137 26.166l-42.509 42.508c-12.15 12.15-12.15 31.849 0 44 12.15 12.15 31.85 12.15 44 0l42.509-42.509c16.389 16.389 42.961 16.389 59.351 0l69.956-69.956z" fill="#78ffff"/><path d="m489.63 21.405-103.376 103.375 51.675 51.675 51.7-51.7c28.541-28.539 28.541-74.811.001-103.35z" fill="#de0a3e"/><path d="m458.803 197.329-72.548-72.548-65.8 65.8 72.548 72.548c18.17 18.17 47.63 18.17 65.8 0 18.17-18.17 18.17-47.63 0-65.8z" fill="#bd0533"/><path d="m121.787 389.248-112.674 112.674c12.15 12.15 31.85 12.15 44 0l42.509-42.509c16.389 16.389 42.961 16.389 59.351 0l69.956-69.956.048-.21z" fill="#43e5fb"/></g></svg>