<svg id="Layer_1" enable-background="new 0 0 1574.835 1574.835" height="512" viewBox="0 0 1574.835 1574.835" width="512" xmlns="http://www.w3.org/2000/svg"><g><ellipse cx="787.417" cy="787.418" fill="#a4ceff" rx="763.963" ry="763.378"/><path d="m787.734 24.039v1526.75c421.779-.17 763.647-341.88 763.647-763.375s-341.868-763.205-763.647-763.375z" fill="#59a7ff"/><ellipse cx="787.734" cy="787.322" fill="#fff5f5" rx="559.161" ry="558.731"/><path d="m1346.895 787.322c0-308.578-250.344-558.731-559.161-558.731v1117.466c308.814 0 559.161-250.154 559.161-558.735z" fill="#eee1dc"/><path d="m1176.582 1188.528c-110.602-75.659-244.364-119.942-388.481-119.942-144.44 0-278.474 44.483-389.218 120.453l202.632 127.283 270.165 47.047 179.869-83.314z" fill="#59a7ff"/><path d="m787.734 1068.592v280.16l83.949 14.62 179.869-83.314 125.033-91.526c-110.602-75.659-244.364-119.942-388.481-119.942-.126-.001-.248.002-.37.002z" fill="#0082ff"/><path d="m862.128 756.701h.024l-62.869-151.518c-3.951-9.526-17.422-9.594-21.472-.11l-66.904 156.63h.024c-6.064 13.722-8.592 29.344-6.321 45.739 5.246 37.873 36.312 67.799 74.352 71.646 50.55 5.112 93.016-34.59 92.72-84.006-.085-13.857-3.541-26.898-9.554-38.381z" fill="#fa184b"/><g><path d="m355.68 834.84h-127.107c-26.24 0-47.515-21.275-47.515-47.515s21.275-47.515 47.515-47.515h127.107c26.24 0 47.515 21.275 47.515 47.515s-21.275 47.515-47.515 47.515z" fill="#0e365c"/></g><g><path d="m1346.892 834.932h-127.104c-26.24 0-47.515-21.275-47.515-47.515s21.275-47.515 47.515-47.515h127.104c26.24 0 47.515 21.275 47.515 47.515.003 26.244-21.272 47.515-47.515 47.515z" fill="#1b0428"/></g><g><path d="m787.734 403.21c-26.24 0-47.515-21.275-47.515-47.515v-127.105c0-26.24 21.275-47.515 47.515-47.515s47.515 21.275 47.515 47.515v127.104c0 26.244-21.275 47.516-47.515 47.516z" fill="#0e365c"/></g><g><path d="m464.762 547.635c-12.161 0-24.321-4.638-33.596-13.918l-89.876-89.877c-18.556-18.556-18.556-48.64 0-67.196 18.553-18.559 48.64-18.559 67.196 0l89.876 89.876c18.556 18.556 18.556 48.64 0 67.196-9.281 9.281-21.439 13.919-33.6 13.919z" fill="#0e365c"/></g><g><path d="m1108.118 545.095c-12.161 0-24.321-4.638-33.596-13.918-18.556-18.556-18.556-48.64 0-67.196l89.876-89.876c18.553-18.559 48.64-18.559 67.196 0 18.556 18.556 18.556 48.64 0 67.196l-89.876 89.876c-9.279 9.277-21.439 13.918-33.6 13.918z" fill="#1b0428"/></g><path d="m787.734 181.076v222.134c26.24 0 47.515-21.275 47.515-47.515v-127.105c0-26.24-21.275-47.514-47.515-47.514z" fill="#1b0428"/><path d="m862.152 756.674-62.869-151.518c-2.104-5.073-6.906-7.437-11.549-7.132v281.464c46.593-.009 84.227-37.909 83.946-84.436-.084-13.856-3.539-26.894-9.552-38.377h.024z" fill="#bd0533"/><path d="m787.734 1393.572c-334.523 0-606.676-271.962-606.676-606.246s272.153-606.25 606.676-606.25 606.676 271.962 606.676 606.25-272.153 606.246-606.676 606.246zm0-1117.467c-282.123 0-511.646 229.332-511.646 511.217s229.523 511.217 511.646 511.217 511.646-229.329 511.646-511.217-229.523-511.217-511.646-511.217z" fill="#194d80"/><path d="m787.734 181.076v95.03c282.123 0 511.643 229.332 511.643 511.22 0 281.884-229.523 511.217-511.643 511.217v95.03c334.523 0 606.676-271.962 606.676-606.246s-272.153-606.251-606.676-606.251z" fill="#0e365c"/></g></svg>