<svg id="Layer_1" enable-background="new 0 0 512.072 512.072" height="512" viewBox="0 0 512.072 512.072" width="512" xmlns="http://www.w3.org/2000/svg"><g><g><path d="m134.267 375.096h-85.254c-27.026 0-49.013-21.987-49.013-49.012v-140.095c0-27.025 21.987-49.012 49.013-49.012h31.078c8.284 0 15 6.716 15 15s-6.716 15-15 15h-31.078c-10.483 0-19.013 8.529-19.013 19.012v140.095c0 10.483 8.529 19.012 19.013 19.012h85.254c8.284 0 15 6.716 15 15s-6.716 15-15 15z" fill="#fff5f5"/></g><g><path d="m463.061 375.096h-85.215c-8.284 0-15-6.716-15-15s6.716-15 15-15h85.215c10.483 0 19.012-8.529 19.012-19.012v-140.095c0-10.483-8.528-19.012-19.012-19.012h-31.103c-8.284 0-15-6.716-15-15s6.716-15 15-15h31.103c27.025 0 49.012 21.987 49.012 49.012v140.095c-.001 27.025-21.987 49.012-49.012 49.012z" fill="#eee1dc"/></g><path d="m263.721 415.665h-15.296c-97.231 0-176.052-78.821-176.052-176.052v-91.42c0-28.601 23.186-51.787 51.787-51.787h263.827c28.601 0 51.787 23.186 51.787 51.787v91.42c-.001 97.231-78.822 176.052-176.053 176.052z" fill="#6ee8c5"/><path d="m387.986 96.407h-131.913v319.258h7.648c97.231 0 176.052-78.821 176.052-176.052v-91.419c0-28.601-23.186-51.787-51.787-51.787z" fill="#00ddc1"/><g><path d="m161.419 217.99c-2.788 0-5.612-.745-8.163-2.309-7.37-4.517-9.683-14.153-5.166-21.523 13.752-22.438 38.644-36.377 64.961-36.377h87.81c23.854 0 46.641 11.393 60.954 30.477l1.417 1.889c5.188 6.914 3.787 16.725-3.127 21.913-6.917 5.188-16.726 3.786-21.913-3.128l-1.418-1.891c-8.433-11.245-21.858-17.958-35.912-17.958h-87.81c-15.505 0-30.17 8.212-38.272 21.432-2.954 4.818-8.095 7.475-13.361 7.475z" fill="#39cda8"/></g><g><path d="m316.703 270.989h-121.26c-8.644 0-15.652-7.008-15.652-15.652s7.008-15.652 15.652-15.652h121.26c8.644 0 15.652 7.008 15.652 15.652-.001 8.645-7.008 15.652-15.652 15.652z" fill="#39cda8"/></g><g><path d="m290.283 339.808h-68.421c-8.644 0-15.652-7.008-15.652-15.652s7.008-15.652 15.652-15.652h68.421c8.644 0 15.652 7.008 15.652 15.652s-7.008 15.652-15.652 15.652z" fill="#39cda8"/></g><g fill="#00b58e"><path d="m361.814 188.257c-14.313-19.084-37.099-30.477-60.954-30.477h-44.788v31.303h44.788c14.054 0 27.479 6.713 35.912 17.958l1.418 1.891c5.188 6.914 14.996 8.315 21.913 3.128 6.914-5.188 8.315-14.998 3.127-21.913z"/><path d="m316.703 239.686h-60.63v31.303h60.63c8.644 0 15.652-7.008 15.652-15.652-.001-8.644-7.008-15.651-15.652-15.651z"/><path d="m290.283 308.505h-34.21v31.303h34.21c8.644 0 15.652-7.008 15.652-15.652s-7.008-15.651-15.652-15.651z"/></g></g></svg>