<svg id="Layer_1" enable-background="new 0 0 511.984 511.984" height="512" viewBox="0 0 511.984 511.984" width="512" xmlns="http://www.w3.org/2000/svg"><g><path d="m357.844 83.124h128.79c14.001 0 25.351 11.35 25.351 25.351v378.129c0 14.001-11.35 25.351-25.351 25.351h-461.283c-14.001 0-25.351-11.35-25.351-25.351v-378.129c0-14.001 11.35-25.351 25.351-25.351h127.699" fill="#dbf5ff"/><path d="m486.633 83.124h-231.221v428.831h231.222c14.001 0 25.351-11.35 25.351-25.351v-378.129c-.001-14.001-11.351-25.351-25.352-25.351z" fill="#b3ddff"/><path d="m255.921 334.384.644-196.527-103.515-54.733-78.794 88.947c-6.923 7.815-5.803 19.854 2.444 26.258l37.469 29.093c7.206 5.595 9.112 15.684 4.443 23.522l-15.72 26.392c-6.333 10.633-.346 24.341 11.758 26.923z" fill="#b3ddff"/><path d="" fill="#e0d2cd"/><g><path d="m438.214 460.958h-107.373c-8.799 0-15.932-7.133-15.932-15.932s7.133-15.932 15.932-15.932h107.373c8.799 0 15.932 7.133 15.932 15.932s-7.133 15.932-15.932 15.932z" fill="#0e365c"/></g><path d="m168.901 449.681h-99.692c-7.856 0-14.224-6.368-14.224-14.224v-34.151c0-7.855 6.368-14.224 14.224-14.224h99.691c7.856 0 14.224 6.368 14.224 14.224v34.151c0 7.856-6.368 14.224-14.223 14.224z" fill="#fff4f4"/><path d="" fill="#e0d2cd"/><path d="m256.565 334.384 143.267-30.174c12.129-2.555 18.145-16.283 11.802-26.932l-15.685-26.334c-4.669-7.838-2.763-17.927 4.443-23.522l37.22-28.9c8.338-6.474 9.375-18.687 2.249-26.475l-81.374-88.923-86.972 11.238z" fill="#59a7ff"/><path d="m343.959 161.251-.105.003c41.9-67.632-1.541-151.272-75.919-160.467-85.068-9.848-141.958 78.152-106.689 150.395 3.888 10.738 60.363 82.48 84.628 114.151 5.091 6.645 15.114 6.586 20.135-.111 23.125-30.843 76.863-102.264 77.95-103.971z" fill="#194d80"/><path d="m267.935.776c-4.249-.492-8.423-.729-12.523-.747v270.213c3.953.15 7.963-1.518 10.598-5.031 23.125-30.843 76.863-102.264 77.949-103.971l-.105.003c41.9-67.633-1.541-151.273-75.919-160.467z" fill="#0e365c"/><path d="m239.988 511.955h31.863v-254.521c-2.103 2.802-4.064 5.416-5.842 7.788-5.021 6.697-15.044 6.756-20.135.111-1.796-2.344-3.771-4.912-5.886-7.653" fill="#59a7ff"/><path d="m255.411 270.253v241.702h16.44v-254.521c-2.103 2.802-4.064 5.416-5.842 7.788-2.634 3.514-6.644 5.181-10.598 5.031z" fill="#0082ff"/><g><path d="m175.503 460.958h-112.896c-8.284 0-15-6.716-15-15v-55.152c0-8.284 6.716-15 15-15h112.896c8.284 0 15 6.716 15 15v55.152c0 8.284-6.716 15-15 15zm-97.896-30h82.896v-25.152h-82.896z" fill="#194d80"/></g></g></svg>