<svg id="Layer_1" enable-background="new 0 0 511.085 511.085" height="512" viewBox="0 0 511.085 511.085" width="512" xmlns="http://www.w3.org/2000/svg"><g><path d="m218.659 62.895-197.861 342.706c-16.393 28.393 4.098 63.884 36.884 63.884h395.722c32.785 0 53.276-35.491 36.884-63.884l-197.862-342.706c-16.393-28.393-57.374-28.393-73.767 0z" fill="#fff000"/><path d="m292.426 62.893c-8.184-14.175-22.498-21.272-36.82-21.293v427.882h197.798c32.785 0 53.276-35.491 36.884-63.884z" fill="#ffba08"/><path d="m453.403 484.484h-395.722c-20.819 0-39.464-10.765-49.874-28.795-10.41-18.03-10.41-39.559 0-57.589l197.862-342.704c10.41-18.03 29.054-28.795 49.874-28.795 20.819 0 39.464 10.765 49.873 28.795l197.861 342.705c10.41 18.03 10.41 39.559 0 57.589-10.409 18.03-29.053 28.794-49.874 28.794zm-197.86-427.883c-9.975 0-18.906 5.157-23.893 13.795l-197.862 342.705c-4.987 8.638-4.987 18.951 0 27.589s13.919 13.795 23.893 13.795h395.722c9.975 0 18.906-5.157 23.894-13.795s4.987-18.951 0-27.589l-197.861-342.705c-4.988-8.638-13.919-13.795-23.893-13.795zm-36.884 6.295h.01z" fill="#0e365c"/><path d="m248.121 213.404-54.475 94.354c-27.51 47.648 6.877 107.208 61.897 107.208 55.019 0 89.406-59.56 61.897-107.208l-54.475-94.354c-3.299-5.713-11.546-5.713-14.844 0z" fill="#0e365c"/><path d="m262.901 213.406c-1.637-2.836-4.493-4.26-7.358-4.281v205.842c54.982-.046 89.332-59.578 61.833-107.207z" fill="#1b0428"/><path d="m251.66 335.724-20.996 36.367c-11.057 19.151 2.764 43.091 24.878 43.091 22.114 0 35.936-23.939 24.878-43.091l-20.996-36.367c-1.725-2.988-6.038-2.988-7.764 0z" fill="#fff000"/><path d="m259.425 335.726c-.851-1.473-2.33-2.217-3.819-2.237v81.693c22.077-.046 35.861-23.956 24.815-43.089z" fill="#ffba08"/><path d="m305.416 55.394c-10.399-18.012-29.016-28.772-49.81-28.794v30.001c9.948.022 18.853 5.174 23.829 13.793l197.862 342.706c4.987 8.638 4.987 18.951 0 27.589s-13.919 13.795-23.894 13.795h-197.797v30h197.797c20.82 0 39.465-10.765 49.874-28.795 10.41-18.03 10.41-39.559 0-57.589z" fill="#1b0428"/></g></svg>