<svg id="Layer_1" enable-background="new 0 0 510.169 510.169" height="512" viewBox="0 0 510.169 510.169" width="512" xmlns="http://www.w3.org/2000/svg"><g><circle cx="255.085" cy="255.085" fill="#ffeb00" r="240.084"/><path d="m495.169 255.085c0-132.595-107.489-240.085-240.084-240.085v480.169c132.595 0 240.084-107.489 240.084-240.084z" fill="#ffba08"/><g fill="#0e365c"><path d="m255.085 510.169c-68.136 0-132.193-26.533-180.372-74.712-48.18-48.18-74.713-112.236-74.713-180.372s26.533-132.193 74.713-180.372c48.179-48.18 112.236-74.713 180.372-74.713s132.192 26.533 180.372 74.713c48.179 48.179 74.712 112.236 74.712 180.372s-26.533 132.192-74.712 180.372c-48.18 48.179-112.236 74.712-180.372 74.712zm0-480.169c-60.123 0-116.646 23.413-159.159 65.926s-65.926 99.036-65.926 159.159c0 60.122 23.413 116.646 65.926 159.158s99.036 65.926 159.159 65.926c60.122 0 116.646-23.413 159.158-65.926s65.926-99.036 65.926-159.158-23.413-116.646-65.926-159.159-99.036-65.926-159.158-65.926z"/><path d="m250.553 293.334c23.648 2.505 43.484-17.331 40.98-40.979-1.825-17.232-15.677-31.085-32.908-32.913-23.65-2.509-43.491 17.331-40.983 40.982 1.827 17.232 15.68 31.084 32.911 32.91z"/><path d="m180.16 401.739c48.111 19.274 101.876 18.923 149.731-.977 2.86-1.189 4.054-4.607 2.578-7.33l-40.6-74.92c-1.367-2.522-4.488-3.479-7.046-2.182-9.092 4.61-19.362 7.218-30.235 7.218-11.03 0-21.443-2.679-30.633-7.412-2.572-1.325-5.727-.337-7.058 2.232l-39.423 76.1c-1.421 2.741-.179 6.123 2.686 7.271z"/></g><path d="m416.378 236.74c-10.461-50.761-40.411-95.414-83.405-124.354-2.57-1.73-6.078-.84-7.536 1.893l-40.097 75.191c-1.35 2.531-.426 5.663 2.067 7.081 8.861 5.041 16.701 12.169 22.698 21.238 6.084 9.2 9.593 19.363 10.714 29.64.314 2.876 2.878 4.963 5.755 4.656l85.222-9.093c3.069-.328 5.205-3.229 4.582-6.252z" fill="#1b0428"/><path d="m175.577 112.738c-42.506 29.655-71.705 74.802-81.316 125.73-.575 3.044 1.628 5.916 4.715 6.176l84.913 7.149c2.858.241 5.371-1.844 5.69-4.695 1.133-10.131 4.586-20.149 10.55-29.24 6.05-9.222 14.002-16.46 23.001-21.547 2.519-1.424 3.423-4.604 2.005-7.126l-42.004-74.707c-1.513-2.689-5.022-3.506-7.554-1.74z" fill="#0e365c"/><path d="m255.085 0v30c60.122 0 116.646 23.413 159.158 65.926s65.926 99.037 65.926 159.159-23.413 116.646-65.926 159.158-99.036 65.926-159.158 65.926v30c68.136 0 132.192-26.533 180.372-74.712 48.179-48.18 74.712-112.236 74.712-180.372s-26.533-132.193-74.712-180.372c-48.18-48.18-112.236-74.713-180.372-74.713z" fill="#1b0428"/><path d="m258.625 219.449c-1.192-.126-2.371-.181-3.541-.196v74.295c21.587-.285 38.791-19.066 36.449-41.186-1.825-17.231-15.677-31.085-32.908-32.913z" fill="#1b0428"/><path d="m291.868 318.516c-1.367-2.522-4.488-3.479-7.046-2.182-8.953 4.54-19.049 7.132-29.737 7.211v92.399c25.449-.161 50.867-5.223 74.806-15.178 2.86-1.189 4.053-4.607 2.578-7.33z" fill="#1b0428"/></g></svg>