<svg id="Layer_1" enable-background="new 0 0 512.511 512.511" height="512" viewBox="0 0 512.511 512.511" width="512" xmlns="http://www.w3.org/2000/svg"><g><path d="m436.511 497.496h-359.21v-76.361l77.933-173.406-77.933-162.274v-70.455h359.21v70.455l-145.075 167.84 145.075 167.84z" fill="#0e365c"/><path d="m253.552 497.496h182.959v-76.361l-140.967-182.075 140.967-153.605v-70.455h-182.959z" fill="#1b0428"/><path d="m77.301 85.455h359.206v335.68h-359.206z" fill="#ffeb00"/><path d="m253.552 85.455h182.954v335.68h-182.954z" fill="#ffba08"/><g><path d="m472.532 512.511h-432.553c-8.284 0-15-6.716-15-15s6.716-15 15-15h432.554c8.284 0 15 6.716 15 15s-6.717 15-15.001 15z" fill="#1f5c99"/></g><g><path d="m472.532 30h-432.553c-8.284 0-15-6.716-15-15s6.716-15 15-15h432.554c8.284 0 15 6.716 15 15s-6.717 15-15.001 15z" fill="#1f5c99"/></g><g><path d="m250.338 273.229c15.919 1.687 29.273-11.667 27.587-27.586-1.229-11.6-10.553-20.926-22.153-22.156-15.921-1.689-29.277 11.667-27.589 27.588 1.23 11.6 10.555 20.926 22.155 22.154z" fill="#0e365c"/><path d="m202.951 346.205c32.387 12.975 68.581 12.738 100.795-.657 1.926-.801 2.729-3.101 1.735-4.935l-27.331-50.434c-.92-1.698-3.021-2.342-4.743-1.469-6.121 3.104-13.034 4.859-20.353 4.859-7.425 0-14.435-1.803-20.621-4.99-1.732-.892-3.855-.227-4.751 1.503l-26.539 51.229c-.957 1.845-.121 4.121 1.808 4.894z" fill="#0e365c"/><path d="m361.968 235.132c-7.042-34.171-27.203-64.23-56.146-83.712-1.73-1.164-4.092-.566-5.073 1.275l-26.992 50.617c-.909 1.704-.287 3.812 1.391 4.767 5.965 3.393 11.243 8.192 15.28 14.297 4.096 6.193 6.458 13.035 7.213 19.953.211 1.936 1.937 3.341 3.874 3.134l57.369-6.121c2.065-.222 3.503-2.175 3.084-4.21z" fill="#1b0428"/><path d="m199.866 151.656c-28.614 19.963-48.27 50.355-54.74 84.638-.387 2.049 1.096 3.983 3.174 4.158l57.162 4.813c1.924.162 3.616-1.241 3.83-3.16.762-6.82 3.087-13.564 7.102-19.683 4.073-6.208 9.426-11.08 15.483-14.505 1.696-.959 2.304-3.099 1.35-4.797l-28.276-50.291c-1.019-1.812-3.381-2.361-5.085-1.173z" fill="#0e365c"/><g fill="#1b0428"><path d="m255.772 223.492c-.802-.085-1.596-.122-2.383-.132v50.014c14.532-.192 26.113-12.835 24.536-27.725-1.229-11.6-10.553-20.926-22.153-22.157z"/><path d="m278.15 290.182c-.92-1.698-3.021-2.342-4.743-1.469-6.027 3.056-12.824 4.801-20.018 4.854v62.201c17.132-.109 34.243-3.516 50.358-10.217 1.926-.801 2.729-3.101 1.735-4.935z"/></g></g><g fill="#0e365c"><path d="m472.532 482.511h-218.98v30h218.98c8.284 0 15-6.716 15-15s-6.716-15-15-15z"/><path d="m472.532 0h-218.98v30h218.98c8.284 0 15-6.716 15-15s-6.716-15-15-15z"/></g></g></svg>