<svg id="Layer_1" enable-background="new 0 0 512.008 512.008" height="512" viewBox="0 0 512.008 512.008" width="512" xmlns="http://www.w3.org/2000/svg"><g><g><path d="m373.634 164.015c-34.614 61.635-64.875 139.588-69.865 186.02l-2.652 57.306c-1.098 65.306 16.792 89.668 16.792 89.668h-124.664s18.356-21.587 16.841-87.742l-3.295-60.315c-5.047-46.111-34.611-121.39-69.094-182.792z" fill="#fff000"/></g><path d="m303.769 350.035c4.99-46.433 35.252-124.385 69.865-186.02l-119.191 1.084v331.91h63.466s-17.89-24.361-16.792-89.668z" fill="#ffc400"/><path d="m302.805 372.77h-94.645l2.004 36.689c1.434 62.628-14.937 85.309-16.687 87.55h124.377c-1.626-2.375-17.701-27.466-16.658-89.476z" fill="#ffc400"/><g><path d="m254.968 336.059c-8.284 0-15-6.716-15-15v-123.008c0-8.284 6.716-15 15-15s15 6.716 15 15v123.008c0 8.284-6.716 15-15 15z" fill="#ffc400"/></g><path d="" style="fill:none;stroke:#000;stroke-width:30;stroke-linecap:round;stroke-linejoin:round;stroke-miterlimit:10"/><ellipse cx="404.744" cy="256.338" fill="#f03800" rx="15" ry="14.991"/><ellipse cx="464.436" cy="358.266" fill="#ff641a" rx="15" ry="14.991"/><ellipse cx="107.382" cy="256.338" fill="#ff641a" rx="15" ry="14.991"/><g fill="#ff9f00"><ellipse cx="47.69" cy="358.266" rx="15" ry="14.991"/><path d="m254.968 183.051c-.177 0-.349.021-.525.027v152.955c.176.006.348.026.525.026 8.284 0 15-6.716 15-15v-123.008c0-8.284-6.716-15-15-15z"/><path d="m460.947 98.678c-2.222 0-4.409.152-6.554.446-6.713.921-13.154-3.168-15.186-9.957-10.363-34.632-41.153-59.754-77.538-59.754-9.157 0-17.955 1.6-26.166 4.538-4.995 1.787-10.524.318-14.223-3.638-17.486-18.707-41.831-30.313-68.759-30.313-27.012 0-51.429 11.676-68.928 30.486-3.431 3.688-8.499 5.104-13.255 3.839-6.397-1.702-13.097-2.607-19.998-2.607-36.385 0-67.175 25.121-77.538 59.754-2.031 6.789-8.473 10.878-15.186 9.957-2.145-.294-4.333-.446-6.554-.446-27.896 0-50.51 23.759-50.51 53.067s22.614 53.067 50.51 53.067c14.426 0 27.435-6.357 36.636-16.549 4.647-5.147 12.118-6.201 17.742-2.275 12.864 8.98 28.298 14.215 44.9 14.215 15.284 0 29.581-4.433 41.793-12.141 4.3-2.714 9.616-2.877 14.011-.337 13.759 7.952 29.564 12.478 46.377 12.478 18.748 0 36.242-5.628 51.044-15.36 4.518-2.971 10.276-3.089 14.782-.097 12.54 8.325 27.391 13.153 43.322 13.153 16.602 0 32.036-5.236 44.9-14.215 5.624-3.926 13.094-2.872 17.742 2.275 9.202 10.191 22.21 16.548 36.636 16.548 27.896 0 50.51-23.759 50.51-53.067-.001-29.308-22.615-53.067-50.51-53.067z"/></g><path d="m460.946 98.652c-2.222 0-4.409.152-6.554.446-6.713.921-13.154-3.168-15.186-9.957-10.363-34.632-41.153-59.754-77.538-59.754-9.157 0-17.955 1.6-26.166 4.538-4.995 1.787-10.524.318-14.223-3.638-17.068-18.26-40.673-29.749-66.836-30.287v202.446c18.02-.372 34.828-5.926 49.121-15.324 4.518-2.971 10.276-3.089 14.782-.097 12.54 8.325 27.391 13.153 43.322 13.153 16.602 0 32.036-5.236 44.9-14.215 5.624-3.926 13.094-2.872 17.742 2.275 9.202 10.191 22.21 16.548 36.636 16.548 27.896 0 50.51-23.759 50.51-53.067s-22.614-53.067-50.51-53.067z" fill="#ff641a"/><path d="m302.805 372.77h-48.283v124.239h63.332c-1.626-2.376-17.701-27.467-16.658-89.476z" fill="#ff9f00"/><g><path d="m358.619 512.008h-205.23c-8.284 0-15-6.716-15-15s6.716-15 15-15h205.229c8.284 0 15 6.716 15 15s-6.715 15-14.999 15z" fill="#ff8856"/></g><path d="m328.862 336.719c-4.186 0-8.204.718-11.938 2.037-6.293 2.223-13.282.155-17.675-4.869-10.79-12.343-26.655-20.141-44.343-20.141-17.525 0-33.252 7.66-44.032 19.807-4.258 4.798-10.952 6.682-17.077 4.776-3.365-1.047-6.941-1.611-10.651-1.611-19.816 0-35.88 16.055-35.88 35.859 0 19.805 16.064 35.859 35.88 35.859 3.71 0 7.287-.565 10.651-1.611 6.125-1.905 12.819-.022 17.077 4.776 10.78 12.148 26.507 19.808 44.032 19.808 17.688 0 33.553-7.798 44.343-20.141 4.392-5.025 11.382-7.092 17.675-4.869 3.734 1.319 7.751 2.037 11.938 2.037 19.816 0 35.88-16.055 35.88-35.859s-16.064-35.858-35.88-35.858z" fill="#ff641a"/><path d="m328.862 336.719c-4.186 0-8.204.719-11.938 2.037-6.293 2.223-13.282.155-17.675-4.869-10.79-12.343-26.655-20.141-44.343-20.141-.155 0-.308.011-.463.013v117.638c.155.001.308.013.463.013 17.688 0 33.553-7.798 44.343-20.141 4.392-5.025 11.382-7.092 17.675-4.869 3.734 1.319 7.751 2.037 11.938 2.037 19.816 0 35.88-16.055 35.88-35.859s-16.064-35.859-35.88-35.859z" fill="#f03800"/><path d="m358.619 482.008h-104.176v30h104.176c8.284 0 15-6.716 15-15s-6.716-15-15-15z" fill="#ff641a"/></g></svg>