<svg id="Layer_1" enable-background="new 0 0 512 512" height="512" viewBox="0 0 512 512" width="512" xmlns="http://www.w3.org/2000/svg"><g><path d="m350.054 104.554v-9.858c0-52.299-42.396-94.696-94.696-94.696-52.299 0-94.696 42.397-94.696 94.696v9.858c0 10.17-8.244 18.414-18.414 18.414h-7.397c-26.177 0-47.397 21.22-47.397 47.397v148.235c0 7.564 6.132 13.697 13.697 13.697h50.386v166.007c0 7.564 6.132 13.697 13.697 13.697h43.49c7.564 0 13.697-6.132 13.697-13.697v-125.849c0-18.546 15.034-33.58 33.58-33.58 18.546 0 33.58 15.034 33.58 33.58v125.848c0 7.564 6.132 13.697 13.697 13.697h43.49c7.564 0 13.697-6.132 13.697-13.697v-166.007h50.386c7.564 0 13.697-6.132 13.697-13.697v-148.234c0-26.177-21.22-47.397-47.397-47.397h-8.681c-10.171 0-18.416-8.244-18.416-18.414z" fill="#dbf5ff"/><path d="m377.15 122.958h-8.681c-10.17 0-18.414-8.244-18.414-18.414v-9.858c0-52.039-41.978-94.267-93.918-94.686v338.869c18.483.074 33.444 15.077 33.444 33.577v125.848c0 7.564 6.132 13.697 13.697 13.697h43.49c7.565 0 13.697-6.132 13.697-13.697v-166.008h50.386c7.565 0 13.697-6.132 13.697-13.697v-148.234c-.001-26.176-21.222-47.397-47.398-47.397z" fill="#b3ddff"/><g><path d="m256 268.134c-8.807 0-15.946-7.139-15.946-15.946v-130.936c0-8.807 7.139-15.946 15.946-15.946s15.946 7.139 15.946 15.946v130.936c0 8.807-7.139 15.946-15.946 15.946z" fill="#59a7ff"/></g><path d="m101.15 332.296h50.386v-211.861c-2.729 1.6-5.896 2.533-9.288 2.533h-7.398c-26.177 0-47.397 21.22-47.397 47.397v148.235c0 7.564 6.133 13.696 13.697 13.696z" fill="#b3ddff"/><path d="m377.15 122.627h-8.681c-2.873 0-5.581-.677-8.004-1.85v211.178h50.386c7.564 0 13.697-6.132 13.697-13.697v-148.234c-.001-26.177-21.222-47.397-47.398-47.397z" fill="#59a7ff"/><path d="m256.137 105.32v162.814c8.743-.074 15.81-7.179 15.81-15.939v-130.936c-.001-8.76-7.067-15.865-15.81-15.939z" fill="#0082ff"/><path d="m87.453 271.329v47.27c0 7.564 6.132 13.697 13.697 13.697h50.386v-60.967z" fill="#59a7ff"/><path d="m360.464 271.329v60.626h50.386c7.564 0 13.697-6.132 13.697-13.697v-46.929z" fill="#0082ff"/><path d="m289.58 438.66v59.633c0 7.564 6.132 13.697 13.697 13.697h43.49c7.564 0 13.697-6.132 13.697-13.697v-59.633z" fill="#59a7ff"/><path d="m151.536 438.66v59.633c0 7.564 6.132 13.697 13.697 13.697h43.49c7.564 0 13.697-6.132 13.697-13.697v-59.633z" fill="#b3ddff"/><path d="m289.646 133.351h-67.292c-6.285 0-11.381-5.095-11.381-11.381v-36.317c0-23.392 18.963-42.355 42.355-42.355h5.344c23.392 0 42.355 18.963 42.355 42.355v36.318c0 6.285-5.096 11.38-11.381 11.38z" fill="#0e365c"/><path d="m258.672 43.298h-2.535v90.053h33.509c6.285 0 11.381-5.095 11.381-11.381v-36.317c0-23.392-18.963-42.355-42.355-42.355z" fill="#1b0428"/></g></svg>