<svg id="Layer_1" enable-background="new 0 0 511.542 511.542" height="512" viewBox="0 0 511.542 511.542" width="512" xmlns="http://www.w3.org/2000/svg"><g><g><path d="m15.138 511.478c-3.874 0-7.749-1.479-10.704-4.437-5.912-5.915-5.912-15.506 0-21.421l94.221-94.276c5.911-5.915 15.497-5.915 21.408 0 5.912 5.915 5.912 15.506 0 21.421l-94.221 94.276c-2.955 2.958-6.83 4.437-10.704 4.437z" fill="#eee1dc"/></g><path d="m15.138 511.478c3.874 0 7.749-1.479 10.704-4.437l94.221-94.276c5.912-5.915 5.912-15.506 0-21.421l-115.629 115.697c2.956 2.958 6.83 4.437 10.704 4.437z" fill="#ccbeb9"/><g><path d="m405.399 120.991c-3.874 0-7.749-1.479-10.704-4.437-5.912-5.915-5.912-15.506 0-21.421l43.613-43.639c5.911-5.915 15.497-5.915 21.408 0 5.912 5.915 5.912 15.506 0 21.421l-43.613 43.639c-2.956 2.958-6.83 4.437-10.704 4.437z" fill="#b3ddff"/></g><path d="m405.399 120.991c3.874 0 7.749-1.479 10.704-4.437l43.613-43.639c5.912-5.915 5.912-15.506 0-21.421l-65.022 65.059c2.956 2.959 6.83 4.438 10.705 4.438z" fill="#59a7ff"/><path d="m181.791 430.479-69.807-16.144c-7.117-1.646-12.685-7.191-14.363-14.305l-16.608-70.403c-1.529-6.48.405-13.29 5.11-17.998l253.478-253.623c7.498-7.502 19.655-7.502 27.153 0l86.456 86.506c7.498 7.502 7.498 19.666 0 27.169l-253.519 253.665c-4.682 4.685-11.448 6.625-17.9 5.133z" fill="#dbf5ff"/><g><path d="m496.404 124.772c-3.874 0-7.749-1.479-10.704-4.437l-94.359-94.414c-5.912-5.915-5.912-15.506 0-21.421 5.911-5.915 15.497-5.915 21.408 0l94.359 94.414c5.912 5.915 5.912 15.506 0 21.421-2.956 2.958-6.83 4.437-10.704 4.437z" fill="#59a7ff"/></g><path d="m507.108 98.914-47.392-47.419-21.408 21.421 47.392 47.419c2.956 2.957 6.83 4.437 10.704 4.437s7.749-1.479 10.704-4.437c5.913-5.915 5.913-15.506 0-21.421z" fill="#0082ff"/><path d="m453.209 144.512-43.228-43.253-307.498 307.676c2.533 2.632 5.804 4.545 9.501 5.4l69.807 16.144c6.452 1.492 13.218-.448 17.9-5.133l253.518-253.665c7.498-7.503 7.498-19.666 0-27.169z" fill="#b3ddff"/><path d="m269.749 127.899-183.625 183.731c-4.705 4.708-6.639 11.518-5.11 17.998l16.608 70.403c1.678 7.114 7.245 12.659 14.363 14.305l69.807 16.144c6.452 1.492 13.217-.448 17.9-5.133l183.666-183.773z" fill="#ffbca7"/><path d="m326.553 184.736-224.07 224.199c2.533 2.632 5.804 4.545 9.501 5.4l69.807 16.144c6.452 1.492 13.218-.448 17.9-5.133l183.666-183.772z" fill="#ff8f7a"/><g fill="#fc7964"><path d="m241.708 209.713c2.956 2.958 6.83 4.437 10.705 4.437s7.749-1.479 10.704-4.437c5.912-5.915 5.912-15.506 0-21.421l-26.863-26.879-21.409 21.421z"/><path d="m142.722 308.757c2.956 2.958 6.83 4.437 10.705 4.437 3.874 0 7.749-1.479 10.704-4.437 5.912-5.915 5.912-15.506 0-21.421l-26.863-26.879-21.409 21.421z"/><path d="m204.263 271.288c2.956 2.957 6.83 4.437 10.704 4.437s7.749-1.479 10.704-4.437c5.912-5.915 5.912-15.506 0-21.421l-38.911-38.933-21.408 21.421z"/></g><g><path d="m412.193 285.573c-3.874 0-7.749-1.479-10.704-4.437l-171.281-171.38c-5.912-5.915-5.912-15.506 0-21.421 5.911-5.914 15.497-5.915 21.409 0l171.28 171.381c5.912 5.915 5.912 15.506 0 21.421-2.955 2.957-6.83 4.436-10.704 4.436z" fill="#b3ddff"/></g><path d="m422.898 259.716-85.641-85.691-21.409 21.421 85.641 85.69c2.956 2.957 6.83 4.437 10.704 4.437s7.749-1.479 10.704-4.437c5.913-5.914 5.913-15.505.001-21.42z" fill="#59a7ff"/></g></svg>