<svg id="Layer_1" enable-background="new 0 0 512.013 512.013" height="512" viewBox="0 0 512.013 512.013" width="512" xmlns="http://www.w3.org/2000/svg"><g><path d="m471.304 49.604h-408.282c-15.823 0-28.65 12.827-28.65 28.65v416.649c0 9.322 7.557 16.88 16.88 16.88h345.103c9.322 0 16.88-7.557 16.88-16.88v-343.813c0-8.833 3.04-17.397 8.61-24.252l54.368-66.921c3.358-4.134.417-10.313-4.909-10.313z" fill="#dbf5ff"/><path d="m413.235 494.903v-343.813c0-8.833 3.04-17.397 8.61-24.252l54.368-66.921c3.358-4.133.417-10.313-4.909-10.313h-247.5v462.179h172.552c9.321 0 16.879-7.558 16.879-16.88z" fill="#b3ddff"/><path d="m413.235 495.133v-165.528l-27.995-9.789c-16.068-5.618-32.336-10.642-48.73-15.224-4.901-1.37-9.676-3.268-14.681-4.188-105.945-19.481-139.445 33.278-198.015 47.359-25.796 6.201-52.234 9.335-78.765 9.335h-10.677v138.035c0 9.323 7.557 16.88 16.88 16.88h345.103c9.323 0 16.88-7.558 16.88-16.88z" fill="#ff5ca8"/><g fill="#59a7ff"><path d="m84.984 120.564h-50.612v30.892h50.612c8.53 0 15.446-6.915 15.446-15.446s-6.915-15.446-15.446-15.446z"/><path d="m84.984 192.906h-50.612v30.892h50.612c8.53 0 15.446-6.915 15.446-15.446s-6.915-15.446-15.446-15.446z"/><path d="m84.984 339.649h-50.612v17.449l23.372 3.231c8.53 0 42.686 3.296 42.686-5.234s-6.915-15.446-15.446-15.446z"/></g><path d="m84.984 409.932h-50.612v30.892h50.612c8.53 0 15.446-6.915 15.446-15.446s-6.915-15.446-15.446-15.446z" fill="#cc2995"/><path d="m103.519 265.247h-69.147v30.892h69.147c8.53 0 15.446-6.915 15.446-15.446s-6.915-15.446-15.446-15.446z" fill="#59a7ff"/><circle cx="191.443" cy="392.474" fill="#ffb3e5" r="15.446"/><circle cx="144.671" cy="451.391" fill="#ffb3e5" r="15.446"/><path d="m336.51 304.591c-4.901-1.37-9.676-3.268-14.681-4.188-42.062-7.734-72.699-4.077-98.026 4.021v207.357h175.215c8.054-1.28 14.216-8.236 14.216-16.65v-165.527l-27.995-9.789c-16.068-5.619-32.335-10.642-48.729-15.224z" fill="#ff1786"/><path d="m84.984 370.54c8.53 0 15.446-6.916 15.446-15.446 0-.869-.089-1.716-.227-2.546-18.216 3.022-36.662 4.549-55.154 4.549h-10.677v13.442h50.612z" fill="#cc2995"/><g><path d="m312.334 383.837c-.662 0-1.329-.043-2.003-.13-8.46-1.096-14.43-8.842-13.334-17.302l45.72-352.944c1.096-8.46 8.842-14.418 17.302-13.334 8.46 1.096 14.43 8.842 13.334 17.302l-45.72 352.944c-1.009 7.786-7.652 13.464-15.299 13.464z" fill="#ccbeb9"/></g><path d="m338.034 49.604-41.038 316.801c-1.096 8.46 4.874 16.206 13.334 17.302.674.087 1.342.13 2.003.13 7.647 0 14.29-5.677 15.299-13.464l41.552-320.769z" fill="#59a7ff"/><path d="m310.33 383.707c.674.087 1.341.13 2.003.13 7.647 0 14.29-5.677 15.299-13.464l8.534-65.882c-4.781-1.361-9.45-3.189-14.338-4.088-5.515-1.014-10.828-1.828-15.963-2.466l-8.869 68.467c-1.096 8.461 4.874 16.207 13.334 17.303z" fill="#991f70"/><circle cx="308.879" cy="394.674" fill="#991f70" r="49.17"/></g></svg>