<svg id="Layer_1" enable-background="new 0 0 512.398 512.398" height="512" viewBox="0 0 512.398 512.398" width="512" xmlns="http://www.w3.org/2000/svg"><g><g><path d="m256.232 512.398c-8.284 0-15-6.716-15-15v-482.363c0-8.284 6.716-15 15-15s15 6.716 15 15v482.363c0 8.285-6.715 15-15 15z" fill="#0e365c"/></g><g><path d="m497.206 271h-482.04c-8.284 0-15-6.716-15-15s6.716-15 15-15h482.04c8.284 0 15 6.716 15 15s-6.716 15-15 15z" fill="#59a7ff"/></g><g><path d="m289.808 173.834h-67.151c-8.284 0-15-6.716-15-15s6.716-15 15-15h67.151c8.284 0 15 6.716 15 15s-6.716 15-15 15z" fill="#1f5c99"/></g><g><path d="m289.808 75.847h-67.151c-8.284 0-15-6.716-15-15s6.716-15 15-15h67.151c8.284 0 15 6.716 15 15s-6.716 15-15 15z" fill="#1f5c99"/></g><g><path d="m289.808 462.128h-67.151c-8.284 0-15-6.716-15-15s6.716-15 15-15h67.151c8.284 0 15 6.716 15 15s-6.716 15-15 15z" fill="#1f5c99"/></g><g><path d="m289.808 364.141h-67.151c-8.284 0-15-6.716-15-15s6.716-15 15-15h67.151c8.284 0 15 6.716 15 15s-6.716 15-15 15z" fill="#1f5c99"/></g><g><path d="m161.93 304.575c-8.284 0-15-6.716-15-15v-67.151c0-8.284 6.716-15 15-15s15 6.716 15 15v67.151c0 8.284-6.716 15-15 15z" fill="#a4ceff"/></g><g><path d="m63.942 304.575c-8.284 0-15-6.716-15-15v-67.151c0-8.284 6.716-15 15-15s15 6.716 15 15v67.151c0 8.284-6.715 15-15 15z" fill="#a4ceff"/></g><g><path d="m134.969 512.252c-8.284 0-15-6.716-15-15 0-57.788-47.015-104.802-104.803-104.802-8.284 0-15-6.716-15-15s6.716-15 15-15c74.33 0 134.803 60.472 134.803 134.802 0 8.284-6.716 15-15 15z" fill="#fa184b"/></g><g><g><path d="m497.232 149.802c-74.33 0-134.802-60.472-134.802-134.802 0-8.284 6.716-15 15-15s15 6.716 15 15c0 57.788 47.015 104.802 104.803 104.802 8.284 0 15 6.716 15 15s-6.716 15-15.001 15z" fill="#00ddc1"/></g></g><path d="m256.232.035c-.016 0-.031.002-.046.002v512.359c.016 0 .031.002.046.002 8.284 0 15-6.716 15-15v-482.363c0-8.284-6.715-15-15-15z" fill="#1b0428"/><path d="m289.808 45.847h-33.622v30h33.622c8.284 0 15-6.716 15-15s-6.716-15-15-15z" fill="#0e365c"/><path d="m497.206 241h-241.02v30h241.02c8.284 0 15-6.716 15-15s-6.716-15-15-15z" fill="#0082ff"/><g fill="#0e365c"><path d="m289.808 143.834h-33.622v30h33.622c8.284 0 15-6.716 15-15s-6.716-15-15-15z"/><path d="m289.808 432.128h-33.622v30h33.622c8.284 0 15-6.716 15-15s-6.716-15-15-15z"/><path d="m289.808 334.141h-33.622v30h33.622c8.284 0 15-6.716 15-15s-6.716-15-15-15z"/></g><g><path d="m448.896 304.575c-8.284 0-15-6.716-15-15v-67.151c0-8.284 6.716-15 15-15s15 6.716 15 15v67.151c0 8.284-6.715 15-15 15z" fill="#59a7ff"/></g><g><path d="m350.91 304.575c-8.284 0-15-6.716-15-15v-67.151c0-8.284 6.716-15 15-15s15 6.716 15 15v67.151c0 8.284-6.716 15-15 15z" fill="#59a7ff"/></g></g></svg>