<svg id="Layer_1" enable-background="new 0 0 512 512" height="512" viewBox="0 0 512 512" width="512" xmlns="http://www.w3.org/2000/svg"><g><path d="m157.118 179.928s-26.967-59.383-15.013-90.901c.332-.875.675-1.753 1.03-2.631 14.62-36.254 47.025-68.526 85.238-76.251 2.973-.601 5.996-.917 9.025-1.07l71.546-3.635c19.446-2.79 38.266 7.927 45.915 26.021 6.508 15.393 12.785 34.118 13.297 49.959 1.087 33.691-12.87 98.65-12.87 98.65z" fill="#ff641a"/><path d="m354.857 31.461c-7.65-18.093-26.471-28.811-45.915-26.021l-54.307 2.8v171.757l100.649.072s13.956-64.959 12.87-98.65c-.51-15.839-6.788-34.564-13.297-49.958z" fill="#f03800"/><path d="m211.961 310.418-9.851 42.594c-.379 1.636-.858 3.25-1.47 4.814-5.769 14.738-17.923 26.14-33.125 30.911l-82.967 18.095c-17.921 5.623-31.464 20.403-35.505 38.745l-11.79 53.51c-1.154 5.241 2.835 10.205 8.201 10.205h421.043c5.437 0 9.441-5.088 8.162-10.372l-13.936-57.601c-4.498-18.591-18.762-33.258-37.221-38.271l-83.548-15.205c-16.563-4.498-29.877-16.818-35.643-32.983l-13.773-38.606z" fill="#ffbf80"/><path d="m460.725 441.319c-4.498-18.591-18.762-33.258-37.221-38.271l-83.548-15.205c-5.324-1.446-10.312-3.699-14.822-6.63-11.936-7.754-19.82-20.408-22.185-34.444l-8.181-48.572-40.132 17.181v193.914h211.863c5.437 0 9.441-5.088 8.162-10.372z" fill="#ffa64d"/><path d="m474.66 498.92-13.936-57.601c-4.498-18.591-18.762-33.258-37.221-38.271l-83.548-15.206c-6.223-1.689-11.987-4.485-17.064-8.172l-.002.001 4.096 55.632-140.695 6.566-.171-63.504-.008-.006c-5.353 4.63-11.653 8.199-18.594 10.377l-82.967 18.095c-17.921 5.623-31.464 20.403-35.505 38.745l-11.791 53.512c-1.154 5.241 2.835 10.205 8.201 10.205h421.043c5.437 0 9.441-5.088 8.162-10.373z" fill="#eee1dc"/><path d="m460.725 441.319c-4.498-18.591-18.762-33.258-37.221-38.271l-83.548-15.206c-6.223-1.689-11.987-4.485-17.064-8.172l-.002.001 4.096 55.632-72.348 3.376v70.612h211.862c5.437 0 9.441-5.088 8.162-10.372z" fill="#ccbeb9"/><path d="m167.227 243.937h-23.76c-20.817 0-37.693-16.876-37.693-37.692s16.875-37.692 37.693-37.692l12.415.055h30.476z" fill="#ffbf80"/><path d="m340.073 243.937h29.217c20.817 0 37.692-16.876 37.692-37.692s-16.875-37.692-39.171-37.692h-16.741-39.644z" fill="#ffa64d"/><path d="m306.438 415.668h-103.23l-11.025 93.625h125.811z" fill="#dbf5ff"/><path d="m254.636 509.293h63.358l-11.556-93.625h-51.802z" fill="#b3ddff"/><path d="m158.254 499.428 10.799-24.66c1.264-2.885.225-6.259-2.442-7.935l-36.636-23.018c-3.89-2.444-4.436-7.901-1.104-11.066l57.246-54.383 59.921 130.926h-81.335c-5.078.001-8.486-5.212-6.449-9.864z" fill="#fff4f4"/><path d="m350.153 496.464-9.027-20.615c-1.536-3.506-.273-7.608 2.968-9.645l33.148-20.827c5.116-3.214 5.771-10.415 1.319-14.499l-55.67-51.207-59.225 129.622h78.099c6.605 0 11.036-6.779 8.388-12.829z" fill="#eee1dc"/><path d="m350.539 224.129v-92.124h-21.097l-39.859-26.636c-21.744-14.531-50.103-14.522-71.839.022l-39.851 26.666h-21.171v92.284-22.235 20.731c0 56.962 43.387 103.138 96.907 103.138s96.907-46.176 96.907-103.138v-24.257-12.988" fill="#ffd9b3"/><path d="m289.585 105.369c-10.881-7.271-22.413-10.902-34.948-10.893v231.497c53.521 0 95.904-46.176 95.904-103.138v-90.831h-21.097z" fill="#ffbf80"/><path d="m158.486 158.923v71.168l57.726 12.513c9.975 2.163 19.655-4.705 20.911-14.835l.013-.107c1.095-8.832 8.599-15.462 17.498-15.462 8.894 0 16.395 6.624 17.496 15.45 1.26 10.096 10.89 16.952 20.842 14.835l59.294-12.606v-71.009c0-11.665-9.459-21.119-21.123-21.115l-151.548.051c-11.66.006-21.109 9.458-21.109 21.117z" fill="#fff5f5"/><path d="m219.863 257.97c-2.279 0-4.566-.24-6.824-.729l-57.727-12.514c-6.888-1.492-11.804-7.588-11.804-14.635v-71.168c0-19.894 16.185-36.085 36.079-36.092l151.548-.051h.012c9.638 0 18.699 3.752 25.516 10.567 6.82 6.817 10.575 15.882 10.575 25.525v71.008c0 7.07-4.945 13.178-11.862 14.648l-59.294 12.606c-8.834 1.878-18.121-.047-25.479-5.286-7.358-5.238-12.219-13.382-13.337-22.344-.166-1.326-1.299-2.327-2.636-2.327-1.338 0-2.471 1.001-2.636 2.329l-.011.089c-1.117 9.01-5.994 17.174-13.385 22.416-5.501 3.904-12.077 5.958-18.735 5.958zm-46.402-39.955 45.922 9.954c.849.184 1.495-.109 1.888-.387.392-.278.881-.791.989-1.655l.011-.089c2.024-16.321 15.935-28.614 32.362-28.614 16.414 0 30.325 12.283 32.357 28.571.107.861.594 1.374.985 1.651.39.278 1.033.571 1.882.391l47.432-10.085v-58.881c0-2.213-1.127-3.671-1.799-4.342-.672-.672-2.128-1.798-4.341-1.798-.001 0-.001 0-.002 0l-151.548.051c-3.384.001-6.138 2.755-6.138 6.14z" fill="#59a7ff"/><path d="m331.142 137.889-76.507.026v74.418c8.893.001 16.393 6.625 17.494 15.45 1.26 10.096 10.89 16.952 20.842 14.835l59.294-12.606v-71.009c0-11.663-9.459-21.117-21.123-21.114z" fill="#eee1dc"/><path d="m331.15 122.779h-.012l-76.502.027v29.952l76.511-.027h.002c2.212 0 3.669 1.127 4.341 1.798s1.799 2.128 1.799 4.342v58.881l-47.432 10.085c-.849.179-1.491-.113-1.882-.391-.39-.277-.877-.789-.985-1.651-2.032-16.287-15.941-28.57-32.355-28.571v29.952c1.336.001 2.468 1.001 2.633 2.327 1.118 8.962 5.979 17.107 13.337 22.343 7.358 5.239 16.645 7.164 25.479 5.286l59.294-12.606c6.917-1.471 11.862-7.578 11.862-14.648v-71.009c0-9.643-3.755-18.708-10.575-25.525-6.816-6.814-15.877-10.565-25.515-10.565z" fill="#0082ff"/></g></svg>