<svg id="Layer_1" enable-background="new 0 0 512 512" height="512" viewBox="0 0 512 512" width="512" xmlns="http://www.w3.org/2000/svg"><g><g><path d="m93.347 421.042v-253.406c0-89.821 72.815-162.636 162.637-162.636s162.636 72.815 162.636 162.636v252.042z" fill="#0e365c"/><path d="m256.092 5.684v415.359l162.529-.682v-252.042c0-89.786-72.757-162.577-162.529-162.635z" fill="#1b0428"/><path d="m216.461 302.782-10.958 52.507c-.354 1.694-.831 3.363-1.475 4.969-5.75 14.333-18.457 25.418-33.256 30.062l-56.257 17.655c-17.484 5.487-30.699 19.907-34.641 37.802l-11.504 52.21c-1.126 5.113 2.766 9.957 8.002 9.957h359.224c5.304 0 9.211-4.965 7.963-10.12l-13.597-56.2c-4.388-18.138-18.306-32.449-36.316-37.34l-54.63-14.835c-16.161-4.389-29.149-16.408-34.776-32.181l-13.438-37.668z" fill="#ffbf80"/><path d="m429.963 441.623c-4.388-18.138-18.306-32.449-36.316-37.34l-54.63-14.835c-.577-.157-1.15-.323-1.72-.5-17.892-5.536-31.007-20.896-34.504-39.294l-8.289-43.602-38.411 12.703v189.189h179.504c5.304 0 9.211-4.965 7.963-10.12z" fill="#ffa64d"/><path d="m357.445 70.235v147.989c0 59.574-45.377 107.869-101.352 107.869s-101.353-48.294-101.353-107.869v-147.715z" fill="#ffd9b3"/><path d="m256.092 326.093c55.975 0 101.353-48.294 101.353-107.869v-147.989l-101.353.137z" fill="#ffbf80"/><path d="m256.049 5-115.085 65.235 13.776 96.536 87.596-74.253c7.916-6.711 19.521-6.722 27.45-.028l87.66 74.006 11.239-96.262z" fill="#0e365c"/><path d="m256.092 87.753c4.869.004 9.738 1.672 13.692 5.012l87.66 74.006 11.239-96.262-112.591-65.21z" fill="#1b0428"/></g><path d="m443.56 497.823-13.597-56.2c-4.496-18.586-16.487-32.763-37.769-37.734l-50.761-13.785c-6.221-1.689-13.507-4.75-18.583-8.436l5.605 52.307-140.657 6.564.934-59.845-1.093.841c-4.283 2.978-11.383 7.065-18.324 9.243l-54.8 17.197c-17.916 5.623-30.313 18.043-34.353 36.379l-11.786 53.496c-1.154 5.239 2.834 10.202 8.199 10.202l359.339-.109c5.433 0 8.924-4.837 7.646-10.12z" fill="#eee1dc"/><path d="m429.963 441.678c-4.496-18.586-16.487-32.763-37.769-37.734l-50.761-13.785c-6.221-1.69-13.507-4.75-18.583-8.436l5.605 52.307-71.876 3.354v70.669l179.334-.054c5.436 0 8.925-4.837 7.647-10.12z" fill="#ccbeb9"/><path d="m307.914 414.343h-103.201l-11.022 93.6h125.776z" fill="#dbf5ff"/><path d="m256.127 507.943h63.34l-11.553-93.6h-51.787z" fill="#b3ddff"/><path d="m159.771 498.081 10.796-24.653c1.263-2.884.225-6.257-2.441-7.933l-36.626-23.011c-3.89-2.444-4.434-7.899-1.104-11.063l58.736-51.077 58.397 127.599h-81.312c-5.075 0-8.483-5.212-6.446-9.862z" fill="#fff4f4"/><path d="m351.616 495.118-9.024-20.609c-1.535-3.505-.273-7.606 2.967-9.642l33.139-20.822c5.114-3.213 5.77-10.412 1.318-14.495l-57.168-47.882-57.695 126.275h78.077c6.604 0 11.035-6.778 8.386-12.825z" fill="#eee1dc"/><g><path d="m159.969 158.804v71.149l57.71 12.51c9.972 2.162 19.65-4.703 20.906-14.83l.013-.107c1.095-8.829 8.597-15.458 17.493-15.458 8.891 0 16.39 6.622 17.491 15.445 1.259 10.094 10.887 16.947 20.837 14.831l59.277-12.602v-70.989c0-11.661-9.456-21.113-21.117-21.109l-151.506.051c-11.658.003-21.104 9.454-21.104 21.109z" fill="#fff5f5"/><path d="m221.33 257.824c-2.278 0-4.564-.24-6.822-.729l-57.711-12.511c-6.886-1.492-11.8-7.586-11.8-14.631v-71.148c0-19.889 16.18-36.075 36.069-36.082l151.506-.051h.012c9.635 0 18.694 3.75 25.509 10.564 6.818 6.815 10.572 15.878 10.572 25.518v70.988c0 7.068-4.945 13.174-11.858 14.644l-59.277 12.602c-8.831 1.877-18.116-.047-25.472-5.285-7.356-5.236-12.216-13.378-13.334-22.338-.166-1.325-1.299-2.327-2.635-2.327-1.337 0-2.47 1.001-2.635 2.329l-.011.089c-1.116 9.008-5.992 17.169-13.381 22.41-5.503 3.904-12.077 5.958-18.732 5.958zm-46.39-39.945 45.909 9.952c.848.184 1.495-.109 1.887-.387s.881-.79.988-1.654l.011-.089c2.022-16.316 15.93-28.606 32.353-28.606 16.41 0 30.316 12.279 32.348 28.563.107.861.594 1.374.984 1.651.39.278 1.033.571 1.881.391l47.419-10.082v-58.865c0-2.212-1.126-3.67-1.798-4.341-.672-.672-2.128-1.797-4.34-1.797-.001 0-.001 0-.003 0l-151.506.051c-3.383.001-6.136 2.754-6.136 6.138v59.075z" fill="#59a7ff"/><path d="m332.578 137.776-76.486.026v74.398c8.89.001 16.388 6.623 17.489 15.445 1.259 10.094 10.887 16.947 20.837 14.831l59.277-12.602v-70.989c0-11.661-9.456-21.113-21.117-21.109z" fill="#eee1dc"/><path d="m332.585 122.671h-.012l-76.481.027v29.944l76.49-.027h.002c2.211 0 3.668 1.126 4.34 1.797s1.798 2.128 1.798 4.341v58.865l-47.419 10.082c-.848.179-1.491-.113-1.881-.391-.39-.277-.877-.788-.984-1.651-2.032-16.283-15.937-28.562-32.346-28.563v29.944c1.335.001 2.467 1.001 2.632 2.327 1.117 8.959 5.978 17.102 13.334 22.337 7.356 5.237 16.641 7.162 25.472 5.285l59.277-12.602c6.915-1.47 11.858-7.576 11.858-14.644v-70.989c0-9.64-3.754-18.703-10.572-25.518-6.814-6.814-15.872-10.564-25.508-10.564z" fill="#0082ff"/></g></g></svg>