<svg id="Layer_1" enable-background="new 0 0 512 512" height="512" viewBox="0 0 512 512" width="512" xmlns="http://www.w3.org/2000/svg"><g><g><path d="m430.833 100.495 13.154-47.995h-382.987v419.245c0 22.232 18.023 40.255 40.256 40.255h332.361c9.6 0 17.383-7.783 17.383-17.383v-389.617z" fill="#ffe986"/><path d="m434.258 512h-148.305v-414.5h165.047v397.117c0 9.247-7.496 17.383-16.742 17.383z" fill="#ffdc00"/><path d="m136 57.451h-75v414.293c0 22.233 18.023 40.256 40.256 40.256h34.744z" fill="#ffc400"/><path d="m113.5 97.5c-20.711 0-37.5-20.147-37.5-45s16.789-45 37.5-45h316.963c11.342 0 20.537 9.195 20.537 20.537v69.463z" fill="#dbf5ff"/><path d="m451 85.2-165-10.2-.047-59.708 165.047 3.915z" fill="#b3ddff"/><path d="m91.016 53.368c.461 12.176 10.852 21.632 23.036 21.632h336.948v30h-336.619c-28.748 0-52.826-22.743-53.371-51.486-.558-29.411 23.204-53.514 52.49-53.514h310.066c15.151 0 27.434 12.283 27.434 27.434v2.566h-337.5c-12.695 0-22.967 10.567-22.484 23.368z" fill="#ffdc00"/><g fill="#ffc400"><path d="m286 30h165v-10.793c0-10.608-8.599-19.207-19.207-19.207h-145.793z"/><path d="m286 75h165v30h-165z"/></g></g><path d="" style="fill:none;stroke:#000;stroke-width:30;stroke-linecap:round;stroke-linejoin:round;stroke-miterlimit:10"/><path d="m372.097 400.556-16.627-28.8 16.591-28.889c2.661-4.635 2.656-10.334-.014-14.964l-16.567-28.733 16.564-28.695c4.142-7.175 1.683-16.349-5.492-20.49s-16.349-1.684-20.49 5.492l-16.561 28.689h-24.574l-12.286-21.281 16.616-28.78c4.143-7.175 1.685-16.349-5.49-20.49-7.175-4.145-16.349-1.685-20.49 5.49l-16.617 28.781h-24.954l-17.778-28.375c-4.398-7.021-13.655-9.145-20.675-4.747-7.021 4.398-9.146 13.654-4.748 20.675l17.407 27.783-16.422 28.445c-2.68 4.641-2.68 10.359 0 15l16.616 28.78-16.617 28.781c-4.142 7.175-1.684 16.349 5.491 20.49 2.363 1.364 4.941 2.013 7.486 2.013 5.184-.001 10.227-2.691 13.004-7.503l16.618-28.784 24.571-.009 12.287 21.291-16.617 28.782c-.655 1.134-1.126 2.32-1.458 3.526-.011.038-.022.077-.032.115-.216.808-.364 1.623-.441 2.441-.022.224-.038.448-.05.673-.008.163-.02.326-.022.489-.008.409.002.818.027 1.226.004.063.01.124.015.187.154 2.076.733 4.129 1.754 6.02l15.638 28.96c2.712 5.023 7.877 7.876 13.212 7.876 2.406 0 4.848-.581 7.113-1.804 7.289-3.937 10.008-13.037 6.071-20.326l-11.657-21.591 12.428-21.525h24.573l16.616 28.781c4.143 7.175 13.316 9.634 20.49 5.49 7.175-4.142 9.634-13.316 5.491-20.49zm-67.14-43.782-12.316-21.341 12.284-21.269h24.572l12.25 21.245-12.27 21.364h-24.52zm-62.871-36.332-12.284-21.277 12.286-21.28h24.573l12.285 21.279-12.285 21.27z" fill="#ffba08"/><g><path d="m364.783 175.017h-159.241c-8.284 0-15-6.716-15-15s6.716-15 15-15h159.241c8.284 0 15 6.716 15 15s-6.716 15-15 15z" fill="#ff8856"/></g><path d="m364.783 145.017h-78.83v30h78.83c8.284 0 15-6.716 15-15s-6.716-15-15-15z" fill="#ff641a"/><path d="m355.47 371.755 16.591-28.889c2.661-4.635 2.656-10.334-.014-14.964l-16.567-28.733 16.564-28.695c4.142-7.175 1.683-16.349-5.492-20.49s-16.349-1.684-20.49 5.492l-16.561 28.689h-24.574l-12.286-21.281 16.616-28.78c4.143-7.175 1.685-16.349-5.49-20.49-5.889-3.402-13.12-2.347-17.814 2.105v235.433c1.605.568 3.303.867 5.019.867 2.406 0 4.848-.581 7.113-1.804 7.289-3.937 10.008-13.037 6.071-20.326l-11.657-21.589 12.428-21.525h24.573l16.616 28.781c4.143 7.175 13.316 9.634 20.49 5.49 7.174-4.142 9.633-13.315 5.49-20.49zm-25.993-14.981h-24.52l-12.316-21.341 12.284-21.269h24.572l12.25 21.245z" fill="#ff9e00"/></g></svg>