<svg id="Layer_1" enable-background="new 0 0 512 512" height="512" viewBox="0 0 512 512" width="512" xmlns="http://www.w3.org/2000/svg"><g><path d="m494.918 512h-84.048l12.539-511.645h73.15c8.528 0 15.44 6.913 15.44 15.44v479.123c.001 9.434-7.647 17.082-17.081 17.082z" fill="#0082ff"/><path d="m364.106 512h-346.775c-9.572 0-17.331-7.759-17.331-17.331v-477.338c0-9.572 7.759-17.331 17.331-17.331h346.775c9.572 0 17.331 7.759 17.331 17.331v477.338c0 9.572-7.759 17.331-17.331 17.331z" fill="#fff5f5"/><path d="m430.696 512h-86.439v-511.645h87.089c8.49 0 15.373 6.883 15.373 15.373v480.249c0 8.849-7.174 16.023-16.023 16.023z" fill="#59a7ff"/><g><path d="m129.987 181.448h-77.32c-8.722 0-15.792-7.07-15.792-15.792v-77.034c0-8.722 7.07-15.792 15.792-15.792h77.32c8.722 0 15.792 7.07 15.792 15.792v77.034c0 8.722-7.07 15.792-15.792 15.792zm-61.527-31.584h45.735v-45.45h-45.735z" fill="#ccbeb9"/></g><g><path d="m128.787 328.129h-77.32c-8.722 0-15.792-7.07-15.792-15.792v-77.034c0-8.722 7.07-15.792 15.792-15.792h77.32c8.722 0 15.792 7.07 15.792 15.792v77.034c0 8.721-7.07 15.792-15.792 15.792zm-61.527-31.585h45.735v-45.45h-45.735z" fill="#ccbeb9"/></g><g><path d="m77.209 455.839c-4.049 0-8.083-1.549-11.149-4.605l-25.738-25.643c-6.179-6.155-6.198-16.154-.041-22.333 6.154-6.18 16.154-6.199 22.333-.041l15.602 15.543 55.698-45.855c6.733-5.545 16.687-4.579 22.229 2.154 5.544 6.734 4.579 16.687-2.154 22.229l-66.745 54.95c-2.929 2.412-6.487 3.601-10.035 3.601z" fill="#00f17e"/></g><path d="m190.719.355h172.231c10.21 0 18.487 8.277 18.487 18.487v474.671c0 10.21-8.277 18.487-18.487 18.487h-172.231z" fill="#eee1dc"/><g><path d="m337.064 104.414h-101.972c-8.722 0-15.792-7.07-15.792-15.792s7.07-15.792 15.792-15.792h101.972c8.722 0 15.792 7.07 15.792 15.792s-7.07 15.792-15.792 15.792z" fill="#0e365c"/></g><g><path d="m337.064 179.497h-101.972c-8.722 0-15.792-7.07-15.792-15.792s7.07-15.792 15.792-15.792h101.972c8.722 0 15.792 7.07 15.792 15.792s-7.07 15.792-15.792 15.792z" fill="#0e365c"/></g><g><path d="m337.064 254.58h-101.972c-8.722 0-15.792-7.07-15.792-15.792s7.07-15.792 15.792-15.792h101.972c8.722 0 15.792 7.07 15.792 15.792s-7.07 15.792-15.792 15.792z" fill="#0e365c"/></g><g><path d="m337.064 328.129h-101.972c-8.722 0-15.792-7.07-15.792-15.792s7.07-15.792 15.792-15.792h101.972c8.722 0 15.792 7.07 15.792 15.792s-7.07 15.792-15.792 15.792z" fill="#0e365c"/></g></g></svg>