<svg id="Layer_1" enable-background="new 0 0 511.334 511.334" height="512" viewBox="0 0 511.334 511.334" width="512" xmlns="http://www.w3.org/2000/svg"><g><path d="m321.572 123.867h170.204c10.802 0 19.559 8.757 19.559 19.559v320.065c0 10.802-8.757 19.559-19.559 19.559h-472.217c-10.802-.001-19.559-8.758-19.559-19.559v-320.066c0-10.802 8.757-19.559 19.559-19.559h172.737" fill="#fff5f5"/><path d="m256.877 123.867v359.183h234.628c10.951 0 19.829-8.878 19.829-19.829v-319.526c0-10.951-8.878-19.829-19.829-19.829h-234.628z" fill="#eee1dc"/><path d="m253.202 28.285h7.35c33.769 0 61.145 27.375 61.145 61.145v78.03c0 8.07-6.542 14.612-14.612 14.612h-100.415c-8.07 0-14.612-6.542-14.612-14.612v-78.03c-.001-33.77 27.375-61.145 61.144-61.145z" fill="#ffc400"/><g><g><path d="m438.397 270.103h-127.718c-8.782 0-15.901-7.119-15.901-15.901s7.119-15.901 15.901-15.901h127.718c8.782 0 15.901 7.119 15.901 15.901.001 8.782-7.119 15.901-15.901 15.901z" fill="#0e365c"/></g><g><path d="m438.397 336.297h-127.718c-8.782 0-15.901-7.119-15.901-15.901s7.119-15.901 15.901-15.901h127.718c8.782 0 15.901 7.119 15.901 15.901.001 8.782-7.119 15.901-15.901 15.901z" fill="#0e365c"/></g><g><path d="m438.397 398.814h-127.718c-8.782 0-15.901-7.119-15.901-15.901s7.119-15.901 15.901-15.901h127.718c8.782 0 15.901 7.119 15.901 15.901s-7.119 15.901-15.901 15.901z" fill="#0e365c"/></g></g><path d="m176.767 241.597v51.247l38.595 90.5c5.236 12.278-3.773 25.914-17.121 25.914h-111.926c-13.348 0-22.357-13.636-17.121-25.914l38.595-90.5v-51.247z" fill="#dbf5ff"/><path d="m215.363 383.343-22.287-52.259h-101.595l-22.287 52.259c-5.236 12.278 3.773 25.914 17.121 25.914h111.927c13.348 0 22.357-13.636 17.121-25.914z" fill="#ff5ca8"/><path d="m256.877 28.285v153.787h49.329c8.555 0 15.49-6.935 15.49-15.49v-73.478c0-35.799-29.02-64.819-64.819-64.819z" fill="#ff9f00"/><path d="m272.778 181.974v-85.294c0-8.782-7.119-15.901-15.901-15.901s-15.901 7.119-15.901 15.901v85.294c0 .033.005.065.005.098h31.793c-.001-.033.004-.065.004-.098z" fill="#ffe986"/><path d="m256.877 80.778v101.294h15.896c0-.033.005-.065.005-.098v-85.294c0-8.782-7.119-15.902-15.901-15.902z" fill="#ffdc00"/><path d="m176.767 292.844v-51.247h-34.489v167.66h55.964c13.348 0 22.357-13.636 17.121-25.914z" fill="#b3ddff"/><path d="m193.075 331.084h-50.797v78.173h55.964c13.348 0 22.357-13.636 17.121-25.914z" fill="#ff1786"/><g><path d="m200.225 261.035h-115.893c-7.955 0-14.404-7.372-14.404-16.465s6.449-16.465 14.404-16.465h115.893c7.955 0 14.404 7.372 14.404 16.465s-6.449 16.465-14.404 16.465z" fill="#a4ceff"/></g><path d="m200.225 228.104h-57.947v32.93h57.947c7.955 0 14.404-7.372 14.404-16.465s-6.449-16.465-14.404-16.465z" fill="#59a7ff"/></g></svg>