<svg id="Layer_1" enable-background="new 0 0 512.197 512.197" height="512" viewBox="0 0 512.197 512.197" width="512" xmlns="http://www.w3.org/2000/svg"><g><g><ellipse cx="256.099" cy="256.099" fill="#fff000" rx="241.025" ry="241.098"/></g><path d="m497.124 256.099c0-133.155-107.911-241.099-241.025-241.099v482.196c133.114.001 241.025-107.942 241.025-241.097z" fill="#ffba08"/><g><path d="m256.098 512.197c-68.388 0-132.682-26.64-181.039-75.011-48.355-48.371-74.986-112.682-74.986-181.087s26.631-132.717 74.987-181.088c48.357-48.371 112.651-75.011 181.038-75.011s132.682 26.64 181.039 75.011c48.355 48.371 74.986 112.683 74.986 181.088s-26.631 132.717-74.986 181.088c-48.356 48.371-112.651 75.01-181.039 75.01zm0-482.197c-60.373 0-117.132 23.518-159.822 66.221-42.691 42.705-66.203 99.484-66.203 159.878s23.511 117.173 66.203 159.878c42.69 42.703 99.45 66.221 159.822 66.221s117.132-23.518 159.822-66.221c42.692-42.705 66.203-99.483 66.203-159.878s-23.511-117.173-66.203-159.878c-42.689-42.703-99.449-66.221-159.822-66.221z" fill="#0e365c"/></g><path d="m366.545 187.48c-.002-.044-.003-.088-.005-.132-2.126-42.246-27.538-79.023-66.318-95.979-7.593-3.318-16.435.144-19.753 7.735-3.319 7.59.144 16.434 7.734 19.753 25.083 10.967 42.488 33.302 47.193 59.7-4.77-.629-9.632-.959-14.571-.959-24.38 0-46.94 7.923-65.256 21.32-18.132-12.954-40.315-20.584-64.248-20.584-5.113 0-10.143.356-15.074 1.03 4.358-26.063 21.238-48.571 46.053-59.93 7.533-3.447 10.844-12.349 7.396-19.882-3.447-7.532-12.349-10.845-19.882-7.396-19.931 9.122-36.583 23.828-48.158 42.529-10.083 16.291-15.672 34.683-16.426 53.704-38.137 17.521-64.686 56.077-64.686 100.721 0 1.391.026 2.791.077 4.161.308 8.278 7.28 14.784 15.547 14.432 8.279-.308 14.74-7.268 14.433-15.547-.037-1-.056-2.025-.056-3.046 0-28.874 15.238-54.243 38.085-68.528 8.457 32.834 31.534 59.555 61.553 73.219 1.163 24.004 10.005 46.023 24.112 63.657-12.456 7.861-27.188 12.43-42.974 12.43-18.721 0-36.966-6.549-51.375-18.44-6.39-5.271-15.844-4.368-21.117 2.021s-4.368 15.844 2.021 21.117c19.771 16.316 44.798 25.302 70.471 25.302 24.38 0 46.94-7.923 65.256-21.32 18.132 12.954 40.315 20.584 64.248 20.584 24.181 0 47.159-7.654 66.449-22.136 6.625-4.974 7.964-14.376 2.991-21.001-4.974-6.627-14.377-7.967-21.001-2.991-14.055 10.551-30.805 16.128-48.438 16.128-15.457 0-29.91-4.372-42.199-11.933 13.829-17.687 22.403-39.666 23.371-63.572 30.38-13.947 53.2-41.186 61.386-73.886 22.922 14.269 38.219 39.684 38.219 68.615 0 4.526-.376 9.063-1.118 13.483-1.372 8.17 4.14 15.905 12.31 17.276 8.168 1.374 15.905-4.14 17.276-12.31 1.017-6.057 1.532-12.265 1.532-18.45-.001-44.789-26.722-83.454-65.058-100.895zm-110.744 53.041c7.004 9.272 12.054 20.094 14.542 31.852-3.39.614-6.848 1.041-10.379 1.219-6.266.316-12.396-.119-18.324-1.182 2.366-11.748 7.29-22.577 14.161-31.889zm-78.919-30.869c4.689-.85 9.509-1.318 14.439-1.318 15.457 0 29.91 4.372 42.199 11.933-9.396 12.018-16.365 26.018-20.174 41.258-18.302-11.391-31.826-29.913-36.464-51.873zm79.464 127.314c-7.472-9.891-12.707-21.551-14.992-34.226 4.748.627 9.582.957 14.485.957 1.866 0 3.75-.047 5.633-.142 3.196-.161 6.351-.464 9.466-.889-2.152 12.675-7.254 24.355-14.592 34.3zm42.256-75.514c-3.957-15.341-11.132-29.4-20.751-41.423 12.456-7.861 27.188-12.43 42.974-12.43 4.869 0 9.63.457 14.264 1.287-4.438 21.997-17.891 40.936-36.487 52.566z" fill="#0e365c"/><g fill="#1b0428"><path d="m256.099 0v30c60.372 0 117.132 23.518 159.822 66.221 42.692 42.705 66.203 99.483 66.203 159.878s-23.511 117.173-66.203 159.878c-42.69 42.703-99.45 66.221-159.822 66.221v30c68.388 0 132.682-26.64 181.039-75.011 48.355-48.371 74.986-112.683 74.986-181.088s-26.631-132.717-74.986-181.088c-48.357-48.371-112.652-75.011-181.039-75.011z"/><path d="m366.545 187.48c-.002-.044-.003-.088-.005-.132-2.126-42.246-27.538-79.023-66.318-95.979-7.593-3.318-16.435.144-19.753 7.735-3.319 7.59.144 16.434 7.734 19.753 25.083 10.967 42.488 33.302 47.193 59.7-4.77-.629-9.632-.959-14.571-.959-24.148 0-46.505 7.781-64.727 20.948v42.379c6.848 9.182 11.792 19.858 14.245 31.447-3.39.614-6.848 1.041-10.379 1.219-1.295.065-2.583.091-3.866.093v30.008c1.781-.004 3.577-.048 5.374-.138 3.196-.161 6.351-.464 9.466-.889-2.152 12.675-7.254 24.355-14.592 34.3-.084-.111-.164-.226-.247-.337v42.276c.158-.114.321-.221.479-.336 18.132 12.954 40.315 20.584 64.248 20.584 24.181 0 47.159-7.654 66.449-22.136 6.625-4.974 7.964-14.376 2.991-21.001-4.974-6.627-14.377-7.967-21.001-2.991-14.055 10.551-30.805 16.128-48.438 16.128-15.457 0-29.91-4.372-42.199-11.933 13.829-17.687 22.403-39.666 23.371-63.572 30.38-13.947 53.2-41.186 61.386-73.886 22.922 14.269 38.219 39.684 38.219 68.615 0 4.526-.376 9.063-1.118 13.483-1.372 8.17 4.14 15.905 12.31 17.276 8.168 1.374 15.905-4.14 17.276-12.31 1.017-6.057 1.532-12.265 1.532-18.45-.002-44.789-26.723-83.454-65.059-100.895zm-67.943 73.972c-3.957-15.341-11.132-29.4-20.751-41.423 12.456-7.861 27.188-12.43 42.974-12.43 4.869 0 9.63.457 14.264 1.287-4.438 21.997-17.891 40.936-36.487 52.566z"/></g></g></svg>