<svg id="Layer_1" enable-background="new 0 0 510.277 510.277" height="512" viewBox="0 0 510.277 510.277" width="512" xmlns="http://www.w3.org/2000/svg"><g><path d="m383.168 432.949v63.03c0 7.896-6.401 14.298-14.298 14.298h-223.092c-7.896 0-14.298-6.401-14.298-14.298v-62.266l139.161-59.546z" fill="#59a7ff"/><path d="m254.33 381.147v129.13h114.54c7.896 0 14.298-6.401 14.298-14.298v-63.03l-112.527-58.781z" fill="#0082ff"/><path d="m407.983 180.28c11.088-22.107 22.722-40.435 37.222-60.596 4.503-6.262 8.116-13.326 10.596-21.07 12.921-40.345-9.837-83.569-50.721-95.576-37.956-11.147-78.56 9.288-92.18 46.428-3.308 9.02-4.792 18.227-4.653 27.236.554 35.994-1.996 68.582-10.741 103.382l40.107 60.569z" fill="#0e365c"/><path d="m366.835 435.229h-223.399c-66.015 0-119.53-53.516-119.53-119.53v-35.809l91.546-16.078-91.546-16.078v-46.088c0-14.793 11.992-26.784 26.784-26.784h408.891c14.793 0 26.784 11.992 26.784 26.784v46.088l-116.018 12.379 116.018 19.778v35.807c0 66.015-53.516 119.531-119.53 119.531z" fill="#b3ddff"/><path d="m254.33 435.228h103.912c70.761 0 128.124-57.363 128.124-128.124v-105.457c0-14.793-11.992-26.784-26.784-26.784h-205.252z" fill="#a4ceff"/><path d="m23.912 279.89c.005 0 .01.001.015.001h462.444.001v-32.156h-.001-462.444c-.005 0-.01.001-.015.001z" fill="#fff"/><path d="m254.33 247.735v32.156h232.041.001v-32.156z" fill="#dbf5ff"/></g></svg>