<svg id="Layer_1" enable-background="new 0 0 511.844 511.844" height="512" viewBox="0 0 511.844 511.844" width="512" xmlns="http://www.w3.org/2000/svg"><g><path d="m357.081 77.064v333.62c0 55.869-45.291 101.159-101.159 101.159-55.869 0-101.159-45.291-101.159-101.159v-333.62" fill="#dbf5ff"/><path d="m255.297 511.836c.208.001.416.008.625.008 55.869 0 101.159-45.291 101.159-101.16v-333.62h-101.784z" fill="#b3ddff"/><g><path d="m255.297 336.587c-8.797 0-15.929-7.132-15.929-15.929v-243.702c0-8.797 7.132-15.929 15.929-15.929s15.929 7.132 15.929 15.929v243.702c0 8.798-7.132 15.929-15.929 15.929z" fill="#59a7ff"/></g><path d="m271.226 320.659v-243.703c0-8.797-7.132-15.929-15.929-15.929v275.56c8.797 0 15.929-7.131 15.929-15.928z" fill="#0082ff"/><path d="m163.054 0h185.736c13.027 0 23.588 10.561 23.588 23.588v42.55c0 5.964-4.835 10.798-10.798 10.798h-211.316c-5.964 0-10.798-4.835-10.798-10.798v-42.55c-.001-13.027 10.56-23.588 23.588-23.588z" fill="#fa184b"/><ellipse cx="255.922" cy="369.924" fill="#fff5f5" rx="34.382" ry="55.636"/><path d="m255.922 314.288c-.21 0-.416.019-.625.025v111.222c.209.006.415.025.625.025 18.989 0 34.382-24.909 34.382-55.636s-15.393-55.636-34.382-55.636z" fill="#eee1dc"/><path d="m348.79 0h-93.493v76.937h106.283c5.964 0 10.798-4.835 10.798-10.798v-42.55c0-13.028-10.56-23.589-23.588-23.589z" fill="#bd0533"/></g></svg>