<svg id="Layer_1" enable-background="new 0 0 512 512" height="512" viewBox="0 0 512 512" width="512" xmlns="http://www.w3.org/2000/svg"><g><g><path d="m34.575 427.058c-8.8 0-15.934-7.134-15.934-15.934v-310.522c0-8.8 7.134-15.934 15.934-15.934s15.934 7.134 15.934 15.934v310.523c0 8.799-7.134 15.933-15.934 15.933z" fill="#59a7ff"/></g><g><path d="m255.686 426.114c-8.8 0-15.934-7.134-15.934-15.934v-308.634c0-8.8 7.134-15.934 15.934-15.934s15.934 7.134 15.934 15.934v308.635c0 8.799-7.134 15.933-15.934 15.933z" fill="#59a7ff"/></g><g><path d="m476.796 426.96c-8.8 0-15.934-7.134-15.934-15.934v-308.635c0-8.8 7.134-15.934 15.934-15.934s15.934 7.134 15.934 15.934v308.635c-.001 8.8-7.134 15.934-15.934 15.934z" fill="#59a7ff"/></g><path d="m35.204 84.668v342.327c8.506-.333 15.305-7.314 15.305-15.902v-310.523c0-8.588-6.799-15.569-15.305-15.902z" fill="#0082ff"/><path d="m256.315 85.612v342.327c8.506-.333 15.305-7.314 15.305-15.902v-310.523c0-8.587-6.799-15.569-15.305-15.902z" fill="#0082ff"/><path d="m477.425 86.458v342.327c8.506-.333 15.305-7.314 15.305-15.902v-310.524c-.001-8.587-6.799-15.568-15.305-15.901z" fill="#0082ff"/><g fill="#fff5f5"><ellipse cx="34.576" cy="56.231" rx="34.576" ry="55.95"/><ellipse cx="255.686" cy="55.95" rx="34.576" ry="55.95"/><ellipse cx="476.796" cy="56.795" rx="34.576" ry="55.95"/><ellipse cx="35.204" cy="455.487" rx="34.576" ry="55.95"/><ellipse cx="256.314" cy="455.205" rx="34.576" ry="55.95"/><ellipse cx="477.424" cy="456.05" rx="34.576" ry="55.95"/></g><path d="m35.204.282v111.847c18.804-.545 33.947-25.365 33.947-55.924s-15.142-55.379-33.947-55.923z" fill="#eee1dc"/><path d="m256.314 0v111.847c18.804-.545 33.947-25.365 33.947-55.924s-15.142-55.378-33.947-55.923z" fill="#eee1dc"/><path d="m477.424.845v111.847c18.804-.545 33.947-25.365 33.947-55.924s-15.142-55.378-33.947-55.923z" fill="#eee1dc"/><path d="m35.833 399.537v111.847c18.804-.545 33.947-25.365 33.947-55.924s-15.143-55.378-33.947-55.923z" fill="#eee1dc"/><path d="m256.943 399.256v111.847c18.804-.545 33.947-25.365 33.947-55.924s-15.143-55.379-33.947-55.923z" fill="#eee1dc"/><path d="m478.053 400.101v111.847c18.804-.544 33.947-25.364 33.947-55.923s-15.143-55.379-33.947-55.924z" fill="#eee1dc"/></g></svg>