<svg id="Layer_1" enable-background="new 0 0 511.741 511.741" height="512" viewBox="0 0 511.741 511.741" width="512" xmlns="http://www.w3.org/2000/svg"><g><g><path d="m196.111 85.617h119.243v91.843h-119.243z" fill="#ccbeb9"/></g><path d="m255.733 85.617h59.622v91.843h-59.622z" fill="#9d9696"/><path d="m492.156 490.483h-472.571c-10.816 0-19.585-8.768-19.585-19.585v-279.146c0-10.816 8.768-19.585 19.585-19.585h472.571c10.816 0 19.585 8.768 19.585 19.585v279.146c0 10.817-8.768 19.585-19.585 19.585z" fill="#59a7ff"/><path d="m492.156 172.167h-236.423v318.316h236.423c10.816 0 19.585-8.769 19.585-19.585v-279.146c0-10.816-8.768-19.585-19.585-19.585z" fill="#0082ff"/><path d="m454.132 90.853h-396.523c-31.816 0-57.609-25.793-57.609-57.61v-4.01c0-4.405 3.571-7.976 7.976-7.976h495.789c4.405 0 7.976 3.571 7.976 7.976v4.01c0 31.817-25.793 57.61-57.609 57.61z" fill="#eee1dc"/><ellipse cx="255.87" cy="299.781" fill="#fff" rx="66.687" ry="66.636"/><path d="m0 408.675v61.026c0 11.478 9.305 20.782 20.782 20.782h470.176c11.478 0 20.782-9.305 20.782-20.782v-61.026z" fill="#0e365c"/><path d="m255.87 283.864c-8.791 0-15.917 7.126-15.917 15.917v64.711c5.102 1.249 10.43 1.925 15.917 1.925s10.815-.676 15.917-1.925v-64.711c0-8.791-7.126-15.917-15.917-15.917z" fill="#fa184b"/><path d="m503.765 21.258h-248.032v69.595h198.398c31.817 0 57.609-25.793 57.609-57.609v-4.01c.001-4.405-3.57-7.976-7.975-7.976z" fill="#ccbeb9"/><path d="m255.733 490.483h235.226c11.478 0 20.782-9.304 20.782-20.782v-61.026h-256.008z" fill="#1b0428"/><path d="m255.871 233.145c-.046 0-.091.003-.137.003v133.266c.046 0 .091.003.137.003 36.83 0 66.687-29.834 66.687-66.636s-29.857-66.636-66.687-66.636z" fill="#dbf5ff"/><path d="m255.87 283.864c-.046 0-.091.007-.137.007v82.544c.046 0 .091.002.137.002 5.487 0 10.815-.676 15.917-1.925v-64.711c0-8.79-7.126-15.917-15.917-15.917z" fill="#bd0533"/></g></svg>