<svg id="Layer_1" enable-background="new 0 0 512.231 512.231" height="512" viewBox="0 0 512.231 512.231" width="512" xmlns="http://www.w3.org/2000/svg"><g><g><path d="m122.59 44.649 41.307 172.915c6.263 26.218 6.266 53.542.01 79.761l-40.39 170.315c-4.588 19.227 7.103 38.578 26.258 43.461 19.771 5.04 39.797-7.255 44.249-27.166l37.033-166.685c2.747-12.286 13.651-21.021 26.24-21.021 12.526 0 23.392 8.649 26.203 20.855l37.936 167.949c4.756 20.654 26.614 32.393 46.459 24.951 16.568-6.213 25.906-23.801 21.771-41.005l-41.395-175.425c-6.573-27.348-6.327-55.893.715-83.124l40.334-160.99c5.492-21.236-7.428-42.866-28.73-48.098-21.887-5.376-43.811 8.681-48.062 30.814l-31.124 167.968c-2.375 12.366-13.194 21.305-25.786 21.305-12.39 0-23.094-8.661-25.679-20.779l-36.688-171.976c-4.139-19.399-23.109-31.863-42.557-27.959-20.122 4.04-32.873 23.972-28.104 43.934z" fill="#00ffe7"/></g><path d="m348.271 293.359c-6.573-27.348-6.327-55.893.715-83.124l40.334-160.989c5.492-21.236-7.428-42.866-28.73-48.098-21.887-5.376-43.811 8.681-48.062 30.814l-31.124 167.968c-2.343 12.202-12.912 21.05-25.289 21.283v74.873c.394-.017.784-.051 1.182-.051 12.526 0 23.392 8.649 26.203 20.855l37.936 167.948c4.756 20.654 26.614 32.393 46.459 24.952 16.568-6.213 25.906-23.801 21.771-41.005z" fill="#00ddc1"/></g></svg>