<svg id="Layer_1" enable-background="new 0 0 512.09 512.09" height="512" viewBox="0 0 512.09 512.09" width="512" xmlns="http://www.w3.org/2000/svg"><g><path d="m389.861 393.316 8.15-9.347c29.172-33.504 45.419-76.379 45.5-120.804 0-.272.001-.544.001-.817v-96.908c0-52.05-42.195-94.245-94.245-94.245h-22.131v-7.413c.001-35.226-28.556-63.782-63.782-63.782-35.226 0-72.782 28.556-72.782 63.782v87.382l53.344 180.463z" fill="#cdf"/><path d="m349.267 71.195h-22.131v-7.413c.001-35.226-28.556-63.782-63.782-63.782-7.579 0-14.846.978-21.589 3.404v319.467l2.151 8.756 145.945 61.689 8.15-9.347c29.173-33.504 45.419-76.379 45.5-120.804.001-.272.001-.545.001-.817v-96.908c0-52.05-42.195-94.245-94.245-94.245z" fill="#9bf"/><path d="m402.188 410.485-92.624-129.006v-130.314l-69.338.014-69.335-.014v130.314l-90.561 129.614c-20.744 29.689-13.396 71.147 17.052 90.76 9.985 6.432 21.958 10.237 35.125 10.237h218c13.238 0 25.262-3.843 35.273-10.331 30.585-19.822 37.665-61.668 16.408-91.274z" fill="#66f"/><circle cx="137.94" cy="86.294" fill="#6b77e8" r="15.933"/><path d="m214.418 297.306c9.055 0 16.346-7.554 15.915-16.704-.404-8.57-7.786-15.163-16.365-15.163h-43.076v4.522c0 7.497-2.303 14.814-6.597 20.96l-4.462 6.385z" fill="#342ca7"/><path d="m170.892 227.974c.006 0 .012.001.018.001h43.509c8.8 0 15.933-7.134 15.933-15.933 0-8.8-7.134-15.933-15.933-15.933h-43.509c-.006 0-.012.001-.018.001z" fill="#342ca7"/><path d="m309.564 271.16v-119.995l-67.799.014v360.911h108.742c13.031 0 24.887-3.724 34.804-10.029 30.923-19.662 38.327-61.702 16.954-91.469l-86.683-120.731c-3.913-5.451-6.018-11.991-6.018-18.701z" fill="#473dcc"/><circle cx="340.867" cy="441.785" fill="#17174d" r="15.933"/><circle cx="285.899" cy="398.84" fill="#17174d" r="15.933"/><g><path d="m343.227 167.087h-202.924c-8.8 0-15.933-7.134-15.933-15.933s7.134-15.933 15.933-15.933h202.924c8.8 0 15.933 7.134 15.933 15.933s-7.133 15.933-15.933 15.933z" fill="#dbf5ff"/></g><path d="m343.227 135.22h-101.462v31.867h101.462c8.8 0 15.933-7.134 15.933-15.933s-7.133-15.934-15.933-15.934z" fill="#b3ddff"/></g></svg>