<svg id="Layer_1" enable-background="new 0 0 511.401 511.401" height="512" viewBox="0 0 511.401 511.401" width="512" xmlns="http://www.w3.org/2000/svg"><g><g><path d="m15.028 511.361c-3.839 0-7.678-1.464-10.606-4.394-5.858-5.857-5.858-15.355 0-21.213l97.893-97.892c5.858-5.858-1.938 11.436 3.918 17.295 5.858 5.857 23.153-1.939 17.295 3.918l-97.893 97.892c-2.93 2.929-6.769 4.394-10.607 4.394z" fill="#eee1dc"/></g><path d="m107.057 405.898-101.853 101.852c2.807 2.425 6.292 3.65 9.784 3.65 3.839 0 7.678-1.465 10.606-4.393l97.893-97.892c5.596-5.594-9.92 1.257-16.43-3.217z" fill="#ccbeb9"/><path d="m168.397 400.898-15.257 15.257c-15.774 15.774-41.349 15.774-57.123 0-15.774-15.774-15.774-41.349 0-57.123l15.257-15.257 88.173-21.387z" fill="#ccbeb9"/><path d="m187.713 325.242-91.304 91.304c15.803 15.383 41.079 15.261 56.722-.381l15.257-15.257 31.05-78.51z" fill="#9d9696"/><path d="m340.606 42.572h96.415v158.441h-96.415z" fill="#ccbeb9" transform="matrix(.707 .707 -.707 .707 200.002 -239.261)"/><path d="m383.171 60.203h46.548v158.441h-46.548z" fill="#9d9696" transform="matrix(.707 .707 -.707 .707 217.632 -246.564)"/><path d="m292.818 93.37 124.419 124.419-192.739 192.739c-12.832 12.832-33.636 12.832-46.467 0l-77.951-77.951c-12.832-12.832-12.832-33.636 0-46.467z" fill="#fff5f5"/><path d="m140.229 372.726 37.802 37.802c12.831 12.832 33.636 12.832 46.467 0l192.738-192.738-61.036-61.036z" fill="#eee1dc"/><g><path d="m260.344 121.822c-16.273 0-31.573-6.338-43.081-17.846-23.754-23.754-23.755-62.405 0-86.161 23.755-23.754 62.408-23.754 86.161 0 11.508 11.508 17.846 26.808 17.846 43.081s-6.338 31.573-17.846 43.08c-11.507 11.508-26.807 17.846-43.08 17.846zm-21.868-82.794c-12.058 12.059-12.058 31.678 0 43.735 5.842 5.841 13.607 9.059 21.868 9.059 8.26 0 16.026-3.218 21.867-9.059s9.059-13.607 9.059-21.867c0-8.261-3.218-16.026-9.059-21.868-12.059-12.057-31.68-12.056-43.735 0z" fill="#eee1dc"/></g><g><path d="m496.373 127.047c-3.839 0-7.678-1.465-10.606-4.394l-95.466-95.466c-5.858-5.857-5.858-15.355 0-21.213 5.857-5.857 15.355-5.857 21.213 0l95.466 95.466c5.858 5.857 5.858 15.355 0 21.213-2.929 2.929-6.768 4.394-10.607 4.394z" fill="#eee1dc"/></g><path d="m332.618 302.401-124.413-124.414-.007.004-108.119 108.118c-12.832 12.832-12.832 33.636 0 46.467l77.951 77.951c12.832 12.832 33.636 12.832 46.467 0l108.121-108.121z" fill="#00f17e"/><path d="m506.98 101.44-47.733-47.733-21.213 21.213 47.733 47.733c2.929 2.929 6.768 4.394 10.606 4.394 3.839 0 7.678-1.465 10.606-4.394 5.859-5.857 5.859-15.355.001-21.213z" fill="#ccbeb9"/><path d="m271.586 241.368-131.357 131.358 37.802 37.802c12.832 12.832 33.636 12.831 46.467 0l108.121-108.121v-.006z" fill="#009b52"/><g><path d="m449.71 311.159c-15.604 0-31.202-5.937-43.08-17.815-23.755-23.755-23.755-62.406 0-86.161 23.754-23.754 62.405-23.754 86.161 0 23.755 23.755 23.755 62.406 0 86.161-11.876 11.876-27.481 17.815-43.081 17.815zm0-91.806c-7.919 0-15.838 3.015-21.867 9.043-12.058 12.058-12.058 31.678 0 43.735 12.058 12.056 31.678 12.056 43.735 0 12.058-12.058 12.058-31.678 0-43.735-6.029-6.029-13.948-9.043-21.868-9.043z" fill="#ccbeb9"/></g></g></svg>