<svg id="Capa_1" enable-background="new 0 0 512 512" height="512" viewBox="0 0 512 512" width="512" xmlns="http://www.w3.org/2000/svg" xmlns:xlink="http://www.w3.org/1999/xlink"><linearGradient id="SVGID_1_" gradientUnits="userSpaceOnUse" x1="256" x2="256" y1="512" y2="0"><stop offset="0" stop-color="#5558ff"/><stop offset="1" stop-color="#00c0ff"/></linearGradient><g><g><path d="m136 270h15v45c0 8.284 6.716 15 15 15s15-6.716 15-15v-45h15c8.284 0 15-6.716 15-15v-90c0-8.284-6.716-15-15-15h-15v-45c0-8.284-6.716-15-15-15s-15 6.716-15 15v45h-15c-8.284 0-15 6.716-15 15v90c0 8.284 6.716 15 15 15zm15-90h30v60h-30zm105 30h15v45c0 8.284 6.716 15 15 15s15-6.716 15-15v-45h15c8.284 0 15-6.716 15-15v-90c0-8.284-6.716-15-15-15h-15v-45c0-8.284-6.716-15-15-15s-15 6.716-15 15v45h-15c-8.284 0-15 6.716-15 15v90c0 8.284 6.716 15 15 15zm15-90h30v60h-30zm105 150h15v45c0 8.284 6.716 15 15 15s15-6.716 15-15v-45h15c8.284 0 15-6.716 15-15v-90c0-8.284-6.716-15-15-15h-15v-45c0-8.284-6.716-15-15-15s-15 6.716-15 15v45h-15c-8.284 0-15 6.716-15 15v90c0 8.284 6.716 15 15 15zm15-90h30v60h-30zm116.607 276.394-30-30c-5.857-5.858-15.355-5.858-21.213 0s-5.858 15.355 0 21.213l4.393 4.394h-39.787v-77c0-8.284-6.716-15-15-15s-15 6.716-15 15v77h-90v-137.001c0-8.284-6.716-15-15-15s-15 6.716-15 15v137h-90v-77c0-8.284-6.716-15-15-15s-15 6.716-15 15v77h-91v-400.787l4.394 4.394c5.857 5.857 15.355 5.858 21.213 0s5.858-15.355 0-21.213l-30-30c-5.857-5.858-15.355-5.858-21.213 0l-30 30c-5.858 5.858-5.858 15.355 0 21.213 5.857 5.858 15.355 5.858 21.213 0l4.393-4.394v415.787c0 8.284 6.716 15 15 15h415.787l-4.393 4.394c-5.858 5.858-5.858 15.355 0 21.213 5.857 5.857 15.355 5.858 21.213 0l30-30c5.857-5.858 5.857-15.355 0-21.213z" fill="url(#SVGID_1_)"/></g></g></svg>