<svg id="Capa_1" enable-background="new 0 0 512 512" height="512" viewBox="0 0 512 512" width="512" xmlns="http://www.w3.org/2000/svg" xmlns:xlink="http://www.w3.org/1999/xlink"><linearGradient id="SVGID_1_" gradientUnits="userSpaceOnUse" x1="256" x2="256" y1="512" y2="0"><stop offset="0" stop-color="#5558ff"/><stop offset="1" stop-color="#00c0ff"/></linearGradient><g><g><path d="m507.607 245.394-90-90c-4.289-4.291-10.743-5.572-16.347-3.251-5.605 2.322-9.26 7.791-9.26 13.858v45.561c-32.682 2.454-63.903 12.899-91 30.318v-121.88h45c6.067 0 11.536-3.655 13.858-9.26 2.321-5.605 1.038-12.057-3.252-16.347l-90-90c-5.857-5.858-15.355-5.858-21.213 0l-90 90c-4.29 4.29-5.573 10.742-3.252 16.347 2.322 5.605 7.791 9.26 13.858 9.26h45v121.879c-27.097-17.418-58.318-27.864-91-30.318v-45.561c0-6.067-3.654-11.537-9.26-13.858-5.603-2.322-12.057-1.039-16.347 3.251l-90 90c-5.858 5.858-5.858 15.355 0 21.213l90 90c4.29 4.291 10.744 5.573 16.347 3.251 5.605-2.322 9.26-7.791 9.26-13.858v-43.952c51.371 7.239 91 51.097 91 103.952v91c0 8.284 6.716 15 15 15h60c8.284 0 15-6.716 15-15v-91c0-52.854 39.629-96.713 91-103.952v43.953c0 6.067 3.654 11.537 9.26 13.858 5.604 2.322 12.058 1.039 16.347-3.251l90-90c5.859-5.858 5.859-15.355.001-21.213zm-85.607 64.393v-23.787c0-8.284-6.716-15-15-15-74.99 0-136 60.561-136 135v76h-30v-76c0-74.439-61.01-135-136-135-8.284 0-15 6.716-15 15v23.787l-53.787-53.787 53.787-53.787v23.787c0 8.284 6.716 15 15 15 41.404 0 80.8 15.029 110.931 42.317 9.626 8.719 25.069 1.862 25.069-11.117v-167.2c0-8.284-6.716-15-15-15h-23.787l53.787-53.787 53.787 53.787h-23.787c-8.284 0-15 6.716-15 15v167.2c0 13.015 15.467 19.817 25.069 11.118 30.131-27.289 69.527-42.318 110.931-42.318 8.284 0 15-6.716 15-15v-23.787l53.787 53.787z" fill="url(#SVGID_1_)"/></g></g></svg>