<svg id="Capa_1" enable-background="new 0 0 512 512" height="512" viewBox="0 0 512 512" width="512" xmlns="http://www.w3.org/2000/svg" xmlns:xlink="http://www.w3.org/1999/xlink"><linearGradient id="SVGID_1_" gradientUnits="userSpaceOnUse" x1="256" x2="256" y1="512" y2="0"><stop offset="0" stop-color="#fd5900"/><stop offset="1" stop-color="#ffde00"/></linearGradient><g><g><path d="m15 151h121c8.284 0 15-6.716 15-15v-15h241v15c0 5.532 3.045 10.615 7.922 13.225 4.865 2.604 10.784 2.332 15.398-.744l90-60c4.156-2.771 6.66-7.428 6.68-12.423.019-4.995-2.449-9.672-6.584-12.474l-90-61c-4.596-3.115-10.537-3.436-15.443-.835-4.906 2.6-7.973 7.699-7.973 13.251v16h-241v-16c0-8.284-6.716-15-15-15h-121c-8.284 0-15 6.716-15 15v121c0 8.284 6.716 15 15 15zm136-90h256c8.284 0 15-6.716 15-15v-2.713l48.112 32.61-48.112 32.075v-1.972c0-8.284-6.716-15-15-15h-256zm-121-31h91v91h-91zm475.32 213.519-90-60c-4.604-3.069-10.521-3.354-15.398-.744s-7.922 7.693-7.922 13.225v15h-241v-15c0-8.284-6.716-15-15-15h-121c-8.284 0-15 6.716-15 15v120c0 8.284 6.716 15 15 15h121c8.284 0 15-6.716 15-15v-15h241v15c0 5.532 3.045 10.615 7.922 13.225 4.865 2.604 10.784 2.332 15.398-.744l90-60c4.173-2.782 6.68-7.465 6.68-12.481s-2.507-9.699-6.68-12.481zm-384.32 57.481h-91v-90h91zm301-13.028v-1.972c0-8.284-6.716-15-15-15h-256v-30h256c8.284 0 15-6.716 15-15v-1.972l47.958 31.972zm83.32 135.547-90-60c-4.604-3.069-10.521-3.354-15.398-.744s-7.922 7.693-7.922 13.225v15h-241v-15c0-8.284-6.716-15-15-15h-121c-8.284 0-15 6.716-15 15v121c0 8.284 6.716 15 15 15h121c8.284 0 15-6.716 15-15v-16h241v16c0 5.552 3.067 10.651 7.973 13.252 4.926 2.612 10.866 2.267 15.443-.835l90-61c4.135-2.802 6.603-7.479 6.584-12.474-.02-4.995-2.523-9.653-6.68-12.424zm-384.32 58.481h-91v-91h91zm301-13.287v-2.713c0-8.284-6.716-15-15-15h-256v-30h256c8.284 0 15-6.716 15-15v-1.972l48.112 32.075z" fill="url(#SVGID_1_)"/></g></g></svg>