<svg id="Capa_1" enable-background="new 0 0 511.978 511.978" height="512" viewBox="0 0 511.978 511.978" width="512" xmlns="http://www.w3.org/2000/svg" xmlns:xlink="http://www.w3.org/1999/xlink"><linearGradient id="SVGID_1_" gradientUnits="userSpaceOnUse" x1="22.877" x2="390.912" y1="473.955" y2="105.921"><stop offset="0" stop-color="#a93aff"/><stop offset="1" stop-color="#ff81ff"/></linearGradient><path d="m507.584 222.593-42.427-42.426c-5.857-5.858-15.355-5.858-21.213 0l-10.607 10.607-21.213-21.213 10.607-10.607c2.813-2.813 4.394-6.628 4.394-10.607 0-3.978-1.58-7.794-4.394-10.607l-63.64-63.64c-25.498-25.498-59.399-39.541-95.459-39.541-36.034 0-69.912 14.022-95.404 39.485-.019.018-.037.037-.056.056-5.858 5.858-5.858 15.355 0 21.213 5.856 5.858 15.354 5.858 21.213 0 .01-.01.02-.02.029-.029 5.851-5.818 15.346-5.809 21.185.029l31.819 31.82-10.606 10.607c-5.858 5.858-5.858 15.355 0 21.213l10.678 10.678-229.309 230.988c-8.5 8.5-13.181 19.8-13.181 31.82s4.681 23.321 13.181 31.82c8.772 8.773 20.296 13.159 31.819 13.159 11.524 0 23.048-4.386 31.82-13.159l229.31-230.987 10.535 10.535c2.929 2.929 6.768 4.394 10.606 4.394s7.678-1.465 10.606-4.393l10.607-10.607 21.213 21.213-10.606 10.607c-2.813 2.813-4.394 6.628-4.394 10.607s1.58 7.794 4.394 10.607l42.427 42.427c2.929 2.929 6.768 4.393 10.606 4.393s7.678-1.465 10.606-4.394l84.853-84.853c2.813-2.813 4.394-6.628 4.394-10.607s-1.58-7.795-4.393-10.608zm-451.977 220.452c-5.849 5.848-15.363 5.85-21.214 0-5.849-5.848-5.849-15.365 0-21.213l95.46-95.459 21.213 21.213zm116.601-116.744-21.213-21.213 112.709-114.243 21.213 21.213zm91.424-177.954 10.606-10.607c5.858-5.858 5.858-15.355 0-21.213l-42.426-42.427c-1.21-1.21-2.474-2.337-3.78-3.38 11.267-4.05 23.271-6.161 35.601-6.161 28.046 0 54.414 10.922 74.246 30.754l53.033 53.033-10.601 10.601c-.002.002-.004.004-.006.006s-.004.004-.006.006l-53.028 53.027zm106.066 63.64 21.213-21.213 21.213 21.213-21.213 21.213zm42.427 84.853-21.214-21.213 53.03-53.03c.001-.001.002-.002.003-.003s.002-.002.003-.003l10.604-10.604 21.214 21.213z" fill="url(#SVGID_1_)"/></svg>