<svg id="Capa_1" enable-background="new 0 0 512 512" height="512" viewBox="0 0 512 512" width="512" xmlns="http://www.w3.org/2000/svg" xmlns:xlink="http://www.w3.org/1999/xlink"><linearGradient id="SVGID_1_" gradientUnits="userSpaceOnUse" x1="256" x2="256" y1="512" y2="0"><stop offset="0" stop-color="#fd5900"/><stop offset="1" stop-color="#ffde00"/></linearGradient><g><g><path d="m497 362h-79.277c-5.055-20.928-15.83-40.32-31.117-55.606-2.812-2.814-6.627-4.394-10.606-4.394s-7.794 1.58-10.606 4.394c-15.287 15.287-26.062 34.678-31.117 55.606h-36.554c-5.055-20.928-15.83-40.32-31.117-55.606-2.812-2.814-6.627-4.394-10.606-4.394s-7.794 1.58-10.606 4.394c-15.287 15.287-26.062 34.678-31.117 55.606h-36.554c-5.055-20.928-15.83-40.32-31.117-55.606-2.812-2.814-6.627-4.394-10.606-4.394s-7.794 1.58-10.606 4.394c-15.287 15.286-26.062 34.678-31.117 55.606h-79.277c-8.284 0-15 6.716-15 15v120c0 8.284 6.716 15 15 15h482c8.284 0 15-6.716 15-15v-120c0-8.284-6.716-15-15-15zm-121-21.513c4.483 6.65 8.037 13.903 10.562 21.513h-21.124c2.525-7.611 6.079-14.863 10.562-21.513zm-120 0c4.483 6.65 8.037 13.903 10.562 21.513h-21.124c2.525-7.611 6.079-14.863 10.562-21.513zm-120 0c4.483 6.65 8.037 13.903 10.562 21.513h-21.124c2.525-7.611 6.079-14.863 10.562-21.513zm346 141.513h-452v-90h452zm-106-180c41.355 0 75-33.645 75-75v-137h15c8.284 0 15-6.716 15-15s-6.716-15-15-15h-15v-45c0-8.284-6.716-15-15-15h-360c-8.284 0-15 6.716-15 15v45h-15c-8.284 0-15 6.716-15 15s6.716 15 15 15h15v137c0 41.355 33.645 75 75 75h120zm-225-272h150v105c0 8.271-6.729 15-15 15s-15-6.729-15-15v-30c0-24.813-20.187-45-45-45s-45 20.187-45 45c0 8.271-6.729 15-15 15s-15-6.729-15-15zm-60 197v-197h30v75c0 24.813 20.187 45 45 45s45-20.187 45-45c0-8.271 6.729-15 15-15s15 6.729 15 15v30c0 24.813 20.187 45 45 45s45-20.187 45-45v-105h90v197c0 24.813-20.187 45-45 45h-240c-24.813 0-45-20.187-45-45zm165 225c8.284 0 15-6.716 15-15s-6.716-15-15-15-15 6.716-15 15 6.716 15 15 15zm60 0c8.284 0 15-6.716 15-15s-6.716-15-15-15-15 6.716-15 15 6.716 15 15 15zm-120 0c8.284 0 15-6.716 15-15s-6.716-15-15-15-15 6.716-15 15 6.716 15 15 15z" fill="url(#SVGID_1_)"/></g></g></svg>