<svg id="Capa_1" enable-background="new 0 0 512.007 512.007" height="512" viewBox="0 0 512.007 512.007" width="512" xmlns="http://www.w3.org/2000/svg" xmlns:xlink="http://www.w3.org/1999/xlink"><linearGradient id="SVGID_1_" gradientUnits="userSpaceOnUse" x1="256.004" x2="256.004" y1="512.007" y2="0"><stop offset="0" stop-color="#00b59c"/><stop offset="1" stop-color="#9cffac"/></linearGradient><g><g><path d="m256.004 195c33.091 0 60-26.909 60-60s-26.909-60-60-60-60 26.909-60 60 26.909 60 60 60zm0-90c16.538 0 30 13.462 30 30s-13.462 30-30 30-30-13.462-30-30 13.462-30 30-30zm-12.305 248.569c2.798 4.028 7.397 6.431 12.305 6.431s9.507-2.402 12.305-6.431l98.54-141.504c15.806-22.676 24.155-49.321 24.155-77.065 0-74.443-60.557-135-135-135s-135 60.557-135 135c0 27.744 8.35 54.39 24.155 77.065zm12.305-323.569c57.891 0 105 47.109 105 105 0 21.577-6.489 42.305-18.765 59.927l-86.235 123.823-86.235-123.823c-12.275-17.622-18.765-38.35-18.765-59.927 0-57.891 47.109-105 105-105zm254.813 461.155-34.688-82.104c-1.362-3.208-3.794-5.845-6.899-7.456l-116.313-59.971c-4.849-2.534-10.679-2.212-15.234.82l-81.68 54.448-81.68-54.448c-4.585-3.062-10.576-3.34-15.454-.718-.718.396-72.924 38.892-115.756 59.692-3.281 1.582-5.859 4.307-7.266 7.661l-34.657 82.091c-2.402 5.684-1.084 12.261 3.34 16.567 4.409 4.321 11.03 5.449 16.655 2.93l126.771-56.88 100.723 56.309c4.57 2.549 10.078 2.549 14.648 0l100.723-56.309 126.771 56.88c5.598 2.53 12.229 1.406 16.655-2.93 4.425-4.306 5.743-10.883 3.341-16.582zm-141.303-67.822c-4.321-1.963-9.36-1.714-13.506.571l-100.005 55.913-100.005-55.913c-2.271-1.26-4.79-1.904-7.324-1.904-2.109 0-4.219.439-6.182 1.333l-98.778 44.224 17.578-41.631c34.746-17.095 84.862-43.301 103.891-53.525l82.5 55.005c5.039 3.369 11.602 3.369 16.641 0l82.617-55.078 103.656 53.379 17.681 41.836z" fill="url(#SVGID_1_)"/></g></g></svg>