<svg id="Capa_1" enable-background="new 0 0 512 512" height="512" viewBox="0 0 512 512" width="512" xmlns="http://www.w3.org/2000/svg" xmlns:xlink="http://www.w3.org/1999/xlink"><linearGradient id="SVGID_1_" gradientUnits="userSpaceOnUse" x1="256" x2="256" y1="481" y2="31"><stop offset="0" stop-color="#5558ff"/><stop offset="1" stop-color="#00c0ff"/></linearGradient><g><g><path d="m497 31h-482c-8.291 0-15 6.709-15 15v420c0 8.291 6.709 15 15 15h482c8.291 0 15-6.709 15-15v-420c0-8.291-6.709-15-15-15zm-15 285h-107.516c.716-4.942 1.516-9.864 1.516-15s-.8-10.058-1.516-15h107.516zm0-60h-116.532c-16.921-35.345-52.742-60-94.468-60-43.096 0-65.83 29.048-85.884 54.668-21.123 27.012-39.375 50.332-79.116 50.332-6.387 0-12.07 4.043-14.165 10.078-2.095 6.021-.146 12.729 4.863 16.685 4.029 3.193 99.727 78.237 174.302 78.237 41.726 0 77.547-24.655 94.468-60h116.532v105h-452v-300h452zm-136 45c0 41.353-33.647 75-75 75-41.851 0-94.995-30.249-127.119-51.475 30.352-11.25 49.028-35.127 64.863-55.371 20.947-26.748 35.156-43.154 62.256-43.154 41.353 0 75 33.647 75 75zm136-180h-452v-60h31v15c0 8.291 6.709 15 15 15s15-6.709 15-15v-15h30v15c0 8.291 6.709 15 15 15s15-6.709 15-15v-15h30v15c0 8.291 6.709 15 15 15s15-6.709 15-15v-15h271z" fill="url(#SVGID_1_)"/></g></g></svg>