<svg id="Capa_1" enable-background="new 0 0 512 512" height="512" viewBox="0 0 512 512" width="512" xmlns="http://www.w3.org/2000/svg" xmlns:xlink="http://www.w3.org/1999/xlink"><linearGradient id="SVGID_1_" gradientUnits="userSpaceOnUse" x1="256" x2="256" y1="512" y2="0"><stop offset="0" stop-color="#5558ff"/><stop offset="1" stop-color="#00c0ff"/></linearGradient><g><g><path d="m173.5 151h-30c-8.291 0-15 6.709-15 15s6.709 15 15 15h30c8.291 0 15-6.709 15-15s-6.709-15-15-15zm210 120c-49.629 0-90 40.371-90 90v61c0 33.091-26.909 60-60 60s-60-26.909-60-60v-61h30c8.291 0 15-6.709 15-15v-53.789l55.605-55.605c2.813-2.813 4.395-6.621 4.395-10.605v-120.001c0-8.291-6.709-15-15-15h-45v-76c0-8.291-6.709-15-15-15s-15 6.709-15 15v76h-60v-76c0-8.291-6.709-15-15-15s-15 6.709-15 15v76h-45c-8.291 0-15 6.709-15 15v120c0 3.984 1.582 7.793 4.395 10.605l55.605 55.606v53.789c0 8.291 6.709 15 15 15h30v61c0 49.629 40.371 90 90 90s90-40.371 90-90v-61c0-33.091 26.909-60 60-60s60 26.909 60 60v136c0 8.291 6.709 15 15 15s15-6.709 15-15v-136c0-49.629-40.371-90-90-90zm-255 60v-45c0-3.984-1.582-7.793-4.395-10.605l-55.605-55.606v-98.789h180v98.789l-55.605 55.605c-2.813 2.813-4.395 6.621-4.395 10.605v45h-60z" fill="url(#SVGID_1_)"/></g></g></svg>