<svg id="Capa_1" enable-background="new 0 0 511.783 511.783" height="512" viewBox="0 0 511.783 511.783" width="512" xmlns="http://www.w3.org/2000/svg" xmlns:xlink="http://www.w3.org/1999/xlink"><linearGradient id="SVGID_1_" gradientUnits="userSpaceOnUse" x1="255.892" x2="255.892" y1="511.783" y2="0"><stop offset="0" stop-color="#fd3a84"/><stop offset="1" stop-color="#ffa68d"/></linearGradient><g><g><path d="m511.681 14.604c-.249-7.914-6.588-14.253-14.501-14.501-6.981-.228-171.86-4.557-255.045 78.628-8.276 8.276-16.244 17.295-24.006 26.626-21.085-2.992-85.322-2.152-177.519 90.046-9.188 9.188-2.745 25.032 10.037 25.595 1.517.07 35.887 2.353 72.652 36.392-13.458 27.516-21.467 46.901-22.333 49.021-2.279 5.593-.984 12.005 3.284 16.272l.271.271c-15.621 2.161-30.713 8.958-42.697 20.943-25.45 25.45-58.265 132.077-61.58 150.182-.88 4.858.673 9.83 4.154 13.31 3.48 3.48 8.452 5.034 13.31 4.154 18.106-3.314 124.733-36.13 150.182-61.58 11.984-11.984 18.782-27.076 20.943-42.697l.271.271c4.268 4.267 10.679 5.562 16.272 3.283 2.125-.869 21.593-8.912 49.216-22.428 36.577 37.804 38.787 73.852 38.848 75.295.875 27.895 33.952 6.645 25.895 9.846.016-.016.031-.031.045-.048 99.397-99.578 92.243-166.463 88.968-181.449 8.631-7.261 17.004-14.681 24.708-22.385 83.182-83.188 78.853-248.066 78.625-255.047zm-30.038 15.537c-.355 15.091-1.718 40.537-6.315 69.651l-63.337-63.336c29.114-4.598 54.56-5.961 69.652-6.315zm-399.588 167.42c52.079-46.485 90.835-59.305 112.95-62.24-22.764 31.734-42.347 65.374-57.686 94.501-20.28-17.193-39.881-27.019-55.264-32.261zm77.059 205.591c-.964 6.965-3.904 17.06-12.439 25.595-1.218 1.218-13.445 12.467-66.982 32.146-16.388 6.024-31.523 10.966-43.367 14.563 3.597-11.839 8.54-26.977 14.564-43.367 19.679-53.538 30.928-65.764 32.146-66.982 8.535-8.535 18.629-11.476 25.595-12.439l22.494-3.112 31.102 31.102zm157.771 29.237c-5.481-16.082-16.006-36.781-34.721-58.032 30.062-15.84 64.928-36.156 97.504-59.85-1.685 21.131-12.788 61.87-62.783 117.882zm-113.738-53.236-70.517-70.517c14.18-32.39 65.608-143.583 130.718-208.693 29.533-29.533 72.357-46.568 113.261-56.444l91.676 91.676c-9.876 40.904-26.911 83.728-56.445 113.261-65.111 65.11-176.304 116.538-208.693 130.717zm70.807-247.39c-29.241 29.241-29.241 76.826 0 106.066s76.825 29.24 106.066 0c29.241-29.241 29.241-76.826 0-106.066s-76.825-29.24-106.066 0zm84.853 84.853c-17.546 17.546-46.093 17.546-63.64 0s-17.547-46.093 0-63.64c17.546-17.546 46.093-17.546 63.64 0 17.546 17.547 17.546 46.093 0 63.64z" fill="url(#SVGID_1_)"/></g></g></svg>