<svg id="Capa_1" enable-background="new 0 0 511.995 511.995" height="512" viewBox="0 0 511.995 511.995" width="512" xmlns="http://www.w3.org/2000/svg" xmlns:xlink="http://www.w3.org/1999/xlink"><linearGradient id="SVGID_1_" gradientUnits="userSpaceOnUse" x1="255.998" x2="255.998" y1="480.998" y2="30.998"><stop offset="0" stop-color="#00b59c"/><stop offset="1" stop-color="#9cffac"/></linearGradient><path d="m505.952 363.962-121-90c-5.086-3.783-12.001-3.962-17.274-.444-5.273 3.517-7.768 9.968-6.229 16.118l10.104 40.419c-38.041-3.911-80.111-21.223-98.594-74.078 14.685-41.745 50.264-68.322 98.557-73.887l-10.067 40.269c-1.538 6.149.956 12.601 6.229 16.118 5.274 3.517 12.188 3.339 17.274-.444l121-90c8.053-5.989 8.061-18.076 0-24.071l-121-90c-5.086-3.783-12.001-3.961-17.274-.444s-7.768 9.968-6.229 16.118l10.496 41.985c-30.687 2.04-58.665 9.083-83.388 21.014-24.094 11.627-45.151 27.907-62.621 48.38-38.359-44.154-94.436-70.017-153.627-70.017h-57.309c-8.284 0-15 6.716-15 15v60c0 8.284 6.716 15 15 15h57.309c48.264 0 90.559 29.93 106.706 74.965-16.033 44.693-58.404 75.035-106.706 75.035h-57.309c-8.284 0-15 6.716-15 15v60c0 8.284 6.716 15 15 15h57.309c60.583 0 115.975-26.608 153.648-70.017 36.08 42.161 85.04 65.455 145.984 69.41l-10.492 41.968c-1.538 6.149.956 12.601 6.229 16.118 5.27 3.514 12.184 3.342 17.274-.444l121-90c8.054-5.989 8.062-18.076 0-24.071zm-433.643-212.964h-42.309v-30h42.309c52.804 0 102.7 24.124 135.417 64.995-6.529 10.53-11.567 20.706-15.41 29.762-25.305-38.703-69.537-64.757-120.007-64.757zm0 240h-42.309v-30h42.309c66.064 0 123.177-44.83 139.137-108.64 9.064-36.235 26.977-58.22 28.124-60.668 25.187-35.249 70.616-70.692 151.431-70.692 4.619 0 8.98-2.128 11.823-5.769s3.85-8.388 2.729-12.869l-4.817-19.27 71.132 52.908-71.132 52.908 4.817-19.27c1.121-4.481.114-9.229-2.729-12.869-2.843-3.641-7.204-5.769-11.823-5.769-40.224 0-74.293 10.664-101.262 31.694-25.124 19.591-41.636 46.77-49.184 76.946-19.349 77.343-88.534 131.36-168.246 131.36zm328.425 37.907 4.817-19.27c1.121-4.481.114-9.229-2.729-12.87s-7.204-5.769-11.823-5.769c-63.139 0-112.406-21.806-146.619-64.829 5.816-9.23 10.921-18.994 15.243-29.223 28.962 45.363 77.33 64.035 130.931 64.052.135-.03 7.375.498 12.269-5.769 2.843-3.641 3.85-8.388 2.729-12.87l-4.817-19.27 71.132 52.908z" fill="url(#SVGID_1_)"/></svg>