<svg id="Capa_1" enable-background="new 0 0 512 512" height="512" viewBox="0 0 512 512" width="512" xmlns="http://www.w3.org/2000/svg" xmlns:xlink="http://www.w3.org/1999/xlink"><linearGradient id="SVGID_1_" gradientUnits="userSpaceOnUse" x1="256" x2="256" y1="512" y2="0"><stop offset="0" stop-color="#5558ff"/><stop offset="1" stop-color="#00c0ff"/></linearGradient><g><g><path d="m256 0c-140.61 0-256 115.39-256 256s115.39 256 256 256 256-115.39 256-256-115.39-256-256-256zm0 481c-124.072 0-225-100.928-225-225s100.928-225 225-225 225 100.928 225 225-100.928 225-225 225zm137.886-362.886c-76.025-76.025-199.746-76.025-275.771 0-36.768 36.768-57.027 85.738-57.027 137.886 0 8.291 6.709 15 15 15h59.971c8.291 0 15-6.709 15-15 0-28.096 10.898-54.463 30.688-74.253 37.324-37.297 95.722-40.208 136.824-9.529l-73.176 73.176c-5.859 5.859-5.859 15.352 0 21.211 2.93 2.93 6.768 4.395 10.605 4.395s7.676-1.465 10.605-4.395l73.213-73.213c13.488 18.016 21.123 39.624 21.123 62.607 0 8.291 6.709 15 15 15h59.971c8.291 0 15-6.709 15-15 0-52.147-20.259-101.117-57.026-137.885zm-54.101 32.89c-52.961-42.252-130.234-39.483-179.249 9.532-21.899 21.899-35.332 50.039-38.657 80.464h-30.132c3.442-38.452 20.024-74.121 47.578-101.675 60.705-60.705 156.912-63.386 221.671-9.532zm50.336 89.996c-2.78-25.437-12.993-49.036-28.943-68.967l21.183-21.183c21.444 25.721 34.898 56.711 37.892 90.15zm-44.121 90h-180c-8.291 0-15 6.709-15 15v60c0 8.291 6.709 15 15 15h180c8.291 0 15-6.709 15-15v-60c0-8.291-6.709-15-15-15zm-15 60h-150v-30h150z" fill="url(#SVGID_1_)"/></g></g></svg>